ISO-10303-21;
HEADER;
FILE_DESCRIPTION (( 'STEP AP214' ),
    '1' );
FILE_NAME ('rocker-arm.STEP',
    '2026-10-03T16:46:19',
    ( '' ),
    ( '' ),
    'SwSTEP 2.0',
    'SolidWorks 2026',
    '' );
FILE_SCHEMA (( 'AUTOMOTIVE_DESIGN' ));
ENDSEC;

DATA;
#1 = ADVANCED_FACE ( 'HAF_ROD_HOLE__P01', ( #202 ), #363, .F. ) ;
#2 = ORIENTED_EDGE ( 'NONE', *, *, #128, .F. ) ;
#3 = CARTESIAN_POINT ( 'NONE',  ( 5.758053848120246343, 0.9369883144493473814, -0.04921259842519685318 ) ) ;
#4 = ORIENTED_EDGE ( 'NONE', *, *, #336, .T. ) ;
#5 = DIRECTION ( 'NONE',  ( -0.000000000000000000, -0.000000000000000000, -1.000000000000000000 ) ) ;
#6 = AXIS2_PLACEMENT_3D ( 'NONE', #433, #37, #345 ) ;
#7 = VERTEX_POINT ( 'NONE', #241 ) ;
#8 = DIRECTION ( 'NONE',  ( 1.000000000000000000, 0.000000000000000000, 0.000000000000000000 ) ) ;
#9 = ORIENTED_EDGE ( 'NONE', *, *, #419, .F. ) ;
#10 = DIRECTION ( 'NONE',  ( 0.000000000000000000, 0.000000000000000000, 1.000000000000000000 ) ) ;
#11 = VERTEX_POINT ( 'NONE', #411 ) ;
#12 = DIRECTION ( 'NONE',  ( 0.000000000000000000, 0.000000000000000000, 1.000000000000000000 ) ) ;
#13 = AXIS2_PLACEMENT_3D ( 'NONE', #48, #404, #137 ) ;
#14 = CARTESIAN_POINT ( 'NONE',  ( -0.2007874000000000048, 0.3149606300000000747, 0.1389074799999999998 ) ) ;
#15 = LINE ( 'NONE', #487, #24 ) ;
#16 = EDGE_CURVE ( 'NONE', #209, #47, #134, .T. ) ;
#17 = EDGE_LOOP ( 'NONE', ( #219, #377, #481, #233 ) ) ;
#18 = PLANE ( 'NONE',  #283 ) ;
#19 = ORIENTED_EDGE ( 'NONE', *, *, #557, .T. ) ;
#20 = CARTESIAN_POINT ( 'NONE',  ( 0.1279527550000000014, 0.3149606300000000747, -0.3937007874015748254 ) ) ;
#21 = DIRECTION ( 'NONE',  ( -0.000000000000000000, -0.000000000000000000, -1.000000000000000000 ) ) ;
#22 = ORIENTED_EDGE ( 'NONE', *, *, #42, .T. ) ;
#23 = LINE ( 'NONE', #452, #448 ) ;
#24 = VECTOR ( 'NONE', #90, 39.37007874015748854 ) ;
#25 = AXIS2_PLACEMENT_3D ( 'NONE', #113, #429, #384 ) ;
#26 = CARTESIAN_POINT ( 'NONE',  ( 5.718112829999999924, 1.153332288415617413, 0.04921259842519685318 ) ) ;
#27 = EDGE_CURVE ( 'NONE', #228, #140, #491, .T. ) ;
#28 = CARTESIAN_POINT ( 'NONE',  ( -5.226663600000000187, 0.4280213557747146180, 0.04921259842519685318 ) ) ;
#29 = DIRECTION ( 'NONE',  ( 1.000000000000000000, 0.000000000000000000, -0.000000000000000000 ) ) ;
#30 = VERTEX_POINT ( 'NONE', #139 ) ;
#31 = CARTESIAN_POINT ( 'NONE',  ( 5.199624100000001192, 0.6478765399975994210, 0.04921259842519685318 ) ) ;
#32 = CARTESIAN_POINT ( 'NONE',  ( 0.000000000000000000, 0.3149606300000000747, 0.1389074799999999998 ) ) ;
#33 = ORIENTED_EDGE ( 'NONE', *, *, #524, .T. ) ;
#34 = VECTOR ( 'NONE', #372, 39.37007874015748143 ) ;
#35 = COLOUR_RGB ( '',0.7921568627450980005, 0.8196078431372548767, 0.9333333333333333481 ) ;
#36 = AXIS2_PLACEMENT_3D ( 'NONE', #414, #284, #458 ) ;
#37 = DIRECTION ( 'NONE',  ( -0.000000000000000000, -0.000000000000000000, 1.000000000000000000 ) ) ;
#38 = ORIENTED_EDGE ( 'NONE', *, *, #457, .T. ) ;
#39 = FACE_OUTER_BOUND ( 'NONE', #349, .T. ) ;
#40 = APPLICATION_PROTOCOL_DEFINITION ( 'draft international standard', 'automotive_design', 1998, #471 ) ;
#41 = FACE_BOUND ( 'NONE', #216, .T. ) ;
#42 = EDGE_CURVE ( 'NONE', #97, #307, #15, .T. ) ;
#43 = ORIENTED_EDGE ( 'NONE', *, *, #428, .T. ) ;
#44 = CARTESIAN_POINT ( 'NONE',  ( 0.2007874000000000048, 0.3149606300000000747, 0.1389074799999999998 ) ) ;
#45 = ORIENTED_EDGE ( 'NONE', *, *, #193, .F. ) ;
#46 = DIRECTION ( 'NONE',  ( -0.000000000000000000, -0.000000000000000000, -1.000000000000000000 ) ) ;
#47 = VERTEX_POINT ( 'NONE', #235 ) ;
#48 = CARTESIAN_POINT ( 'NONE',  ( 0.000000000000000000, 32.12598425000000191, 0.04921259842519685318 ) ) ;
#49 = AXIS2_PLACEMENT_3D ( 'NONE', #308, #525, #312 ) ;
#50 = AXIS2_PLACEMENT_3D ( 'NONE', #26, #340, #561 ) ;
#51 = ORIENTED_EDGE ( 'NONE', *, *, #299, .T. ) ;
#52 = ADVANCED_FACE ( 'HAF_ROD_HOLE__P01', ( #497 ), #151, .F. ) ;
#53 = DIRECTION ( 'NONE',  ( 1.000000000000000000, 0.000000000000000000, 0.000000000000000000 ) ) ;
#54 = ORIENTED_EDGE ( 'NONE', *, *, #101, .F. ) ;
#55 = DIRECTION ( 'NONE',  ( -0.1815500823647561712, 0.9833816998466822223, -0.000000000000000000 ) ) ;
#56 = DIRECTION ( 'NONE',  ( 0.000000000000000000, 0.000000000000000000, 1.000000000000000000 ) ) ;
#57 = LINE ( 'NONE', #456, #520 ) ;
#58 = EDGE_CURVE ( 'NONE', #7, #488, #59, .T. ) ;
#59 = LINE ( 'NONE', #237, #34 ) ;
#60 = ORIENTED_EDGE ( 'NONE', *, *, #260, .T. ) ;
#61 = CARTESIAN_POINT ( 'NONE',  ( 0.000000000000000000, 32.12598425000000191, 0.04921259842519685318 ) ) ;
#62 = ORIENTED_EDGE ( 'NONE', *, *, #407, .T. ) ;
#63 = FACE_OUTER_BOUND ( 'NONE', #437, .T. ) ;
#64 = VERTEX_POINT ( 'NONE', #28 ) ;
#65 = DIRECTION ( 'NONE',  ( 1.000000000000000000, 0.000000000000000000, 0.000000000000000000 ) ) ;
#66 = DIRECTION ( 'NONE',  ( 0.000000000000000000, 0.000000000000000000, 1.000000000000000000 ) ) ;
#67 = CARTESIAN_POINT ( 'NONE',  ( 0.000000000000000000, 0.3149606300000000747, 0.1389074799999999998 ) ) ;
#68 = EDGE_CURVE ( 'NONE', #112, #288, #146, .T. ) ;
#69 = PRESENTATION_LAYER_ASSIGNMENT (  '', '', ( #291 ) ) ;
#70 = FACE_OUTER_BOUND ( 'NONE', #449, .T. ) ;
#71 = CYLINDRICAL_SURFACE ( 'NONE', #222, 0.2007874000000000048 ) ;
#72 = PRESENTATION_STYLE_ASSIGNMENT (( #392 ) ) ;
#73 = CARTESIAN_POINT ( 'NONE',  ( -0.2007874000000000048, 0.3149606300000000747, 0.04921259842519684624 ) ) ;
#74 = VERTEX_POINT ( 'NONE', #556 ) ;
#75 = ADVANCED_FACE ( 'HAF_HUB_OD__P02', ( #217 ), #335, .T. ) ;
#76 = FACE_OUTER_BOUND ( 'NONE', #17, .T. ) ;
#77 = EDGE_LOOP ( 'NONE', ( #469, #92 ) ) ;
#78 = VECTOR ( 'NONE', #271, 39.37007874015748143 ) ;
#79 = CARTESIAN_POINT ( 'NONE',  ( -5.718112829999999924, 1.153332288415620521, 0.04921259842519685318 ) ) ;
#80 = ORIENTED_EDGE ( 'NONE', *, *, #442, .F. ) ;
#81 = FILL_AREA_STYLE ('',( #338 ) ) ;
#82 = PRODUCT_CONTEXT ( 'NONE', #471, 'mechanical' ) ;
#83 = CARTESIAN_POINT ( 'NONE',  ( 0.000000000000000000, 0.3149606300000000747, 0.04921259842519684624 ) ) ;
#84 = ADVANCED_FACE ( 'HAF_PROFILE_OUTER__P02', ( #164 ), #511, .T. ) ;
#85 = AXIS2_PLACEMENT_3D ( 'NONE', #493, #489, #394 ) ;
#86 = ORIENTED_EDGE ( 'NONE', *, *, #325, .F. ) ;
#87 = CARTESIAN_POINT ( 'NONE',  ( -0.2007874000000000048, 0.3149606300000000747, 0.1389074799999999998 ) ) ;
#88 = ORIENTED_EDGE ( 'NONE', *, *, #442, .T. ) ;
#89 = CARTESIAN_POINT ( 'NONE',  ( 0.000000000000000000, 0.3149606300000000747, -0.1389074799999999998 ) ) ;
#90 = DIRECTION ( 'NONE',  ( -0.1815500823647561712, -0.9833816998466822223, 0.000000000000000000 ) ) ;
#91 = EDGE_CURVE ( 'NONE', #385, #7, #221, .T. ) ;
#92 = ORIENTED_EDGE ( 'NONE', *, *, #198, .F. ) ;
#93 = DIRECTION ( 'NONE',  ( 1.000000000000000000, 0.000000000000000000, 0.000000000000000000 ) ) ;
#94 = AXIS2_PLACEMENT_3D ( 'NONE', #536, #366, #145 ) ;
#95 = CIRCLE ( 'NONE', #421, 0.2007874000000000048 ) ;
#96 = CIRCLE ( 'NONE', #185, 32.12598425000000191 ) ;
#97 = VERTEX_POINT ( 'NONE', #523 ) ;
#98 = DIRECTION ( 'NONE',  ( 1.000000000000000000, 0.000000000000000000, 0.000000000000000000 ) ) ;
#99 = CARTESIAN_POINT ( 'NONE',  ( 5.238874100000000311, 0.6478765399975994210, 0.04921259842519691563 ) ) ;
#100 = FACE_OUTER_BOUND ( 'NONE', #445, .T. ) ;
#101 = EDGE_CURVE ( 'NONE', #136, #226, #383, .T. ) ;
#102 = DIRECTION ( 'NONE',  ( -0.000000000000000000, -0.000000000000000000, 1.000000000000000000 ) ) ;
#103 = FACE_BOUND ( 'NONE', #507, .T. ) ;
#104 = MECHANICAL_DESIGN_GEOMETRIC_PRESENTATION_REPRESENTATION (  '', ( #291 ), #380 ) ;
#105 = CIRCLE ( 'NONE', #124, 0.1279527550000000014 ) ;
#106 = LINE ( 'NONE', #150, #310 ) ;
#107 = AXIS2_PLACEMENT_3D ( 'NONE', #342, #261, #389 ) ;
#108 = PLANE ( 'NONE',  #248 ) ;
#109 = CARTESIAN_POINT ( 'NONE',  ( 0.000000000000000000, 32.12598425000000191, -0.04921259842519685318 ) ) ;
#110 = DIRECTION ( 'NONE',  ( 1.000000000000000000, 0.000000000000000000, 0.000000000000000000 ) ) ;
#111 = EDGE_CURVE ( 'NONE', #140, #228, #230, .T. ) ;
#112 = VERTEX_POINT ( 'NONE', #251 ) ;
#113 = CARTESIAN_POINT ( 'NONE',  ( 5.758053848120246343, 0.9369883144493473814, 0.04921259842519685318 ) ) ;
#114 = DIRECTION ( 'NONE',  ( 0.1815500823647561712, 0.9833816998466822223, 0.000000000000000000 ) ) ;
#115 = SURFACE_STYLE_FILL_AREA ( #81 ) ;
#116 = DIRECTION ( 'NONE',  ( -0.000000000000000000, -0.000000000000000000, -1.000000000000000000 ) ) ;
#117 = EDGE_LOOP ( 'NONE', ( #341, #120, #302, #19 ) ) ;
#118 = ADVANCED_FACE ( 'HAF_STRAP_DATUM_B__P01', ( #465, #41, #70 ), #108, .T. ) ;
#119 = CARTESIAN_POINT ( 'NONE',  ( 0.2007874000000000048, 0.3149606300000000747, -0.1389074799999999998 ) ) ;
#120 = ORIENTED_EDGE ( 'NONE', *, *, #402, .F. ) ;
#121 = DIRECTION ( 'NONE',  ( 0.000000000000000000, 0.000000000000000000, 1.000000000000000000 ) ) ;
#122 = ORIENTED_EDGE ( 'NONE', *, *, #527, .F. ) ;
#123 = AXIS2_PLACEMENT_3D ( 'NONE', #379, #127, #160 ) ;
#124 = AXIS2_PLACEMENT_3D ( 'NONE', #280, #12, #453 ) ;
#125 = CYLINDRICAL_SURFACE ( 'NONE', #6, 0.1279527550000000014 ) ;
#126 = ORIENTED_EDGE ( 'NONE', *, *, #407, .F. ) ;
#127 = DIRECTION ( 'NONE',  ( 0.000000000000000000, 0.000000000000000000, 1.000000000000000000 ) ) ;
#128 = EDGE_CURVE ( 'NONE', #417, #401, #211, .T. ) ;
#129 =( NAMED_UNIT ( * ) SI_UNIT ( $, .STERADIAN. ) SOLID_ANGLE_UNIT ( ) );
#130 = EDGE_LOOP ( 'NONE', ( #526, #559 ) ) ;
#131 = DIRECTION ( 'NONE',  ( -0.000000000000000000, -0.000000000000000000, 1.000000000000000000 ) ) ;
#132 = ORIENTED_EDGE ( 'NONE', *, *, #565, .T. ) ;
#133 = LINE ( 'NONE', #3, #501 ) ;
#134 = CIRCLE ( 'NONE', #569, 0.03924999999999986139 ) ;
#135 = CIRCLE ( 'NONE', #266, 0.2007874000000000048 ) ;
#136 = VERTEX_POINT ( 'NONE', #165 ) ;
#137 = DIRECTION ( 'NONE',  ( 1.000000000000000000, 0.000000000000000000, 0.000000000000000000 ) ) ;
#138 = EDGE_CURVE ( 'NONE', #140, #47, #509, .T. ) ;
#139 = CARTESIAN_POINT ( 'NONE',  ( 5.226663600000000187, 0.4280213557747115094, 0.04921259842519685318 ) ) ;
#140 = VERTEX_POINT ( 'NONE', #420 ) ;
#141 = MANIFOLD_SOLID_BREP ( 'RodHole', #252 ) ;
#142 = CARTESIAN_POINT ( 'NONE',  ( -5.718112829999999924, 1.153332288415620521, 0.04921259842519685318 ) ) ;
#143 = VERTEX_POINT ( 'NONE', #44 ) ;
#144 = DIRECTION ( 'NONE',  ( -0.000000000000000000, -0.000000000000000000, 1.000000000000000000 ) ) ;
#145 = DIRECTION ( 'NONE',  ( 1.000000000000000000, 0.000000000000000000, 0.000000000000000000 ) ) ;
#146 = CIRCLE ( 'NONE', #357, 0.1279527550000000014 ) ;
#147 = CIRCLE ( 'NONE', #502, 31.49606298999999865 ) ;
#148 = EDGE_CURVE ( 'NONE', #490, #64, #351, .T. ) ;
#149 = ORIENTED_EDGE ( 'NONE', *, *, #16, .T. ) ;
#150 = CARTESIAN_POINT ( 'NONE',  ( -5.226663600000000187, 0.4280213557747146180, 0.04921259842519685318 ) ) ;
#151 = CYLINDRICAL_SURFACE ( 'NONE', #430, 0.03924999999999986139 ) ;
#152 = EDGE_LOOP ( 'NONE', ( #311, #223, #62, #522 ) ) ;
#153 = DIRECTION ( 'NONE',  ( -0.000000000000000000, -0.000000000000000000, -1.000000000000000000 ) ) ;
#154 = CARTESIAN_POINT ( 'NONE',  ( -0.1279527550000000014, 0.3149606300000000747, 0.1389074799999999998 ) ) ;
#155 = AXIS2_PLACEMENT_3D ( 'NONE', #486, #444, #482 ) ;
#156 = ORIENTED_EDGE ( 'NONE', *, *, #299, .F. ) ;
#157 = AXIS2_PLACEMENT_3D ( 'NONE', #109, #158, #321 ) ;
#158 = DIRECTION ( 'NONE',  ( 0.000000000000000000, 0.000000000000000000, 1.000000000000000000 ) ) ;
#159 = ADVANCED_FACE ( 'HAF_PIVOT_BORE__P01', ( #441 ), #181, .F. ) ;
#160 = DIRECTION ( 'NONE',  ( 1.000000000000000000, 0.000000000000000000, 0.000000000000000000 ) ) ;
#161 = ADVANCED_BREP_SHAPE_REPRESENTATION ( 'rocker-arm', ( #141, #543 ), #292 ) ;
#162 = ORIENTED_EDGE ( 'NONE', *, *, #207, .F. ) ;
#163 = DIRECTION ( 'NONE',  ( -0.000000000000000000, -0.000000000000000000, -1.000000000000000000 ) ) ;
#164 = FACE_OUTER_BOUND ( 'NONE', #268, .T. ) ;
#165 = CARTESIAN_POINT ( 'NONE',  ( 5.758053848120246343, 0.9369883144493473814, -0.04921259842519685318 ) ) ;
#166 = EDGE_CURVE ( 'NONE', #488, #398, #549, .T. ) ;
#167 = DIRECTION ( 'NONE',  ( -0.000000000000000000, -0.000000000000000000, -1.000000000000000000 ) ) ;
#168 = ORIENTED_EDGE ( 'NONE', *, *, #388, .T. ) ;
#169 = VECTOR ( 'NONE', #131, 39.37007874015748143 ) ;
#170 = DIRECTION ( 'NONE',  ( -0.000000000000000000, -0.000000000000000000, -1.000000000000000000 ) ) ;
#171 =( NAMED_UNIT ( * ) PLANE_ANGLE_UNIT ( ) SI_UNIT ( $, .RADIAN. ) );
#172 = ORIENTED_EDGE ( 'NONE', *, *, #325, .T. ) ;
#173 = DIRECTION ( 'NONE',  ( 1.000000000000000000, 0.000000000000000000, 0.000000000000000000 ) ) ;
#174 = VERTEX_POINT ( 'NONE', #189 ) ;
#175 = DIRECTION ( 'NONE',  ( 1.000000000000000000, 0.000000000000000000, 0.000000000000000000 ) ) ;
#176 = VECTOR ( 'NONE', #571, 39.37007874015748854 ) ;
#177 = EDGE_CURVE ( 'NONE', #174, #136, #133, .T. ) ;
#178 = DIRECTION ( 'NONE',  ( 0.000000000000000000, 0.000000000000000000, 1.000000000000000000 ) ) ;
#179 = LINE ( 'NONE', #353, #169 ) ;
#180 = ORIENTED_EDGE ( 'NONE', *, *, #68, .T. ) ;
#181 = CYLINDRICAL_SURFACE ( 'NONE', #155, 0.1279527550000000014 ) ;
#182 = APPLICATION_CONTEXT ( 'automotive_design' ) ;
#183 = ORIENTED_EDGE ( 'NONE', *, *, #557, .F. ) ;
#184 = LINE ( 'NONE', #447, #176 ) ;
#185 = AXIS2_PLACEMENT_3D ( 'NONE', #61, #195, #65 ) ;
#186 = ORIENTED_EDGE ( 'NONE', *, *, #218, .T. ) ;
#187 = LINE ( 'NONE', #142, #318 ) ;
#188 = ORIENTED_EDGE ( 'NONE', *, *, #166, .F. ) ;
#189 = CARTESIAN_POINT ( 'NONE',  ( 5.226663600000000187, 0.4280213557747115094, -0.04921259842519685318 ) ) ;
#190 = ORIENTED_EDGE ( 'NONE', *, *, #267, .T. ) ;
#191 = DIRECTION ( 'NONE',  ( -0.000000000000000000, -0.000000000000000000, -1.000000000000000000 ) ) ;
#192 = CARTESIAN_POINT ( 'NONE',  ( 5.238874100000000311, 0.6478765399975994210, -0.04921259842519685318 ) ) ;
#193 = EDGE_CURVE ( 'NONE', #352, #74, #258, .T. ) ;
#194 = VECTOR ( 'NONE', #232, 39.37007874015748143 ) ;
#195 = DIRECTION ( 'NONE',  ( 0.000000000000000000, 0.000000000000000000, 1.000000000000000000 ) ) ;
#196 = CARTESIAN_POINT ( 'NONE',  ( -0.2007874000000000048, 0.3149606300000000747, -0.1389074799999999998 ) ) ;
#197 = PLANE ( 'NONE',  #157 ) ;
#198 = EDGE_CURVE ( 'NONE', #47, #209, #403, .T. ) ;
#199 = DIMENSIONAL_EXPONENTS ( 1.000000000000000000, 0.000000000000000000, 0.000000000000000000, 0.000000000000000000, 0.000000000000000000, 0.000000000000000000, 0.000000000000000000 ) ;
#200 = DIRECTION ( 'NONE',  ( -0.1815500823647561712, 0.9833816998466822223, -0.000000000000000000 ) ) ;
#201 = CIRCLE ( 'NONE', #85, 0.1279527550000000014 ) ;
#202 = FACE_OUTER_BOUND ( 'NONE', #367, .T. ) ;
#203 = AXIS2_PLACEMENT_3D ( 'NONE', #236, #381, #371 ) ;
#204 = DIRECTION ( 'NONE',  ( 0.000000000000000000, 0.000000000000000000, 1.000000000000000000 ) ) ;
#205 = LENGTH_MEASURE_WITH_UNIT ( LENGTH_MEASURE( 0.02539999999999999897 ), #459 );
#206 = CARTESIAN_POINT ( 'NONE',  ( 0.000000000000000000, 0.3149606300000000747, -0.04921259842519684624 ) ) ;
#207 = EDGE_CURVE ( 'NONE', #74, #97, #187, .T. ) ;
#208 = FACE_OUTER_BOUND ( 'NONE', #467, .T. ) ;
#209 = VERTEX_POINT ( 'NONE', #220 ) ;
#210 = PRODUCT_DEFINITION_SHAPE ( 'NONE', 'NONE',  #386 ) ;
#211 = CIRCLE ( 'NONE', #512, 0.1279527550000000014 ) ;
#212 = VECTOR ( 'NONE', #553, 39.37007874015748143 ) ;
#213 = DIRECTION ( 'NONE',  ( -0.000000000000000000, -0.000000000000000000, -1.000000000000000000 ) ) ;
#214 = ORIENTED_EDGE ( 'NONE', *, *, #193, .T. ) ;
#215 = PLANE ( 'NONE',  #454 ) ;
#216 = EDGE_LOOP ( 'NONE', ( #186, #515 ) ) ;
#217 = FACE_OUTER_BOUND ( 'NONE', #373, .T. ) ;
#218 = EDGE_CURVE ( 'NONE', #540, #272, #470, .T. ) ;
#219 = ORIENTED_EDGE ( 'NONE', *, *, #101, .T. ) ;
#220 = CARTESIAN_POINT ( 'NONE',  ( 5.278124100000000318, 0.6478765399975994210, 0.04921259842519691563 ) ) ;
#221 = CIRCLE ( 'NONE', #480, 0.2007874000000000048 ) ;
#222 = AXIS2_PLACEMENT_3D ( 'NONE', #67, #116, #296 ) ;
#223 = ORIENTED_EDGE ( 'NONE', *, *, #242, .F. ) ;
#224 = CARTESIAN_POINT ( 'NONE',  ( 5.278124100000000318, 0.6478765399975994210, -0.04921259842519685318 ) ) ;
#225 = ADVANCED_FACE ( 'HAF_PROFILE_OUTER__P01', ( #361 ), #355, .F. ) ;
#226 = VERTEX_POINT ( 'NONE', #538 ) ;
#227 = CARTESIAN_POINT ( 'NONE',  ( -5.758053848120246343, 0.9369883144493503790, 0.04921259842519685318 ) ) ;
#228 = VERTEX_POINT ( 'NONE', #224 ) ;
#229 = CARTESIAN_POINT ( 'NONE',  ( -5.758053848120246343, 0.9369883144493503790, 0.04921259842519685318 ) ) ;
#230 = CIRCLE ( 'NONE', #123, 0.03924999999999986139 ) ;
#231 = EDGE_LOOP ( 'NONE', ( #245, #473, #443, #427 ) ) ;
#232 = DIRECTION ( 'NONE',  ( 0.7221796482027614816, -0.6917055411963500822, 0.000000000000000000 ) ) ;
#233 = ORIENTED_EDGE ( 'NONE', *, *, #402, .T. ) ;
#234 = CARTESIAN_POINT ( 'NONE',  ( 5.758053848120246343, 0.9369883144493473814, 0.04921259842519685318 ) ) ;
#235 = CARTESIAN_POINT ( 'NONE',  ( 5.199624100000001192, 0.6478765399975994210, 0.04921259842519691563 ) ) ;
#236 = CARTESIAN_POINT ( 'NONE',  ( 0.000000000000000000, 0.3149606300000000747, 0.04921259842519684624 ) ) ;
#237 = CARTESIAN_POINT ( 'NONE',  ( 0.2007874000000000048, 0.3149606300000000747, 0.1389074799999999998 ) ) ;
#238 = VECTOR ( 'NONE', #163, 39.37007874015748143 ) ;
#239 = CARTESIAN_POINT ( 'NONE',  ( 5.718112829999999924, 1.153332288415617413, 0.04921259842519685318 ) ) ;
#240 = UNCERTAINTY_MEASURE_WITH_UNIT (LENGTH_MEASURE( 1.000000000000000082E-05 ), #254, 'distance_accuracy_value', 'NONE');
#241 = CARTESIAN_POINT ( 'NONE',  ( 0.2007874000000000048, 0.3149606300000000747, -0.04921259842519684624 ) ) ;
#242 = EDGE_CURVE ( 'NONE', #288, #112, #201, .T. ) ;
#243 = DIRECTION ( 'NONE',  ( 1.000000000000000000, 0.000000000000000000, -0.000000000000000000 ) ) ;
#244 = DIRECTION ( 'NONE',  ( 0.000000000000000000, 0.000000000000000000, 1.000000000000000000 ) ) ;
#245 = ORIENTED_EDGE ( 'NONE', *, *, #111, .F. ) ;
#246 = CARTESIAN_POINT ( 'NONE',  ( -0.2007874000000000048, 0.3149606300000000747, 0.1389074799999999998 ) ) ;
#247 = DIRECTION ( 'NONE',  ( -0.000000000000000000, -0.000000000000000000, -1.000000000000000000 ) ) ;
#248 = AXIS2_PLACEMENT_3D ( 'NONE', #376, #477, #327 ) ;
#249 = ORIENTED_EDGE ( 'NONE', *, *, #343, .F. ) ;
#250 = CARTESIAN_POINT ( 'NONE',  ( 0.2007874000000000048, 0.3149606300000000747, 0.1389074799999999998 ) ) ;
#251 = CARTESIAN_POINT ( 'NONE',  ( -0.1279527550000000014, 0.3149606300000000747, -0.1389074799999999998 ) ) ;
#252 = CLOSED_SHELL ( 'NONE', ( #52, #159, #75, #539, #84, #475, #495, #503, #483, #225, #118, #410, #510, #518, #464, #374, #546, #1 ) ) ;
#253 = PRODUCT_DEFINITION_CONTEXT ( 'detailed design', #182, 'design' ) ;
#254 =( CONVERSION_BASED_UNIT ( 'INCH', #205 ) LENGTH_UNIT ( ) NAMED_UNIT ( #199 ) );
#255 = FACE_OUTER_BOUND ( 'NONE', #152, .T. ) ;
#256 = ORIENTED_EDGE ( 'NONE', *, *, #177, .F. ) ;
#257 = CARTESIAN_POINT ( 'NONE',  ( 5.226663600000000187, 0.4280213557747115094, 0.04921259842519685318 ) ) ;
#258 = CIRCLE ( 'NONE', #13, 31.49606298999999865 ) ;
#259 = ORIENTED_EDGE ( 'NONE', *, *, #305, .T. ) ;
#260 = EDGE_CURVE ( 'NONE', #490, #307, #535, .T. ) ;
#261 = DIRECTION ( 'NONE',  ( -0.000000000000000000, -0.000000000000000000, -1.000000000000000000 ) ) ;
#262 = APPLICATION_PROTOCOL_DEFINITION ( 'draft international standard', 'automotive_design', 1998, #182 ) ;
#263 = ORIENTED_EDGE ( 'NONE', *, *, #315, .F. ) ;
#264 = CARTESIAN_POINT ( 'NONE',  ( 0.000000000000000000, 0.3149606300000000747, 0.1389074799999999998 ) ) ;
#265 = AXIS2_PLACEMENT_3D ( 'NONE', #416, #21, #506 ) ;
#266 = AXIS2_PLACEMENT_3D ( 'NONE', #555, #516, #514 ) ;
#267 = EDGE_CURVE ( 'NONE', #112, #417, #528, .T. ) ;
#268 = EDGE_LOOP ( 'NONE', ( #43, #183, #249, #168 ) ) ;
#269 = DIRECTION ( 'NONE',  ( 0.000000000000000000, 0.000000000000000000, 1.000000000000000000 ) ) ;
#270 = ORIENTED_EDGE ( 'NONE', *, *, #336, .F. ) ;
#271 = DIRECTION ( 'NONE',  ( 0.7221796482027614816, -0.6917055411963500822, 0.000000000000000000 ) ) ;
#272 = VERTEX_POINT ( 'NONE', #317 ) ;
#273 = CARTESIAN_POINT ( 'NONE',  ( -5.758053848120246343, 0.9369883144493503790, -0.04921259842519685318 ) ) ;
#274 = VECTOR ( 'NONE', #55, 39.37007874015748854 ) ;
#275 = ORIENTED_EDGE ( 'NONE', *, *, #91, .T. ) ;
#276 = EDGE_CURVE ( 'NONE', #356, #143, #95, .T. ) ;
#277 = CARTESIAN_POINT ( 'NONE',  ( 0.1279527550000000014, 0.3149606300000000747, -0.1389074799999999998 ) ) ;
#278 = DIRECTION ( 'NONE',  ( -0.000000000000000000, -0.000000000000000000, 1.000000000000000000 ) ) ;
#279 = ORIENTED_EDGE ( 'NONE', *, *, #207, .T. ) ;
#280 = CARTESIAN_POINT ( 'NONE',  ( 0.000000000000000000, 0.3149606300000000747, 0.1389074799999999998 ) ) ;
#281 = DIRECTION ( 'NONE',  ( 1.000000000000000000, 0.000000000000000000, 0.000000000000000000 ) ) ;
#282 = FACE_BOUND ( 'NONE', #130, .T. ) ;
#283 = AXIS2_PLACEMENT_3D ( 'NONE', #418, #204, #243 ) ;
#284 = DIRECTION ( 'NONE',  ( 0.000000000000000000, 0.000000000000000000, 1.000000000000000000 ) ) ;
#285 = DIRECTION ( 'NONE',  ( -1.000000000000000000, 0.000000000000000000, 0.000000000000000000 ) ) ;
#286 = EDGE_LOOP ( 'NONE', ( #275, #567, #534, #156 ) ) ;
#287 = DIRECTION ( 'NONE',  ( -0.000000000000000000, -0.000000000000000000, -1.000000000000000000 ) ) ;
#288 = VERTEX_POINT ( 'NONE', #277 ) ;
#289 = CARTESIAN_POINT ( 'NONE',  ( 5.758053848120246343, 0.9369883144493473814, 0.04921259842519685318 ) ) ;
#290 = DIRECTION ( 'NONE',  ( -0.000000000000000000, -0.000000000000000000, -1.000000000000000000 ) ) ;
#291 = STYLED_ITEM ( 'NONE', ( #72 ), #141 ) ;
#292 =( GEOMETRIC_REPRESENTATION_CONTEXT ( 3 ) GLOBAL_UNCERTAINTY_ASSIGNED_CONTEXT ( ( #344 ) ) GLOBAL_UNIT_ASSIGNED_CONTEXT ( ( #472, #171, #129 ) ) REPRESENTATION_CONTEXT ( 'NONE', 'WORKASPACE' ) );
#293 = CARTESIAN_POINT ( 'NONE',  ( 0.000000000000000000, 0.3149606300000000747, -0.1389074799999999998 ) ) ;
#294 = EDGE_CURVE ( 'NONE', #30, #440, #184, .T. ) ;
#295 = SURFACE_SIDE_STYLE ('',( #115 ) ) ;
#296 = DIRECTION ( 'NONE',  ( -1.000000000000000000, 0.000000000000000000, 0.000000000000000000 ) ) ;
#297 = EDGE_LOOP ( 'NONE', ( #9, #2 ) ) ;
#298 = LINE ( 'NONE', #257, #369 ) ;
#299 = EDGE_CURVE ( 'NONE', #385, #398, #397, .T. ) ;
#300 = CYLINDRICAL_SURFACE ( 'NONE', #432, 0.2007874000000000048 ) ;
#301 = CIRCLE ( 'NONE', #203, 0.2007874000000000048 ) ;
#302 = ORIENTED_EDGE ( 'NONE', *, *, #294, .F. ) ;
#303 = DIRECTION ( 'NONE',  ( -0.000000000000000000, -0.000000000000000000, 1.000000000000000000 ) ) ;
#304 = ORIENTED_EDGE ( 'NONE', *, *, #128, .T. ) ;
#305 = EDGE_CURVE ( 'NONE', #228, #209, #179, .T. ) ;
#306 = DIRECTION ( 'NONE',  ( 1.000000000000000000, 0.000000000000000000, 0.000000000000000000 ) ) ;
#307 = VERTEX_POINT ( 'NONE', #273 ) ;
#308 = CARTESIAN_POINT ( 'NONE',  ( -5.758053848120246343, 0.9369883144493503790, 0.04921259842519685318 ) ) ;
#309 = AXIS2_PLACEMENT_3D ( 'NONE', #192, #56, #533 ) ;
#310 = VECTOR ( 'NONE', #153, 39.37007874015748143 ) ;
#311 = ORIENTED_EDGE ( 'NONE', *, *, #267, .F. ) ;
#312 = DIRECTION ( 'NONE',  ( -0.7221796482027614816, 0.6917055411963500822, 0.000000000000000000 ) ) ;
#313 = ORIENTED_EDGE ( 'NONE', *, *, #27, .T. ) ;
#314 = CARTESIAN_POINT ( 'NONE',  ( -0.1279527550000000014, 0.3149606300000000747, -0.3937007874015748254 ) ) ;
#315 = EDGE_CURVE ( 'NONE', #143, #356, #319, .T. ) ;
#316 = ORIENTED_EDGE ( 'NONE', *, *, #138, .F. ) ;
#317 = CARTESIAN_POINT ( 'NONE',  ( 0.2007874000000000048, 0.3149606300000000747, 0.04921259842519684624 ) ) ;
#318 = VECTOR ( 'NONE', #406, 39.37007874015748143 ) ;
#319 = CIRCLE ( 'NONE', #531, 0.2007874000000000048 ) ;
#320 = EDGE_LOOP ( 'NONE', ( #476, #180 ) ) ;
#321 = DIRECTION ( 'NONE',  ( 1.000000000000000000, 0.000000000000000000, -0.000000000000000000 ) ) ;
#322 = CARTESIAN_POINT ( 'NONE',  ( 5.238874100000000311, 0.6478765399975994210, 0.04921259842519685318 ) ) ;
#323 = ORIENTED_EDGE ( 'NONE', *, *, #565, .F. ) ;
#324 = LINE ( 'NONE', #239, #274 ) ;
#325 = EDGE_CURVE ( 'NONE', #307, #11, #399, .T. ) ;
#326 = CARTESIAN_POINT ( 'NONE',  ( 0.000000000000000000, 32.12598425000000191, -0.04921259842519685318 ) ) ;
#327 = DIRECTION ( 'NONE',  ( 1.000000000000000000, 0.000000000000000000, -0.000000000000000000 ) ) ;
#328 = AXIS2_PLACEMENT_3D ( 'NONE', #450, #365, #8 ) ;
#329 = VECTOR ( 'NONE', #213, 39.37007874015748143 ) ;
#330 = ORIENTED_EDGE ( 'NONE', *, *, #276, .F. ) ;
#331 = DIRECTION ( 'NONE',  ( 1.000000000000000000, 0.000000000000000000, 0.000000000000000000 ) ) ;
#332 = CARTESIAN_POINT ( 'NONE',  ( 0.000000000000000000, 0.3149606300000000747, 0.1389074799999999998 ) ) ;
#333 = ORIENTED_EDGE ( 'NONE', *, *, #148, .F. ) ;
#334 = FACE_OUTER_BOUND ( 'NONE', #552, .T. ) ;
#335 = CYLINDRICAL_SURFACE ( 'NONE', #359, 0.2007874000000000048 ) ;
#336 = EDGE_CURVE ( 'NONE', #74, #490, #57, .T. ) ;
#337 = DIRECTION ( 'NONE',  ( 0.9833816998466823334, -0.1815500823647561990, 0.000000000000000000 ) ) ;
#338 = FILL_AREA_STYLE_COLOUR ( '', #35 ) ;
#339 = AXIS2_PLACEMENT_3D ( 'NONE', #83, #438, #306 ) ;
#340 = DIRECTION ( 'NONE',  ( -0.9833816998466823334, -0.1815500823647561990, 0.000000000000000000 ) ) ;
#341 = ORIENTED_EDGE ( 'NONE', *, *, #177, .T. ) ;
#342 = CARTESIAN_POINT ( 'NONE',  ( 0.000000000000000000, 32.12598425000000191, 0.04921259842519685318 ) ) ;
#343 = EDGE_CURVE ( 'NONE', #64, #30, #96, .T. ) ;
#344 = UNCERTAINTY_MEASURE_WITH_UNIT (LENGTH_MEASURE( 1.000000000000000082E-05 ), #472, 'distance_accuracy_value', 'NONE');
#345 = DIRECTION ( 'NONE',  ( 1.000000000000000000, 0.000000000000000000, 0.000000000000000000 ) ) ;
#346 = EDGE_LOOP ( 'NONE', ( #498, #190, #304, #126 ) ) ;
#347 = DIRECTION ( 'NONE',  ( -1.000000000000000000, 0.000000000000000000, 0.000000000000000000 ) ) ;
#348 = VECTOR ( 'NONE', #144, 39.37007874015748143 ) ;
#349 = EDGE_LOOP ( 'NONE', ( #80, #188 ) ) ;
#350 = PRODUCT_DEFINITION_FORMATION_WITH_SPECIFIED_SOURCE ( 'ANY', '', #562, .NOT_KNOWN. ) ;
#351 = LINE ( 'NONE', #229, #78 ) ;
#352 = VERTEX_POINT ( 'NONE', #545 ) ;
#353 = CARTESIAN_POINT ( 'NONE',  ( 5.278124100000000318, 0.6478765399975994210, 0.04921259842519685318 ) ) ;
#354 = EDGE_LOOP ( 'NONE', ( #460, #162, #45, #530 ) ) ;
#355 = PLANE ( 'NONE',  #49 ) ;
#356 = VERTEX_POINT ( 'NONE', #14 ) ;
#357 = AXIS2_PLACEMENT_3D ( 'NONE', #425, #66, #175 ) ;
#358 = CARTESIAN_POINT ( 'NONE',  ( -5.758053848120246343, 0.9369883144493503790, -0.04921259842519685318 ) ) ;
#359 = AXIS2_PLACEMENT_3D ( 'NONE', #332, #247, #285 ) ;
#360 = ORIENTED_EDGE ( 'NONE', *, *, #370, .F. ) ;
#361 = FACE_OUTER_BOUND ( 'NONE', #537, .T. ) ;
#362 = EDGE_CURVE ( 'NONE', #352, #226, #23, .T. ) ;
#363 = CYLINDRICAL_SURFACE ( 'NONE', #94, 0.03924999999999986139 ) ;
#364 = ORIENTED_EDGE ( 'NONE', *, *, #218, .F. ) ;
#365 = DIRECTION ( 'NONE',  ( -0.000000000000000000, -0.000000000000000000, 1.000000000000000000 ) ) ;
#366 = DIRECTION ( 'NONE',  ( -0.000000000000000000, -0.000000000000000000, 1.000000000000000000 ) ) ;
#367 = EDGE_LOOP ( 'NONE', ( #316, #564, #259, #149 ) ) ;
#368 = DIRECTION ( 'NONE',  ( 0.000000000000000000, 0.000000000000000000, 1.000000000000000000 ) ) ;
#369 = VECTOR ( 'NONE', #170, 39.37007874015748143 ) ;
#370 = EDGE_CURVE ( 'NONE', #272, #540, #301, .T. ) ;
#371 = DIRECTION ( 'NONE',  ( 1.000000000000000000, 0.000000000000000000, 0.000000000000000000 ) ) ;
#372 = DIRECTION ( 'NONE',  ( -0.000000000000000000, -0.000000000000000000, -1.000000000000000000 ) ) ;
#373 = EDGE_LOOP ( 'NONE', ( #263, #132, #364, #391 ) ) ;
#374 = ADVANCED_FACE ( 'HAF_HUB_FACES__P02', ( #548, #100 ), #18, .T. ) ;
#375 = LINE ( 'NONE', #20, #550 ) ;
#376 = CARTESIAN_POINT ( 'NONE',  ( 0.000000000000000000, 32.12598425000000191, 0.04921259842519685318 ) ) ;
#377 = ORIENTED_EDGE ( 'NONE', *, *, #362, .F. ) ;
#378 = FACE_OUTER_BOUND ( 'NONE', #117, .T. ) ;
#379 = CARTESIAN_POINT ( 'NONE',  ( 5.238874100000000311, 0.6478765399975994210, -0.04921259842519685318 ) ) ;
#380 =( GEOMETRIC_REPRESENTATION_CONTEXT ( 3 ) GLOBAL_UNCERTAINTY_ASSIGNED_CONTEXT ( ( #240 ) ) GLOBAL_UNIT_ASSIGNED_CONTEXT ( ( #254, #436, #554 ) ) REPRESENTATION_CONTEXT ( 'NONE', 'WORKASPACE' ) );
#381 = DIRECTION ( 'NONE',  ( -0.000000000000000000, -0.000000000000000000, -1.000000000000000000 ) ) ;
#382 = FACE_OUTER_BOUND ( 'NONE', #354, .T. ) ;
#383 = LINE ( 'NONE', #551, #541 ) ;
#384 = DIRECTION ( 'NONE',  ( -0.7221796482027613706, -0.6917055411963500822, 0.000000000000000000 ) ) ;
#385 = VERTEX_POINT ( 'NONE', #544 ) ;
#386 = PRODUCT_DEFINITION ( 'UNKNOWN', '', #350, #253 ) ;
#387 = AXIS2_PLACEMENT_3D ( 'NONE', #415, #287, #542 ) ;
#388 = EDGE_CURVE ( 'NONE', #64, #11, #106, .T. ) ;
#389 = DIRECTION ( 'NONE',  ( -1.000000000000000000, 0.000000000000000000, 0.000000000000000000 ) ) ;
#390 = PLANE ( 'NONE',  #513 ) ;
#391 = ORIENTED_EDGE ( 'NONE', *, *, #457, .F. ) ;
#392 = SURFACE_STYLE_USAGE ( .BOTH. , #295 ) ;
#393 = ORIENTED_EDGE ( 'NONE', *, *, #276, .T. ) ;
#394 = DIRECTION ( 'NONE',  ( 1.000000000000000000, 0.000000000000000000, 0.000000000000000000 ) ) ;
#395 = EDGE_CURVE ( 'NONE', #440, #352, #324, .T. ) ;
#396 = ORIENTED_EDGE ( 'NONE', *, *, #294, .T. ) ;
#397 = LINE ( 'NONE', #87, #413 ) ;
#398 = VERTEX_POINT ( 'NONE', #196 ) ;
#399 = LINE ( 'NONE', #358, #194 ) ;
#400 = CARTESIAN_POINT ( 'NONE',  ( 0.000000000000000000, 0.000000000000000000, 0.000000000000000000 ) ) ;
#401 = VERTEX_POINT ( 'NONE', #499 ) ;
#402 = EDGE_CURVE ( 'NONE', #440, #136, #409, .T. ) ;
#403 = CIRCLE ( 'NONE', #328, 0.03924999999999986139 ) ;
#404 = DIRECTION ( 'NONE',  ( -0.000000000000000000, -0.000000000000000000, -1.000000000000000000 ) ) ;
#405 = ORIENTED_EDGE ( 'NONE', *, *, #395, .T. ) ;
#406 = DIRECTION ( 'NONE',  ( -0.000000000000000000, -0.000000000000000000, -1.000000000000000000 ) ) ;
#407 = EDGE_CURVE ( 'NONE', #288, #401, #375, .T. ) ;
#408 = ORIENTED_EDGE ( 'NONE', *, *, #58, .F. ) ;
#409 = LINE ( 'NONE', #234, #238 ) ;
#410 = ADVANCED_FACE ( 'HAF_STRAP_FACES__P01', ( #103, #282, #63 ), #197, .F. ) ;
#411 = CARTESIAN_POINT ( 'NONE',  ( -5.226663600000000187, 0.4280213557747146180, -0.04921259842519685318 ) ) ;
#412 = DIRECTION ( 'NONE',  ( -0.1815500823647561712, -0.9833816998466822223, 0.000000000000000000 ) ) ;
#413 = VECTOR ( 'NONE', #46, 39.37007874015748143 ) ;
#414 = CARTESIAN_POINT ( 'NONE',  ( 0.000000000000000000, 0.3149606300000000747, -0.1389074799999999998 ) ) ;
#415 = CARTESIAN_POINT ( 'NONE',  ( 0.000000000000000000, 0.3149606300000000747, 0.1389074799999999998 ) ) ;
#416 = CARTESIAN_POINT ( 'NONE',  ( 0.000000000000000000, 32.12598425000000191, 0.04921259842519685318 ) ) ;
#417 = VERTEX_POINT ( 'NONE', #154 ) ;
#418 = CARTESIAN_POINT ( 'NONE',  ( 0.000000000000000000, 0.3149606300000000747, 0.1389074799999999998 ) ) ;
#419 = EDGE_CURVE ( 'NONE', #401, #417, #105, .T. ) ;
#420 = CARTESIAN_POINT ( 'NONE',  ( 5.199624100000001192, 0.6478765399975994210, -0.04921259842519685318 ) ) ;
#421 = AXIS2_PLACEMENT_3D ( 'NONE', #492, #10, #93 ) ;
#422 = AXIS2_PLACEMENT_3D ( 'NONE', #326, #368, #331 ) ;
#423 = ORIENTED_EDGE ( 'NONE', *, *, #111, .T. ) ;
#424 =( LENGTH_UNIT ( ) NAMED_UNIT ( * ) SI_UNIT ( $, .METRE. ) );
#425 = CARTESIAN_POINT ( 'NONE',  ( 0.000000000000000000, 0.3149606300000000747, -0.1389074799999999998 ) ) ;
#426 = PLANE ( 'NONE',  #50 ) ;
#427 = ORIENTED_EDGE ( 'NONE', *, *, #305, .F. ) ;
#428 = EDGE_CURVE ( 'NONE', #11, #174, #431, .T. ) ;
#429 = DIRECTION ( 'NONE',  ( -0.6917055411963501932, 0.7221796482027614816, 0.000000000000000000 ) ) ;
#430 = AXIS2_PLACEMENT_3D ( 'NONE', #322, #102, #281 ) ;
#431 = CIRCLE ( 'NONE', #422, 32.12598425000000191 ) ;
#432 = AXIS2_PLACEMENT_3D ( 'NONE', #32, #167, #347 ) ;
#433 = CARTESIAN_POINT ( 'NONE',  ( 0.000000000000000000, 0.3149606300000000747, -0.3937007874015748254 ) ) ;
#434 = PRODUCT_RELATED_PRODUCT_CATEGORY ( 'part', '', ( #562 ) ) ;
#435 = CYLINDRICAL_SURFACE ( 'NONE', #107, 31.49606298999999865 ) ;
#436 =( NAMED_UNIT ( * ) PLANE_ANGLE_UNIT ( ) SI_UNIT ( $, .RADIAN. ) );
#437 = EDGE_LOOP ( 'NONE', ( #494, #86, #570, #122, #54, #256 ) ) ;
#438 = DIRECTION ( 'NONE',  ( -0.000000000000000000, -0.000000000000000000, -1.000000000000000000 ) ) ;
#439 = SHAPE_DEFINITION_REPRESENTATION ( #210, #161 ) ;
#440 = VERTEX_POINT ( 'NONE', #289 ) ;
#441 = FACE_OUTER_BOUND ( 'NONE', #346, .T. ) ;
#442 = EDGE_CURVE ( 'NONE', #398, #488, #560, .T. ) ;
#443 = ORIENTED_EDGE ( 'NONE', *, *, #198, .T. ) ;
#444 = DIRECTION ( 'NONE',  ( -0.000000000000000000, -0.000000000000000000, 1.000000000000000000 ) ) ;
#445 = EDGE_LOOP ( 'NONE', ( #393, #485 ) ) ;
#446 = AXIS2_PLACEMENT_3D ( 'NONE', #89, #479, #98 ) ;
#447 = CARTESIAN_POINT ( 'NONE',  ( 5.758053848120246343, 0.9369883144493473814, 0.04921259842519685318 ) ) ;
#448 = VECTOR ( 'NONE', #191, 39.37007874015748143 ) ;
#449 = EDGE_LOOP ( 'NONE', ( #517, #396, #405, #214, #4, #455 ) ) ;
#450 = CARTESIAN_POINT ( 'NONE',  ( 5.238874100000000311, 0.6478765399975994210, 0.04921259842519691563 ) ) ;
#451 = DIRECTION ( 'NONE',  ( 1.000000000000000000, 0.000000000000000000, 0.000000000000000000 ) ) ;
#452 = CARTESIAN_POINT ( 'NONE',  ( 5.718112829999993707, 1.153332288415616746, 0.04921259842519685318 ) ) ;
#453 = DIRECTION ( 'NONE',  ( 1.000000000000000000, 0.000000000000000000, 0.000000000000000000 ) ) ;
#454 = AXIS2_PLACEMENT_3D ( 'NONE', #293, #121, #29 ) ;
#455 = ORIENTED_EDGE ( 'NONE', *, *, #148, .T. ) ;
#456 = CARTESIAN_POINT ( 'NONE',  ( -5.718112829999999924, 1.153332288415620521, 0.04921259842519685318 ) ) ;
#457 = EDGE_CURVE ( 'NONE', #356, #540, #500, .T. ) ;
#458 = DIRECTION ( 'NONE',  ( 1.000000000000000000, 0.000000000000000000, 0.000000000000000000 ) ) ;
#459 =( LENGTH_UNIT ( ) NAMED_UNIT ( * ) SI_UNIT ( $, .METRE. ) );
#460 = ORIENTED_EDGE ( 'NONE', *, *, #527, .T. ) ;
#461 = LINE ( 'NONE', #250, #329 ) ;
#462 = DIRECTION ( 'NONE',  ( 1.000000000000000000, 0.000000000000000000, 0.000000000000000000 ) ) ;
#463 = FACE_OUTER_BOUND ( 'NONE', #504, .T. ) ;
#464 = ADVANCED_FACE ( 'HAF_HUB_OD__P02', ( #334 ), #496, .T. ) ;
#465 = FACE_BOUND ( 'NONE', #77, .T. ) ;
#466 = CARTESIAN_POINT ( 'NONE',  ( -5.758053848120246343, 0.9369883144493503790, 0.04921259842519685318 ) ) ;
#467 = EDGE_LOOP ( 'NONE', ( #22, #478, #270, #279 ) ) ;
#468 = CARTESIAN_POINT ( 'NONE',  ( 0.000000000000000000, 32.12598425000000191, -0.04921259842519685318 ) ) ;
#469 = ORIENTED_EDGE ( 'NONE', *, *, #16, .F. ) ;
#470 = CIRCLE ( 'NONE', #339, 0.2007874000000000048 ) ;
#471 = APPLICATION_CONTEXT ( 'automotive_design' ) ;
#472 =( CONVERSION_BASED_UNIT ( 'INCH', #563 ) LENGTH_UNIT ( ) NAMED_UNIT ( #474 ) );
#473 = ORIENTED_EDGE ( 'NONE', *, *, #138, .T. ) ;
#474 = DIMENSIONAL_EXPONENTS ( 1.000000000000000000, 0.000000000000000000, 0.000000000000000000, 0.000000000000000000, 0.000000000000000000, 0.000000000000000000, 0.000000000000000000 ) ;
#475 = ADVANCED_FACE ( 'HAF_PROFILE_OUTER__P03', ( #378 ), #508, .F. ) ;
#476 = ORIENTED_EDGE ( 'NONE', *, *, #242, .T. ) ;
#477 = DIRECTION ( 'NONE',  ( 0.000000000000000000, 0.000000000000000000, 1.000000000000000000 ) ) ;
#478 = ORIENTED_EDGE ( 'NONE', *, *, #260, .F. ) ;
#479 = DIRECTION ( 'NONE',  ( 0.000000000000000000, 0.000000000000000000, 1.000000000000000000 ) ) ;
#480 = AXIS2_PLACEMENT_3D ( 'NONE', #206, #290, #462 ) ;
#481 = ORIENTED_EDGE ( 'NONE', *, *, #395, .F. ) ;
#482 = DIRECTION ( 'NONE',  ( 1.000000000000000000, 0.000000000000000000, 0.000000000000000000 ) ) ;
#483 = ADVANCED_FACE ( 'HAF_TIP_LAND_NEG_X__P01', ( #208 ), #390, .F. ) ;
#484 = DIRECTION ( 'NONE',  ( 1.000000000000000000, 0.000000000000000000, 0.000000000000000000 ) ) ;
#485 = ORIENTED_EDGE ( 'NONE', *, *, #315, .T. ) ;
#486 = CARTESIAN_POINT ( 'NONE',  ( 0.000000000000000000, 0.3149606300000000747, -0.3937007874015748254 ) ) ;
#487 = CARTESIAN_POINT ( 'NONE',  ( -5.718112829999999924, 1.153332288415620521, -0.04921259842519685318 ) ) ;
#488 = VERTEX_POINT ( 'NONE', #119 ) ;
#489 = DIRECTION ( 'NONE',  ( 0.000000000000000000, 0.000000000000000000, 1.000000000000000000 ) ) ;
#490 = VERTEX_POINT ( 'NONE', #466 ) ;
#491 = CIRCLE ( 'NONE', #309, 0.03924999999999986139 ) ;
#492 = CARTESIAN_POINT ( 'NONE',  ( 0.000000000000000000, 0.3149606300000000747, 0.1389074799999999998 ) ) ;
#493 = CARTESIAN_POINT ( 'NONE',  ( 0.000000000000000000, 0.3149606300000000747, -0.1389074799999999998 ) ) ;
#494 = ORIENTED_EDGE ( 'NONE', *, *, #428, .F. ) ;
#495 = ADVANCED_FACE ( 'HAF_TIP_LAND_POS_X__P01', ( #76 ), #426, .F. ) ;
#496 = CYLINDRICAL_SURFACE ( 'NONE', #387, 0.2007874000000000048 ) ;
#497 = FACE_OUTER_BOUND ( 'NONE', #231, .T. ) ;
#498 = ORIENTED_EDGE ( 'NONE', *, *, #68, .F. ) ;
#499 = CARTESIAN_POINT ( 'NONE',  ( 0.1279527550000000014, 0.3149606300000000747, 0.1389074799999999998 ) ) ;
#500 = LINE ( 'NONE', #246, #212 ) ;
#501 = VECTOR ( 'NONE', #532, 39.37007874015748854 ) ;
#502 = AXIS2_PLACEMENT_3D ( 'NONE', #468, #566, #173 ) ;
#503 = ADVANCED_FACE ( 'HAF_TOP_EDGE__P01', ( #382 ), #435, .F. ) ;
#504 = EDGE_LOOP ( 'NONE', ( #408, #33, #51, #88 ) ) ;
#505 = DIRECTION ( 'NONE',  ( -0.000000000000000000, -0.000000000000000000, 1.000000000000000000 ) ) ;
#506 = DIRECTION ( 'NONE',  ( -1.000000000000000000, 0.000000000000000000, 0.000000000000000000 ) ) ;
#507 = EDGE_LOOP ( 'NONE', ( #313, #423 ) ) ;
#508 = PLANE ( 'NONE',  #25 ) ;
#509 = LINE ( 'NONE', #31, #529 ) ;
#510 = ADVANCED_FACE ( 'HAF_HUB_FACES__P01', ( #558, #39 ), #215, .F. ) ;
#511 = CYLINDRICAL_SURFACE ( 'NONE', #265, 32.12598425000000191 ) ;
#512 = AXIS2_PLACEMENT_3D ( 'NONE', #568, #244, #110 ) ;
#513 = AXIS2_PLACEMENT_3D ( 'NONE', #79, #337, #114 ) ;
#514 = DIRECTION ( 'NONE',  ( 1.000000000000000000, 0.000000000000000000, 0.000000000000000000 ) ) ;
#515 = ORIENTED_EDGE ( 'NONE', *, *, #370, .T. ) ;
#516 = DIRECTION ( 'NONE',  ( -0.000000000000000000, -0.000000000000000000, -1.000000000000000000 ) ) ;
#517 = ORIENTED_EDGE ( 'NONE', *, *, #343, .T. ) ;
#518 = ADVANCED_FACE ( 'HAF_HUB_OD__P01', ( #463 ), #300, .T. ) ;
#519 = VECTOR ( 'NONE', #5, 39.37007874015748143 ) ;
#520 = VECTOR ( 'NONE', #412, 39.37007874015748854 ) ;
#521 = FACE_OUTER_BOUND ( 'NONE', #286, .T. ) ;
#522 = ORIENTED_EDGE ( 'NONE', *, *, #419, .T. ) ;
#523 = CARTESIAN_POINT ( 'NONE',  ( -5.718112829999999924, 1.153332288415620521, -0.04921259842519685318 ) ) ;
#524 = EDGE_CURVE ( 'NONE', #7, #385, #135, .T. ) ;
#525 = DIRECTION ( 'NONE',  ( 0.6917055411963500822, 0.7221796482027614816, -0.000000000000000000 ) ) ;
#526 = ORIENTED_EDGE ( 'NONE', *, *, #91, .F. ) ;
#527 = EDGE_CURVE ( 'NONE', #226, #97, #147, .T. ) ;
#528 = LINE ( 'NONE', #314, #348 ) ;
#529 = VECTOR ( 'NONE', #303, 39.37007874015748143 ) ;
#530 = ORIENTED_EDGE ( 'NONE', *, *, #362, .T. ) ;
#531 = AXIS2_PLACEMENT_3D ( 'NONE', #264, #269, #53 ) ;
#532 = DIRECTION ( 'NONE',  ( 0.7221796482027613706, 0.6917055411963500822, -0.000000000000000000 ) ) ;
#533 = DIRECTION ( 'NONE',  ( 1.000000000000000000, 0.000000000000000000, 0.000000000000000000 ) ) ;
#534 = ORIENTED_EDGE ( 'NONE', *, *, #166, .T. ) ;
#535 = LINE ( 'NONE', #227, #519 ) ;
#536 = CARTESIAN_POINT ( 'NONE',  ( 5.238874100000000311, 0.6478765399975994210, 0.04921259842519685318 ) ) ;
#537 = EDGE_LOOP ( 'NONE', ( #172, #547, #333, #60 ) ) ;
#538 = CARTESIAN_POINT ( 'NONE',  ( 5.718112829999993707, 1.153332288415616746, -0.04921259842519685318 ) ) ;
#539 = ADVANCED_FACE ( 'HAF_HUB_OD__P01', ( #521 ), #71, .T. ) ;
#540 = VERTEX_POINT ( 'NONE', #73 ) ;
#541 = VECTOR ( 'NONE', #200, 39.37007874015748854 ) ;
#542 = DIRECTION ( 'NONE',  ( -1.000000000000000000, 0.000000000000000000, 0.000000000000000000 ) ) ;
#543 = AXIS2_PLACEMENT_3D ( 'NONE', #400, #178, #484 ) ;
#544 = CARTESIAN_POINT ( 'NONE',  ( -0.2007874000000000048, 0.3149606300000000747, -0.04921259842519684624 ) ) ;
#545 = CARTESIAN_POINT ( 'NONE',  ( 5.718112829999993707, 1.153332288415616746, 0.04921259842519685318 ) ) ;
#546 = ADVANCED_FACE ( 'HAF_PIVOT_BORE__P01', ( #255 ), #125, .F. ) ;
#547 = ORIENTED_EDGE ( 'NONE', *, *, #388, .F. ) ;
#548 = FACE_BOUND ( 'NONE', #297, .T. ) ;
#549 = CIRCLE ( 'NONE', #446, 0.2007874000000000048 ) ;
#550 = VECTOR ( 'NONE', #505, 39.37007874015748143 ) ;
#551 = CARTESIAN_POINT ( 'NONE',  ( 5.718112829999999924, 1.153332288415617413, -0.04921259842519685318 ) ) ;
#552 = EDGE_LOOP ( 'NONE', ( #323, #330, #38, #360 ) ) ;
#553 = DIRECTION ( 'NONE',  ( -0.000000000000000000, -0.000000000000000000, -1.000000000000000000 ) ) ;
#554 =( NAMED_UNIT ( * ) SI_UNIT ( $, .STERADIAN. ) SOLID_ANGLE_UNIT ( ) );
#555 = CARTESIAN_POINT ( 'NONE',  ( 0.000000000000000000, 0.3149606300000000747, -0.04921259842519684624 ) ) ;
#556 = CARTESIAN_POINT ( 'NONE',  ( -5.718112829999999924, 1.153332288415620521, 0.04921259842519685318 ) ) ;
#557 = EDGE_CURVE ( 'NONE', #30, #174, #298, .T. ) ;
#558 = FACE_BOUND ( 'NONE', #320, .T. ) ;
#559 = ORIENTED_EDGE ( 'NONE', *, *, #524, .F. ) ;
#560 = CIRCLE ( 'NONE', #36, 0.2007874000000000048 ) ;
#561 = DIRECTION ( 'NONE',  ( 0.1815500823647561712, -0.9833816998466822223, 0.000000000000000000 ) ) ;
#562 = PRODUCT ( 'rocker-arm', 'rocker-arm', '', ( #82 ) ) ;
#563 = LENGTH_MEASURE_WITH_UNIT ( LENGTH_MEASURE( 0.02539999999999999897 ), #424 );
#564 = ORIENTED_EDGE ( 'NONE', *, *, #27, .F. ) ;
#565 = EDGE_CURVE ( 'NONE', #143, #272, #461, .T. ) ;
#566 = DIRECTION ( 'NONE',  ( -0.000000000000000000, -0.000000000000000000, -1.000000000000000000 ) ) ;
#567 = ORIENTED_EDGE ( 'NONE', *, *, #58, .T. ) ;
#568 = CARTESIAN_POINT ( 'NONE',  ( 0.000000000000000000, 0.3149606300000000747, 0.1389074799999999998 ) ) ;
#569 = AXIS2_PLACEMENT_3D ( 'NONE', #99, #278, #451 ) ;
#570 = ORIENTED_EDGE ( 'NONE', *, *, #42, .F. ) ;
#571 = DIRECTION ( 'NONE',  ( 0.7221796482027613706, 0.6917055411963500822, -0.000000000000000000 ) ) ;
ENDSEC;
END-ISO-10303-21;
