ISO-10303-21;
HEADER;
FILE_DESCRIPTION (( 'STEP AP214' ),
    '1' );
FILE_NAME ('pivot-bracket.STEP',
    '2026-10-03T05:25:31',
    ( '' ),
    ( '' ),
    'SwSTEP 2.0',
    'SolidWorks 2026',
    '' );
FILE_SCHEMA (( 'AUTOMOTIVE_DESIGN' ));
ENDSEC;

DATA;
#1 = DIRECTION ( 'NONE',  ( -2.710505437707680327E-16, 1.000000000000000000, 0.000000000000000000 ) ) ;
#2 = EDGE_CURVE ( 'NONE', #46, #368, #231, .T. ) ;
#3 = LINE ( 'NONE', #212, #24 ) ;
#4 = CARTESIAN_POINT ( 'NONE',  ( 0.000000000000000000, -0.2755905511811023723, 0.3228346456692913202 ) ) ;
#5 = AXIS2_PLACEMENT_3D ( 'NONE', #27, #319, #156 ) ;
#6 = AXIS2_PLACEMENT_3D ( 'NONE', #308, #397, #481 ) ;
#7 = CARTESIAN_POINT ( 'NONE',  ( 0.3149606299999999082, 0.2362204699999999880, -0.1181102399999999497 ) ) ;
#8 = CARTESIAN_POINT ( 'NONE',  ( 0.2755905499999999897, 0.9921259799999999629, -0.1181102362204724532 ) ) ;
#9 = ADVANCED_FACE ( 'NONE', ( #141 ), #23, .F. ) ;
#10 = PLANE ( 'NONE',  #6 ) ;
#11 = DIRECTION ( 'NONE',  ( 0.000000000000000000, 0.000000000000000000, 1.000000000000000000 ) ) ;
#12 = ADVANCED_FACE ( 'NONE', ( #17 ), #401, .F. ) ;
#13 = VECTOR ( 'NONE', #374, 39.37007874015748143 ) ;
#14 = FACE_OUTER_BOUND ( 'NONE', #21, .T. ) ;
#15 = DIRECTION ( 'NONE',  ( 1.000000000000000000, 0.000000000000000000, 0.000000000000000000 ) ) ;
#16 = DIRECTION ( 'NONE',  ( 0.000000000000000000, 1.000000000000000000, 0.000000000000000000 ) ) ;
#17 = FACE_OUTER_BOUND ( 'NONE', #226, .T. ) ;
#18 = EDGE_LOOP ( 'NONE', ( #114, #277, #539, #380 ) ) ;
#19 = EDGE_CURVE ( 'NONE', #395, #402, #187, .T. ) ;
#20 = DIRECTION ( 'NONE',  ( -1.355252718853840164E-16, 1.000000000000000000, 0.000000000000000000 ) ) ;
#21 = EDGE_LOOP ( 'NONE', ( #423, #210, #192, #371 ) ) ;
#22 = VECTOR ( 'NONE', #260, 39.37007874015748143 ) ;
#23 = CYLINDRICAL_SURFACE ( 'NONE', #514, 0.08999999999999999667 ) ;
#24 = VECTOR ( 'NONE', #509, 39.37007874015748143 ) ;
#25 = ORIENTED_EDGE ( 'NONE', *, *, #221, .T. ) ;
#26 = ADVANCED_BREP_SHAPE_REPRESENTATION ( 'pivot-bracket', ( #518, #164 ), #95 ) ;
#27 = CARTESIAN_POINT ( 'NONE',  ( 0.000000000000000000, -0.2755905511811023723, 0.6299212598425196763 ) ) ;
#28 = ADVANCED_FACE ( 'NONE', ( #181, #523, #479 ), #530, .T. ) ;
#29 = VERTEX_POINT ( 'NONE', #263 ) ;
#30 = CARTESIAN_POINT ( 'NONE',  ( 0.3149606300000001857, 0.2362204699999999880, 0.8346456700000000062 ) ) ;
#31 = PLANE ( 'NONE',  #290 ) ;
#32 = EDGE_CURVE ( 'NONE', #246, #508, #484, .T. ) ;
#33 = ORIENTED_EDGE ( 'NONE', *, *, #121, .T. ) ;
#34 = CARTESIAN_POINT ( 'NONE',  ( 0.000000000000000000, 0.9921259799999999629, -0.1181102399999999220 ) ) ;
#35 = AXIS2_PLACEMENT_3D ( 'NONE', #404, #353, #20 ) ;
#36 = AXIS2_PLACEMENT_3D ( 'NONE', #186, #355, #136 ) ;
#37 = ORIENTED_EDGE ( 'NONE', *, *, #248, .T. ) ;
#38 = EDGE_CURVE ( 'NONE', #395, #528, #441, .T. ) ;
#39 = CARTESIAN_POINT ( 'NONE',  ( 0.000000000000000000, 0.000000000000000000, 0.6299212598425196763 ) ) ;
#40 = ORIENTED_EDGE ( 'NONE', *, *, #378, .T. ) ;
#41 = ADVANCED_FACE ( 'NONE', ( #360 ), #513, .F. ) ;
#42 = DIRECTION ( 'NONE',  ( 0.000000000000000000, 1.000000000000000000, 0.000000000000000000 ) ) ;
#43 = EDGE_LOOP ( 'NONE', ( #63, #542, #377, #363 ) ) ;
#44 = CARTESIAN_POINT ( 'NONE',  ( -0.3149606300000001302, 0.2362204699999999880, -0.1181102399999998664 ) ) ;
#45 = CARTESIAN_POINT ( 'NONE',  ( -0.2755905500000000452, 0.2362204699999999880, 0.1181102362204724532 ) ) ;
#46 = VERTEX_POINT ( 'NONE', #190 ) ;
#47 = LINE ( 'NONE', #338, #337 ) ;
#48 = CARTESIAN_POINT ( 'NONE',  ( 0.2755905499999999897, 0.2362204699999999880, 0.1181102362204724532 ) ) ;
#49 = PRESENTATION_LAYER_ASSIGNMENT (  '', '', ( #468 ) ) ;
#50 = CIRCLE ( 'NONE', #361, 0.1279527550000000014 ) ;
#51 = VECTOR ( 'NONE', #222, 39.37007874015748143 ) ;
#52 = ADVANCED_FACE ( 'NONE', ( #194 ), #148, .T. ) ;
#53 = CARTESIAN_POINT ( 'NONE',  ( 0.3149606299999999082, 0.2362204699999999880, -0.1181102399999999497 ) ) ;
#54 = DIRECTION ( 'NONE',  ( 0.000000000000000000, 1.000000000000000000, 0.000000000000000000 ) ) ;
#55 = EDGE_CURVE ( 'NONE', #415, #434, #261, .T. ) ;
#56 = CARTESIAN_POINT ( 'NONE',  ( 0.000000000000000000, 0.9921259799999999629, 0.1181102362204724532 ) ) ;
#57 = DIRECTION ( 'NONE',  ( -1.000000000000000000, 0.000000000000000000, 1.355252715268067249E-16 ) ) ;
#58 = CARTESIAN_POINT ( 'NONE',  ( 0.3149606299999999082, 0.2362204699999999880, -0.1181102399999999497 ) ) ;
#59 = UNCERTAINTY_MEASURE_WITH_UNIT (LENGTH_MEASURE( 1.000000000000000082E-05 ), #161, 'distance_accuracy_value', 'NONE');
#60 = EDGE_CURVE ( 'NONE', #356, #528, #443, .T. ) ;
#61 = CIRCLE ( 'NONE', #132, 0.08999999999999999667 ) ;
#62 = DIRECTION ( 'NONE',  ( 0.000000000000000000, 0.000000000000000000, 1.000000000000000000 ) ) ;
#63 = ORIENTED_EDGE ( 'NONE', *, *, #219, .F. ) ;
#64 = EDGE_LOOP ( 'NONE', ( #320, #199 ) ) ;
#65 = DIRECTION ( 'NONE',  ( 2.710505437707680327E-16, -1.000000000000000000, 0.000000000000000000 ) ) ;
#66 = EDGE_LOOP ( 'NONE', ( #188, #272, #336, #33 ) ) ;
#67 = ORIENTED_EDGE ( 'NONE', *, *, #149, .F. ) ;
#68 = CARTESIAN_POINT ( 'NONE',  ( 0.2755905499999999897, 0.2362204699999999880, 0.1181102362204724532 ) ) ;
#69 = DIRECTION ( 'NONE',  ( 1.355252715268067249E-16, -0.000000000000000000, 1.000000000000000000 ) ) ;
#70 = ORIENTED_EDGE ( 'NONE', *, *, #2, .T. ) ;
#71 = DIRECTION ( 'NONE',  ( -1.000000000000000000, 0.000000000000000000, 1.355252715268067249E-16 ) ) ;
#72 = DIRECTION ( 'NONE',  ( 0.000000000000000000, 0.000000000000000000, 1.000000000000000000 ) ) ;
#73 = SHAPE_DEFINITION_REPRESENTATION ( #143, #26 ) ;
#74 = ORIENTED_EDGE ( 'NONE', *, *, #19, .F. ) ;
#75 = FACE_OUTER_BOUND ( 'NONE', #412, .T. ) ;
#76 = VERTEX_POINT ( 'NONE', #91 ) ;
#77 = DIRECTION ( 'NONE',  ( -0.000000000000000000, 0.000000000000000000, 1.000000000000000000 ) ) ;
#78 = AXIS2_PLACEMENT_3D ( 'NONE', #276, #77, #446 ) ;
#79 = ORIENTED_EDGE ( 'NONE', *, *, #259, .T. ) ;
#80 = EDGE_CURVE ( 'NONE', #246, #29, #104, .T. ) ;
#81 = VERTEX_POINT ( 'NONE', #457 ) ;
#82 = LINE ( 'NONE', #239, #175 ) ;
#83 = VERTEX_POINT ( 'NONE', #545 ) ;
#84 = DIMENSIONAL_EXPONENTS ( 1.000000000000000000, 0.000000000000000000, 0.000000000000000000, 0.000000000000000000, 0.000000000000000000, 0.000000000000000000, 0.000000000000000000 ) ;
#85 = DIRECTION ( 'NONE',  ( -0.000000000000000000, 1.000000000000000000, -0.000000000000000000 ) ) ;
#86 = ORIENTED_EDGE ( 'NONE', *, *, #55, .F. ) ;
#87 = PLANE ( 'NONE',  #515 ) ;
#88 = VECTOR ( 'NONE', #323, 39.37007874015748143 ) ;
#89 = FACE_OUTER_BOUND ( 'NONE', #546, .T. ) ;
#90 = EDGE_CURVE ( 'NONE', #463, #76, #82, .T. ) ;
#91 = CARTESIAN_POINT ( 'NONE',  ( 0.1279527550000000014, 0.9921259799999999629, 0.1181102362204724532 ) ) ;
#92 = LINE ( 'NONE', #254, #538 ) ;
#93 = ADVANCED_FACE ( 'NONE', ( #75 ), #492, .F. ) ;
#94 = LINE ( 'NONE', #220, #51 ) ;
#95 =( GEOMETRIC_REPRESENTATION_CONTEXT ( 3 ) GLOBAL_UNCERTAINTY_ASSIGNED_CONTEXT ( ( #465 ) ) GLOBAL_UNIT_ASSIGNED_CONTEXT ( ( #112, #449, #533 ) ) REPRESENTATION_CONTEXT ( 'NONE', 'WORKASPACE' ) );
#96 = ADVANCED_FACE ( 'NONE', ( #151, #410 ), #413, .T. ) ;
#97 = DIRECTION ( 'NONE',  ( -0.000000000000000000, -1.000000000000000000, -0.000000000000000000 ) ) ;
#98 = DIRECTION ( 'NONE',  ( 0.000000000000000000, -0.000000000000000000, 1.000000000000000000 ) ) ;
#99 = EDGE_CURVE ( 'NONE', #46, #408, #490, .T. ) ;
#100 = ORIENTED_EDGE ( 'NONE', *, *, #245, .F. ) ;
#101 = CARTESIAN_POINT ( 'NONE',  ( -0.3149606299999999637, 0.000000000000000000, 0.8346456700000000062 ) ) ;
#102 = ORIENTED_EDGE ( 'NONE', *, *, #38, .T. ) ;
#103 = ADVANCED_FACE ( 'NONE', ( #280, #534 ), #31, .F. ) ;
#104 = CIRCLE ( 'NONE', #494, 0.2755905499999999897 ) ;
#105 = AXIS2_PLACEMENT_3D ( 'NONE', #39, #42, #334 ) ;
#106 = SURFACE_STYLE_FILL_AREA ( #310 ) ;
#107 = CARTESIAN_POINT ( 'NONE',  ( 0.2755905499999997676, 0.9921259799999999629, 0.1181102362204724532 ) ) ;
#108 = ORIENTED_EDGE ( 'NONE', *, *, #393, .F. ) ;
#109 = FACE_OUTER_BOUND ( 'NONE', #317, .T. ) ;
#110 = CARTESIAN_POINT ( 'NONE',  ( -0.2755905500000001007, 0.9921259799999999629, -0.1181102362204724532 ) ) ;
#111 = ORIENTED_EDGE ( 'NONE', *, *, #99, .F. ) ;
#112 =( CONVERSION_BASED_UNIT ( 'INCH', #158 ) LENGTH_UNIT ( ) NAMED_UNIT ( #84 ) );
#113 = CARTESIAN_POINT ( 'NONE',  ( -0.2755905500000001007, 0.9921259799999999629, 0.1181102362204724532 ) ) ;
#114 = ORIENTED_EDGE ( 'NONE', *, *, #168, .T. ) ;
#115 = EDGE_CURVE ( 'NONE', #29, #415, #209, .T. ) ;
#116 = VECTOR ( 'NONE', #274, 39.37007874015748143 ) ;
#117 = VERTEX_POINT ( 'NONE', #120 ) ;
#118 = ORIENTED_EDGE ( 'NONE', *, *, #245, .T. ) ;
#119 = DIRECTION ( 'NONE',  ( 1.000000000000000000, 0.000000000000000000, -1.334402683271778329E-16 ) ) ;
#120 = CARTESIAN_POINT ( 'NONE',  ( -0.1279527550000000014, 0.9921259799999999629, -0.1181102399999999081 ) ) ;
#121 = EDGE_CURVE ( 'NONE', #76, #489, #50, .T. ) ;
#122 = EDGE_LOOP ( 'NONE', ( #296, #536, #165, #162 ) ) ;
#123 =( NAMED_UNIT ( * ) SI_UNIT ( $, .STERADIAN. ) SOLID_ANGLE_UNIT ( ) );
#124 = DIRECTION ( 'NONE',  ( 1.355252715268067249E-16, -0.000000000000000000, 1.000000000000000000 ) ) ;
#125 = VECTOR ( 'NONE', #424, 39.37007874015748143 ) ;
#126 = CIRCLE ( 'NONE', #267, 0.2755905499999999897 ) ;
#127 = ORIENTED_EDGE ( 'NONE', *, *, #477, .F. ) ;
#128 = DIRECTION ( 'NONE',  ( -0.000000000000000000, 0.000000000000000000, 1.000000000000000000 ) ) ;
#129 = CARTESIAN_POINT ( 'NONE',  ( 0.000000000000000000, 0.000000000000000000, 0.3228346456692913202 ) ) ;
#130 = ORIENTED_EDGE ( 'NONE', *, *, #80, .T. ) ;
#131 = DIRECTION ( 'NONE',  ( 1.000000000000000000, 0.000000000000000000, 0.000000000000000000 ) ) ;
#132 = AXIS2_PLACEMENT_3D ( 'NONE', #315, #54, #529 ) ;
#133 = DIRECTION ( 'NONE',  ( -0.000000000000000000, -0.000000000000000000, -1.000000000000000000 ) ) ;
#134 = CARTESIAN_POINT ( 'NONE',  ( 0.000000000000000000, 0.000000000000000000, 0.4128346456692912891 ) ) ;
#135 = DIRECTION ( 'NONE',  ( -0.000000000000000000, -0.000000000000000000, 1.000000000000000000 ) ) ;
#136 = DIRECTION ( 'NONE',  ( 0.000000000000000000, 0.000000000000000000, 1.000000000000000000 ) ) ;
#137 = CIRCLE ( 'NONE', #242, 0.08999999999999999667 ) ;
#138 = CARTESIAN_POINT ( 'NONE',  ( 0.1279527550000000014, 0.9921259799999999629, -0.1181102399999999358 ) ) ;
#139 = DIRECTION ( 'NONE',  ( -0.000000000000000000, 1.000000000000000000, -0.000000000000000000 ) ) ;
#140 = DIRECTION ( 'NONE',  ( 0.000000000000000000, 1.000000000000000000, 0.000000000000000000 ) ) ;
#141 = FACE_OUTER_BOUND ( 'NONE', #339, .T. ) ;
#142 = LINE ( 'NONE', #521, #407 ) ;
#143 = PRODUCT_DEFINITION_SHAPE ( 'NONE', 'NONE',  #411 ) ;
#144 = CARTESIAN_POINT ( 'NONE',  ( 0.000000000000000000, 0.2362204699999999880, 0.000000000000000000 ) ) ;
#145 = ORIENTED_EDGE ( 'NONE', *, *, #229, .F. ) ;
#146 = AXIS2_PLACEMENT_3D ( 'NONE', #483, #440, #478 ) ;
#147 = CARTESIAN_POINT ( 'NONE',  ( -0.2755905500000001007, 0.9921259799999999629, -0.1181102362204724532 ) ) ;
#148 = CYLINDRICAL_SURFACE ( 'NONE', #418, 0.2755905499999999897 ) ;
#149 = EDGE_CURVE ( 'NONE', #83, #434, #450, .T. ) ;
#150 = ORIENTED_EDGE ( 'NONE', *, *, #259, .F. ) ;
#151 = FACE_BOUND ( 'NONE', #416, .T. ) ;
#152 = EDGE_CURVE ( 'NONE', #463, #117, #485, .T. ) ;
#153 = ORIENTED_EDGE ( 'NONE', *, *, #462, .T. ) ;
#154 = CARTESIAN_POINT ( 'NONE',  ( -0.3149606299999999637, 0.000000000000000000, 0.8346456700000000062 ) ) ;
#155 = VERTEX_POINT ( 'NONE', #367 ) ;
#156 = DIRECTION ( 'NONE',  ( 0.000000000000000000, 0.000000000000000000, 1.000000000000000000 ) ) ;
#157 = ORIENTED_EDGE ( 'NONE', *, *, #354, .T. ) ;
#158 = LENGTH_MEASURE_WITH_UNIT ( LENGTH_MEASURE( 0.02539999999999999897 ), #369 );
#159 = CARTESIAN_POINT ( 'NONE',  ( 0.000000000000000000, -0.2755905511811023723, 0.3228346456692913202 ) ) ;
#160 = VERTEX_POINT ( 'NONE', #535 ) ;
#161 =( CONVERSION_BASED_UNIT ( 'INCH', #204 ) LENGTH_UNIT ( ) NAMED_UNIT ( #340 ) );
#162 = ORIENTED_EDGE ( 'NONE', *, *, #32, .T. ) ;
#163 = LINE ( 'NONE', #328, #88 ) ;
#164 = AXIS2_PLACEMENT_3D ( 'NONE', #318, #322, #236 ) ;
#165 = ORIENTED_EDGE ( 'NONE', *, *, #80, .F. ) ;
#166 = LINE ( 'NONE', #427, #305 ) ;
#167 = AXIS2_PLACEMENT_3D ( 'NONE', #180, #140, #269 ) ;
#168 = EDGE_CURVE ( 'NONE', #408, #405, #284, .T. ) ;
#169 = VERTEX_POINT ( 'NONE', #370 ) ;
#170 = DIRECTION ( 'NONE',  ( 1.000000000000000000, 0.000000000000000000, 0.000000000000000000 ) ) ;
#171 = VERTEX_POINT ( 'NONE', #501 ) ;
#172 = LINE ( 'NONE', #44, #255 ) ;
#173 = VERTEX_POINT ( 'NONE', #379 ) ;
#174 = CARTESIAN_POINT ( 'NONE',  ( 0.3149606300000001857, 0.2362204699999999880, 0.8346456700000000062 ) ) ;
#175 = VECTOR ( 'NONE', #455, 39.37007874015748143 ) ;
#176 = AXIS2_PLACEMENT_3D ( 'NONE', #4, #213, #474 ) ;
#177 = DIRECTION ( 'NONE',  ( 1.433655758516503713E-16, 0.000000000000000000, 1.000000000000000000 ) ) ;
#178 = SURFACE_SIDE_STYLE ('',( #106 ) ) ;
#179 = PRODUCT_DEFINITION_CONTEXT ( 'detailed design', #251, 'design' ) ;
#180 = CARTESIAN_POINT ( 'NONE',  ( 0.000000000000000000, 0.2362204699999999602, 0.3228346456692913202 ) ) ;
#181 = FACE_BOUND ( 'NONE', #217, .T. ) ;
#182 = VECTOR ( 'NONE', #133, 39.37007874015748143 ) ;
#183 = EDGE_CURVE ( 'NONE', #29, #83, #163, .T. ) ;
#184 = CARTESIAN_POINT ( 'NONE',  ( 0.000000000000000000, 0.2362204699999999602, 0.6299212598425196763 ) ) ;
#185 = DIRECTION ( 'NONE',  ( 1.000000000000000000, 0.000000000000000000, -1.433655758516503713E-16 ) ) ;
#186 = CARTESIAN_POINT ( 'NONE',  ( 0.000000000000000000, 0.000000000000000000, 0.3228346456692913202 ) ) ;
#187 = LINE ( 'NONE', #58, #278 ) ;
#188 = ORIENTED_EDGE ( 'NONE', *, *, #348, .F. ) ;
#189 =( LENGTH_UNIT ( ) NAMED_UNIT ( * ) SI_UNIT ( $, .METRE. ) );
#190 = CARTESIAN_POINT ( 'NONE',  ( -0.3149606299999999637, 0.2362204699999999880, 0.8346456700000000062 ) ) ;
#191 = CIRCLE ( 'NONE', #167, 0.08999999999999999667 ) ;
#192 = ORIENTED_EDGE ( 'NONE', *, *, #326, .F. ) ;
#193 = AXIS2_PLACEMENT_3D ( 'NONE', #394, #487, #65 ) ;
#194 = FACE_OUTER_BOUND ( 'NONE', #122, .T. ) ;
#195 = ADVANCED_FACE ( 'NONE', ( #287 ), #543, .F. ) ;
#196 = ORIENTED_EDGE ( 'NONE', *, *, #466, .T. ) ;
#197 = APPLICATION_PROTOCOL_DEFINITION ( 'draft international standard', 'automotive_design', 1998, #480 ) ;
#198 = DIRECTION ( 'NONE',  ( -0.000000000000000000, -1.000000000000000000, -0.000000000000000000 ) ) ;
#199 = ORIENTED_EDGE ( 'NONE', *, *, #414, .F. ) ;
#200 = CARTESIAN_POINT ( 'NONE',  ( 0.2755905499999999897, 0.2362204699999999880, -0.1181102362204724532 ) ) ;
#201 = DIRECTION ( 'NONE',  ( 1.000000000000000000, 0.000000000000000000, -1.355252715268067249E-16 ) ) ;
#202 = EDGE_LOOP ( 'NONE', ( #298, #532, #196, #375 ) ) ;
#203 = EDGE_CURVE ( 'NONE', #366, #160, #223, .T. ) ;
#204 = LENGTH_MEASURE_WITH_UNIT ( LENGTH_MEASURE( 0.02539999999999999897 ), #189 );
#205 = ORIENTED_EDGE ( 'NONE', *, *, #354, .F. ) ;
#206 =( GEOMETRIC_REPRESENTATION_CONTEXT ( 3 ) GLOBAL_UNCERTAINTY_ASSIGNED_CONTEXT ( ( #59 ) ) GLOBAL_UNIT_ASSIGNED_CONTEXT ( ( #161, #333, #123 ) ) REPRESENTATION_CONTEXT ( 'NONE', 'WORKASPACE' ) );
#207 = DIRECTION ( 'NONE',  ( 1.355252715268067249E-16, -0.000000000000000000, 1.000000000000000000 ) ) ;
#208 = ORIENTED_EDGE ( 'NONE', *, *, #548, .F. ) ;
#209 = LINE ( 'NONE', #113, #390 ) ;
#210 = ORIENTED_EDGE ( 'NONE', *, *, #32, .F. ) ;
#211 = ORIENTED_EDGE ( 'NONE', *, *, #326, .T. ) ;
#212 = CARTESIAN_POINT ( 'NONE',  ( -0.3149606300000001302, 0.000000000000000000, -0.1181102399999998664 ) ) ;
#213 = DIRECTION ( 'NONE',  ( -0.000000000000000000, 1.000000000000000000, -0.000000000000000000 ) ) ;
#214 = VECTOR ( 'NONE', #15, 39.37007874015748143 ) ;
#215 = AXIS2_PLACEMENT_3D ( 'NONE', #129, #344, #297 ) ;
#216 = PRODUCT_RELATED_PRODUCT_CATEGORY ( 'part', '', ( #499 ) ) ;
#217 = EDGE_LOOP ( 'NONE', ( #281, #250 ) ) ;
#218 = CARTESIAN_POINT ( 'NONE',  ( 0.000000000000000000, 0.9921259799999999629, -0.1181102362204724532 ) ) ;
#219 = EDGE_CURVE ( 'NONE', #117, #463, #431, .T. ) ;
#220 = CARTESIAN_POINT ( 'NONE',  ( 1.102182119232617911E-17, -0.2755905511811023723, 0.5399212598425197074 ) ) ;
#221 = EDGE_CURVE ( 'NONE', #169, #81, #398, .T. ) ;
#222 = DIRECTION ( 'NONE',  ( -0.000000000000000000, 1.000000000000000000, -0.000000000000000000 ) ) ;
#223 = CIRCLE ( 'NONE', #105, 0.08999999999999999667 ) ;
#224 = CARTESIAN_POINT ( 'NONE',  ( -0.1279527550000000014, 0.9921259799999999629, 0.1181102362204724532 ) ) ;
#225 = CYLINDRICAL_SURFACE ( 'NONE', #146, 0.1279527550000000014 ) ;
#226 = EDGE_LOOP ( 'NONE', ( #118, #111, #270, #314 ) ) ;
#227 = FACE_OUTER_BOUND ( 'NONE', #66, .T. ) ;
#228 = DIRECTION ( 'NONE',  ( -1.000000000000000000, 0.000000000000000000, 1.355252715268067249E-16 ) ) ;
#229 = EDGE_CURVE ( 'NONE', #173, #171, #172, .T. ) ;
#230 = LINE ( 'NONE', #53, #345 ) ;
#231 = LINE ( 'NONE', #307, #214 ) ;
#232 = ORIENTED_EDGE ( 'NONE', *, *, #488, .T. ) ;
#233 = CARTESIAN_POINT ( 'NONE',  ( 0.3149606299999999082, 0.2362204699999999880, -0.1181102399999999497 ) ) ;
#234 = ADVANCED_FACE ( 'NONE', ( #432 ), #517, .F. ) ;
#235 = ORIENTED_EDGE ( 'NONE', *, *, #488, .F. ) ;
#236 = DIRECTION ( 'NONE',  ( 1.000000000000000000, 0.000000000000000000, 0.000000000000000000 ) ) ;
#237 = DIRECTION ( 'NONE',  ( 0.000000000000000000, 0.000000000000000000, 1.000000000000000000 ) ) ;
#238 = ORIENTED_EDGE ( 'NONE', *, *, #540, .T. ) ;
#239 = CARTESIAN_POINT ( 'NONE',  ( 0.1279527550000000014, 0.9921259799999999629, -0.1574803149606299191 ) ) ;
#240 = CARTESIAN_POINT ( 'NONE',  ( -0.3149606299999999637, 0.2362204699999999880, 0.8346456700000000062 ) ) ;
#241 = ORIENTED_EDGE ( 'NONE', *, *, #152, .T. ) ;
#242 = AXIS2_PLACEMENT_3D ( 'NONE', #184, #347, #352 ) ;
#243 = CARTESIAN_POINT ( 'NONE',  ( 0.3149606299999999082, 0.2362204699999999880, -0.1181102399999999497 ) ) ;
#244 = VERTEX_POINT ( 'NONE', #388 ) ;
#245 = EDGE_CURVE ( 'NONE', #171, #408, #3, .T. ) ;
#246 = VERTEX_POINT ( 'NONE', #299 ) ;
#247 = DIRECTION ( 'NONE',  ( -0.000000000000000000, 0.000000000000000000, 1.000000000000000000 ) ) ;
#248 = EDGE_CURVE ( 'NONE', #160, #448, #94, .T. ) ;
#249 = LINE ( 'NONE', #45, #385 ) ;
#250 = ORIENTED_EDGE ( 'NONE', *, *, #466, .F. ) ;
#251 = APPLICATION_CONTEXT ( 'automotive_design' ) ;
#252 = DIRECTION ( 'NONE',  ( -0.000000000000000000, 1.000000000000000000, -0.000000000000000000 ) ) ;
#253 = CYLINDRICAL_SURFACE ( 'NONE', #176, 0.08999999999999999667 ) ;
#254 = CARTESIAN_POINT ( 'NONE',  ( -0.3149606300000001302, 0.2362204699999999880, -0.1181102399999998664 ) ) ;
#255 = VECTOR ( 'NONE', #425, 39.37007874015748143 ) ;
#256 = LINE ( 'NONE', #382, #549 ) ;
#257 = VECTOR ( 'NONE', #71, 39.37007874015748143 ) ;
#258 = AXIS2_PLACEMENT_3D ( 'NONE', #341, #512, #430 ) ;
#259 = EDGE_CURVE ( 'NONE', #286, #155, #362, .T. ) ;
#260 = DIRECTION ( 'NONE',  ( -0.000000000000000000, 1.000000000000000000, -0.000000000000000000 ) ) ;
#261 = LINE ( 'NONE', #110, #116 ) ;
#262 = PLANE ( 'NONE',  #325 ) ;
#263 = CARTESIAN_POINT ( 'NONE',  ( -0.2755905500000001007, 0.9921259799999999629, 0.1181102362204724532 ) ) ;
#264 = CARTESIAN_POINT ( 'NONE',  ( 1.102182119232617911E-17, 0.2362204699999999602, 0.5399212598425197074 ) ) ;
#265 = ORIENTED_EDGE ( 'NONE', *, *, #183, .T. ) ;
#266 = AXIS2_PLACEMENT_3D ( 'NONE', #144, #527, #311 ) ;
#267 = AXIS2_PLACEMENT_3D ( 'NONE', #218, #516, #472 ) ;
#268 = EDGE_LOOP ( 'NONE', ( #79, #428 ) ) ;
#269 = DIRECTION ( 'NONE',  ( 0.000000000000000000, 0.000000000000000000, 1.000000000000000000 ) ) ;
#270 = ORIENTED_EDGE ( 'NONE', *, *, #396, .F. ) ;
#271 = ADVANCED_FACE ( 'NONE', ( #511 ), #87, .F. ) ;
#272 = ORIENTED_EDGE ( 'NONE', *, *, #152, .F. ) ;
#273 = FACE_BOUND ( 'NONE', #329, .T. ) ;
#274 = DIRECTION ( 'NONE',  ( 1.355252718853840164E-16, -1.000000000000000000, 0.000000000000000000 ) ) ;
#275 = ORIENTED_EDGE ( 'NONE', *, *, #396, .T. ) ;
#276 = CARTESIAN_POINT ( 'NONE',  ( 0.000000000000000000, 0.000000000000000000, 0.1181102362204724532 ) ) ;
#277 = ORIENTED_EDGE ( 'NONE', *, *, #462, .F. ) ;
#278 = VECTOR ( 'NONE', #350, 39.37007874015748143 ) ;
#279 = COLOUR_RGB ( '',0.7921568627450980005, 0.8196078431372548767, 0.9333333333333333481 ) ;
#280 = FACE_BOUND ( 'NONE', #525, .T. ) ;
#281 = ORIENTED_EDGE ( 'NONE', *, *, #221, .F. ) ;
#282 = APPLICATION_PROTOCOL_DEFINITION ( 'draft international standard', 'automotive_design', 1998, #251 ) ;
#283 = EDGE_LOOP ( 'NONE', ( #439, #67, #387, #332 ) ) ;
#284 = LINE ( 'NONE', #154, #13 ) ;
#285 = ADVANCED_FACE ( 'NONE', ( #89 ), #253, .F. ) ;
#286 = VERTEX_POINT ( 'NONE', #134 ) ;
#287 = FACE_OUTER_BOUND ( 'NONE', #202, .T. ) ;
#288 = ORIENTED_EDGE ( 'NONE', *, *, #121, .F. ) ;
#289 = VECTOR ( 'NONE', #364, 39.37007874015748143 ) ;
#290 = AXIS2_PLACEMENT_3D ( 'NONE', #243, #69, #201 ) ;
#291 = AXIS2_PLACEMENT_3D ( 'NONE', #365, #429, #467 ) ;
#292 = DIRECTION ( 'NONE',  ( 1.000000000000000000, 0.000000000000000000, -1.334402683271778329E-16 ) ) ;
#293 = ORIENTED_EDGE ( 'NONE', *, *, #477, .T. ) ;
#294 = EDGE_CURVE ( 'NONE', #489, #76, #476, .T. ) ;
#295 = DIRECTION ( 'NONE',  ( -2.710505437707680327E-16, 1.000000000000000000, 0.000000000000000000 ) ) ;
#296 = ORIENTED_EDGE ( 'NONE', *, *, #393, .T. ) ;
#297 = DIRECTION ( 'NONE',  ( 0.000000000000000000, 0.000000000000000000, 1.000000000000000000 ) ) ;
#298 = ORIENTED_EDGE ( 'NONE', *, *, #510, .F. ) ;
#299 = CARTESIAN_POINT ( 'NONE',  ( 0.2755905499999997676, 0.9921259799999999629, 0.1181102362204724532 ) ) ;
#300 = EDGE_CURVE ( 'NONE', #286, #169, #386, .T. ) ;
#301 = DIRECTION ( 'NONE',  ( -0.000000000000000000, -0.000000000000000000, -1.000000000000000000 ) ) ;
#302 = LINE ( 'NONE', #547, #313 ) ;
#303 = DIRECTION ( 'NONE',  ( -1.000000000000000000, 0.000000000000000000, -0.000000000000000000 ) ) ;
#304 = PRESENTATION_STYLE_ASSIGNMENT (( #475 ) ) ;
#305 = VECTOR ( 'NONE', #135, 39.37007874015748143 ) ;
#306 = CARTESIAN_POINT ( 'NONE',  ( 0.000000000000000000, 0.000000000000000000, 0.000000000000000000 ) ) ;
#307 = CARTESIAN_POINT ( 'NONE',  ( -0.3149606299999999637, 0.2362204699999999880, 0.8346456700000000062 ) ) ;
#308 = CARTESIAN_POINT ( 'NONE',  ( 0.3149606300000001857, 0.2362204699999999880, 0.8346456700000000062 ) ) ;
#309 = CARTESIAN_POINT ( 'NONE',  ( 0.000000000000000000, -0.2755905511811023723, 0.6299212598425196763 ) ) ;
#310 = FILL_AREA_STYLE ('',( #403 ) ) ;
#311 = DIRECTION ( 'NONE',  ( 0.000000000000000000, -0.000000000000000000, 1.000000000000000000 ) ) ;
#312 = VECTOR ( 'NONE', #198, 39.37007874015748143 ) ;
#313 = VECTOR ( 'NONE', #1, 39.37007874015748143 ) ;
#314 = ORIENTED_EDGE ( 'NONE', *, *, #229, .T. ) ;
#315 = CARTESIAN_POINT ( 'NONE',  ( 0.000000000000000000, 0.2362204699999999602, 0.6299212598425196763 ) ) ;
#316 = DIRECTION ( 'NONE',  ( -1.000000000000000000, 0.000000000000000000, 0.000000000000000000 ) ) ;
#317 = EDGE_LOOP ( 'NONE', ( #458, #74, #208, #153 ) ) ;
#318 = CARTESIAN_POINT ( 'NONE',  ( 0.000000000000000000, 0.000000000000000000, 0.000000000000000000 ) ) ;
#319 = DIRECTION ( 'NONE',  ( -0.000000000000000000, 1.000000000000000000, -0.000000000000000000 ) ) ;
#320 = ORIENTED_EDGE ( 'NONE', *, *, #420, .F. ) ;
#321 = EDGE_CURVE ( 'NONE', #528, #508, #256, .T. ) ;
#322 = DIRECTION ( 'NONE',  ( 0.000000000000000000, 0.000000000000000000, 1.000000000000000000 ) ) ;
#323 = DIRECTION ( 'NONE',  ( 1.355252718853840164E-16, -1.000000000000000000, 0.000000000000000000 ) ) ;
#324 = ORIENTED_EDGE ( 'NONE', *, *, #219, .T. ) ;
#325 = AXIS2_PLACEMENT_3D ( 'NONE', #306, #437, #98 ) ;
#326 = EDGE_CURVE ( 'NONE', #356, #246, #302, .T. ) ;
#327 = ORIENTED_EDGE ( 'NONE', *, *, #378, .F. ) ;
#328 = CARTESIAN_POINT ( 'NONE',  ( -0.2755905500000001007, 0.9921259799999999629, 0.1181102362204724532 ) ) ;
#329 = EDGE_LOOP ( 'NONE', ( #491, #293 ) ) ;
#330 = ORIENTED_EDGE ( 'NONE', *, *, #531, .F. ) ;
#331 = DIRECTION ( 'NONE',  ( -0.000000000000000000, 1.000000000000000000, -0.000000000000000000 ) ) ;
#332 = ORIENTED_EDGE ( 'NONE', *, *, #115, .T. ) ;
#333 =( NAMED_UNIT ( * ) PLANE_ANGLE_UNIT ( ) SI_UNIT ( $, .RADIAN. ) );
#334 = DIRECTION ( 'NONE',  ( 0.000000000000000000, 0.000000000000000000, 1.000000000000000000 ) ) ;
#335 = CIRCLE ( 'NONE', #447, 0.08999999999999999667 ) ;
#336 = ORIENTED_EDGE ( 'NONE', *, *, #90, .T. ) ;
#337 = VECTOR ( 'NONE', #85, 39.37007874015748143 ) ;
#338 = CARTESIAN_POINT ( 'NONE',  ( 0.000000000000000000, -0.2755905511811023723, 0.7199212598425197562 ) ) ;
#339 = EDGE_LOOP ( 'NONE', ( #442, #381, #157, #497 ) ) ;
#340 = DIMENSIONAL_EXPONENTS ( 1.000000000000000000, 0.000000000000000000, 0.000000000000000000, 0.000000000000000000, 0.000000000000000000, 0.000000000000000000, 0.000000000000000000 ) ;
#341 = CARTESIAN_POINT ( 'NONE',  ( 0.000000000000000000, 0.9921259799999999629, -0.1574803149606299191 ) ) ;
#342 = CARTESIAN_POINT ( 'NONE',  ( 0.000000000000000000, 0.9921259799999999629, 0.1181102362204724532 ) ) ;
#343 = VECTOR ( 'NONE', #496, 39.37007874015748143 ) ;
#344 = DIRECTION ( 'NONE',  ( 0.000000000000000000, 1.000000000000000000, 0.000000000000000000 ) ) ;
#345 = VECTOR ( 'NONE', #57, 39.37007874015748143 ) ;
#346 = LINE ( 'NONE', #433, #22 ) ;
#347 = DIRECTION ( 'NONE',  ( 0.000000000000000000, 1.000000000000000000, 0.000000000000000000 ) ) ;
#348 = EDGE_CURVE ( 'NONE', #117, #489, #166, .T. ) ;
#349 = PLANE ( 'NONE',  #193 ) ;
#350 = DIRECTION ( 'NONE',  ( -0.000000000000000000, -1.000000000000000000, -0.000000000000000000 ) ) ;
#351 = VECTOR ( 'NONE', #436, 39.37007874015748143 ) ;
#352 = DIRECTION ( 'NONE',  ( 0.000000000000000000, 0.000000000000000000, 1.000000000000000000 ) ) ;
#353 = DIRECTION ( 'NONE',  ( 1.000000000000000000, 1.355252718853840164E-16, -0.000000000000000000 ) ) ;
#354 = EDGE_CURVE ( 'NONE', #366, #244, #47, .T. ) ;
#355 = DIRECTION ( 'NONE',  ( 0.000000000000000000, 1.000000000000000000, 0.000000000000000000 ) ) ;
#356 = VERTEX_POINT ( 'NONE', #48 ) ;
#357 = ORIENTED_EDGE ( 'NONE', *, *, #321, .F. ) ;
#358 = CARTESIAN_POINT ( 'NONE',  ( 0.3149606299999999082, 0.000000000000000000, -0.1181102399999999497 ) ) ;
#359 = MECHANICAL_DESIGN_GEOMETRIC_PRESENTATION_REPRESENTATION (  '', ( #468 ), #206 ) ;
#360 = FACE_OUTER_BOUND ( 'NONE', #283, .T. ) ;
#361 = AXIS2_PLACEMENT_3D ( 'NONE', #461, #247, #498 ) ;
#362 = CIRCLE ( 'NONE', #215, 0.08999999999999999667 ) ;
#363 = ORIENTED_EDGE ( 'NONE', *, *, #90, .F. ) ;
#364 = DIRECTION ( 'NONE',  ( -2.867311517033007426E-16, 0.000000000000000000, -1.000000000000000000 ) ) ;
#365 = CARTESIAN_POINT ( 'NONE',  ( 0.000000000000000000, 0.2362204699999999602, 0.3228346456692913202 ) ) ;
#366 = VERTEX_POINT ( 'NONE', #389 ) ;
#367 = CARTESIAN_POINT ( 'NONE',  ( 1.102182119232617911E-17, 0.000000000000000000, 0.2328346456692913236 ) ) ;
#368 = VERTEX_POINT ( 'NONE', #174 ) ;
#369 =( LENGTH_UNIT ( ) NAMED_UNIT ( * ) SI_UNIT ( $, .METRE. ) );
#370 = CARTESIAN_POINT ( 'NONE',  ( 0.000000000000000000, 0.2362204699999999602, 0.4128346456692912891 ) ) ;
#371 = ORIENTED_EDGE ( 'NONE', *, *, #60, .T. ) ;
#372 = VECTOR ( 'NONE', #252, 39.37007874015748143 ) ;
#373 = ORIENTED_EDGE ( 'NONE', *, *, #168, .F. ) ;
#374 = DIRECTION ( 'NONE',  ( 1.000000000000000000, 0.000000000000000000, 0.000000000000000000 ) ) ;
#375 = ORIENTED_EDGE ( 'NONE', *, *, #300, .F. ) ;
#376 = CARTESIAN_POINT ( 'NONE',  ( 0.3149606299999999082, 0.000000000000000000, -0.1181102399999999497 ) ) ;
#377 = ORIENTED_EDGE ( 'NONE', *, *, #294, .T. ) ;
#378 = EDGE_CURVE ( 'NONE', #83, #356, #249, .T. ) ;
#379 = CARTESIAN_POINT ( 'NONE',  ( -0.3149606300000001302, 0.2362204699999999880, -0.1181102399999998664 ) ) ;
#380 = ORIENTED_EDGE ( 'NONE', *, *, #99, .T. ) ;
#381 = ORIENTED_EDGE ( 'NONE', *, *, #203, .F. ) ;
#382 = CARTESIAN_POINT ( 'NONE',  ( 0.2755905499999999897, 0.2362204699999999880, -0.1181102362204724532 ) ) ;
#383 = ORIENTED_EDGE ( 'NONE', *, *, #399, .F. ) ;
#384 = CLOSED_SHELL ( 'NONE', ( #195, #93, #234, #12, #271, #470, #103, #28, #473, #41, #451, #96, #52, #445, #9, #285 ) ) ;
#385 = VECTOR ( 'NONE', #170, 39.37007874015748143 ) ;
#386 = LINE ( 'NONE', #391, #372 ) ;
#387 = ORIENTED_EDGE ( 'NONE', *, *, #183, .F. ) ;
#388 = CARTESIAN_POINT ( 'NONE',  ( 0.000000000000000000, 0.2362204699999999602, 0.7199212598425197562 ) ) ;
#389 = CARTESIAN_POINT ( 'NONE',  ( 0.000000000000000000, 0.000000000000000000, 0.7199212598425197562 ) ) ;
#390 = VECTOR ( 'NONE', #421, 39.37007874015748143 ) ;
#391 = CARTESIAN_POINT ( 'NONE',  ( 0.000000000000000000, -0.2755905511811023723, 0.4128346456692912891 ) ) ;
#392 = FACE_BOUND ( 'NONE', #268, .T. ) ;
#393 = EDGE_CURVE ( 'NONE', #508, #415, #126, .T. ) ;
#394 = CARTESIAN_POINT ( 'NONE',  ( 0.2755905499999999897, 0.2362204699999999880, 0.1181102362204724532 ) ) ;
#395 = VERTEX_POINT ( 'NONE', #7 ) ;
#396 = EDGE_CURVE ( 'NONE', #173, #46, #92, .T. ) ;
#397 = DIRECTION ( 'NONE',  ( -1.000000000000000000, 0.000000000000000000, 2.867311517033007426E-16 ) ) ;
#398 = CIRCLE ( 'NONE', #291, 0.08999999999999999667 ) ;
#399 = EDGE_CURVE ( 'NONE', #155, #81, #346, .T. ) ;
#400 = CARTESIAN_POINT ( 'NONE',  ( 0.3149606300000001857, 0.000000000000000000, 0.8346456700000000062 ) ) ;
#401 = PLANE ( 'NONE',  #520 ) ;
#402 = VERTEX_POINT ( 'NONE', #358 ) ;
#403 = FILL_AREA_STYLE_COLOUR ( '', #279 ) ;
#404 = CARTESIAN_POINT ( 'NONE',  ( -0.2755905500000001007, 0.9921259799999999629, 0.1181102362204724532 ) ) ;
#405 = VERTEX_POINT ( 'NONE', #400 ) ;
#406 = CARTESIAN_POINT ( 'NONE',  ( -0.3149606300000001302, 0.2362204699999999880, -0.1181102399999998664 ) ) ;
#407 = VECTOR ( 'NONE', #97, 39.37007874015748143 ) ;
#408 = VERTEX_POINT ( 'NONE', #101 ) ;
#409 = PRODUCT_CONTEXT ( 'NONE', #480, 'mechanical' ) ;
#410 = FACE_OUTER_BOUND ( 'NONE', #495, .T. ) ;
#411 = PRODUCT_DEFINITION ( 'UNKNOWN', '', #426, #179 ) ;
#412 = EDGE_LOOP ( 'NONE', ( #127, #37, #438, #205 ) ) ;
#413 = PLANE ( 'NONE',  #78 ) ;
#414 = EDGE_CURVE ( 'NONE', #448, #244, #137, .T. ) ;
#415 = VERTEX_POINT ( 'NONE', #147 ) ;
#416 = EDGE_LOOP ( 'NONE', ( #288, #500 ) ) ;
#417 = CARTESIAN_POINT ( 'NONE',  ( -0.2755905500000000452, 0.2362204699999999880, 0.1181102362204724532 ) ) ;
#418 = AXIS2_PLACEMENT_3D ( 'NONE', #471, #301, #316 ) ;
#419 = AXIS2_PLACEMENT_3D ( 'NONE', #342, #128, #131 ) ;
#420 = EDGE_CURVE ( 'NONE', #244, #448, #61, .T. ) ;
#421 = DIRECTION ( 'NONE',  ( -0.000000000000000000, -0.000000000000000000, -1.000000000000000000 ) ) ;
#422 = ORIENTED_EDGE ( 'NONE', *, *, #38, .F. ) ;
#423 = ORIENTED_EDGE ( 'NONE', *, *, #321, .T. ) ;
#424 = DIRECTION ( 'NONE',  ( -0.000000000000000000, -0.000000000000000000, -1.000000000000000000 ) ) ;
#425 = DIRECTION ( 'NONE',  ( -0.000000000000000000, -1.000000000000000000, -0.000000000000000000 ) ) ;
#426 = PRODUCT_DEFINITION_FORMATION_WITH_SPECIFIED_SOURCE ( 'ANY', '', #499, .NOT_KNOWN. ) ;
#427 = CARTESIAN_POINT ( 'NONE',  ( -0.1279527550000000014, 0.9921259799999999629, -0.1574803149606299191 ) ) ;
#428 = ORIENTED_EDGE ( 'NONE', *, *, #510, .T. ) ;
#429 = DIRECTION ( 'NONE',  ( 0.000000000000000000, 1.000000000000000000, 0.000000000000000000 ) ) ;
#430 = DIRECTION ( 'NONE',  ( 1.000000000000000000, 0.000000000000000000, 0.000000000000000000 ) ) ;
#431 = CIRCLE ( 'NONE', #507, 0.1279527550000000014 ) ;
#432 = FACE_OUTER_BOUND ( 'NONE', #43, .T. ) ;
#433 = CARTESIAN_POINT ( 'NONE',  ( 1.102182119232617911E-17, -0.2755905511811023723, 0.2328346456692913236 ) ) ;
#434 = VERTEX_POINT ( 'NONE', #524 ) ;
#435 = CARTESIAN_POINT ( 'NONE',  ( 0.000000000000000000, 0.000000000000000000, 0.6299212598425196763 ) ) ;
#436 = DIRECTION ( 'NONE',  ( -0.000000000000000000, -0.000000000000000000, -1.000000000000000000 ) ) ;
#437 = DIRECTION ( 'NONE',  ( 0.000000000000000000, 1.000000000000000000, 0.000000000000000000 ) ) ;
#438 = ORIENTED_EDGE ( 'NONE', *, *, #414, .T. ) ;
#439 = ORIENTED_EDGE ( 'NONE', *, *, #55, .T. ) ;
#440 = DIRECTION ( 'NONE',  ( -0.000000000000000000, -0.000000000000000000, 1.000000000000000000 ) ) ;
#441 = LINE ( 'NONE', #233, #493 ) ;
#442 = ORIENTED_EDGE ( 'NONE', *, *, #248, .F. ) ;
#443 = LINE ( 'NONE', #68, #182 ) ;
#444 = ORIENTED_EDGE ( 'NONE', *, *, #60, .F. ) ;
#445 = ADVANCED_FACE ( 'NONE', ( #227 ), #225, .F. ) ;
#446 = DIRECTION ( 'NONE',  ( 1.000000000000000000, 0.000000000000000000, 0.000000000000000000 ) ) ;
#447 = AXIS2_PLACEMENT_3D ( 'NONE', #435, #16, #62 ) ;
#448 = VERTEX_POINT ( 'NONE', #264 ) ;
#449 =( NAMED_UNIT ( * ) PLANE_ANGLE_UNIT ( ) SI_UNIT ( $, .RADIAN. ) );
#450 = LINE ( 'NONE', #417, #125 ) ;
#451 = ADVANCED_FACE ( 'NONE', ( #14 ), #349, .F. ) ;
#452 = EDGE_LOOP ( 'NONE', ( #86, #108, #357, #422, #460, #238, #145, #235 ) ) ;
#453 = LINE ( 'NONE', #30, #289 ) ;
#454 = ORIENTED_EDGE ( 'NONE', *, *, #548, .T. ) ;
#455 = DIRECTION ( 'NONE',  ( -0.000000000000000000, -0.000000000000000000, 1.000000000000000000 ) ) ;
#456 = ORIENTED_EDGE ( 'NONE', *, *, #300, .T. ) ;
#457 = CARTESIAN_POINT ( 'NONE',  ( 1.102182119232617911E-17, 0.2362204699999999602, 0.2328346456692913236 ) ) ;
#458 = ORIENTED_EDGE ( 'NONE', *, *, #531, .T. ) ;
#459 = AXIS2_PLACEMENT_3D ( 'NONE', #159, #331, #72 ) ;
#460 = ORIENTED_EDGE ( 'NONE', *, *, #19, .T. ) ;
#461 = CARTESIAN_POINT ( 'NONE',  ( 0.000000000000000000, 0.9921259799999999629, 0.1181102362204724532 ) ) ;
#462 = EDGE_CURVE ( 'NONE', #368, #405, #142, .T. ) ;
#463 = VERTEX_POINT ( 'NONE', #138 ) ;
#464 = DIRECTION ( 'NONE',  ( 0.000000000000000000, 0.000000000000000000, -1.000000000000000000 ) ) ;
#465 = UNCERTAINTY_MEASURE_WITH_UNIT (LENGTH_MEASURE( 1.000000000000000082E-05 ), #112, 'distance_accuracy_value', 'NONE');
#466 = EDGE_CURVE ( 'NONE', #81, #169, #191, .T. ) ;
#467 = DIRECTION ( 'NONE',  ( 0.000000000000000000, 0.000000000000000000, 1.000000000000000000 ) ) ;
#468 = STYLED_ITEM ( 'NONE', ( #304 ), #518 ) ;
#469 = CARTESIAN_POINT ( 'NONE',  ( -0.3149606299999999637, 0.2362204699999999880, 0.8346456700000000062 ) ) ;
#470 = ADVANCED_FACE ( 'NONE', ( #109 ), #10, .F. ) ;
#471 = CARTESIAN_POINT ( 'NONE',  ( 0.000000000000000000, 0.9921259799999999629, 0.1181102362204724532 ) ) ;
#472 = DIRECTION ( 'NONE',  ( 1.000000000000000000, 0.000000000000000000, 0.000000000000000000 ) ) ;
#473 = ADVANCED_FACE ( 'NONE', ( #392, #273, #519 ), #262, .F. ) ;
#474 = DIRECTION ( 'NONE',  ( 0.000000000000000000, 0.000000000000000000, 1.000000000000000000 ) ) ;
#475 = SURFACE_STYLE_USAGE ( .BOTH. , #178 ) ;
#476 = CIRCLE ( 'NONE', #419, 0.1279527550000000014 ) ;
#477 = EDGE_CURVE ( 'NONE', #160, #366, #335, .T. ) ;
#478 = DIRECTION ( 'NONE',  ( 1.000000000000000000, 0.000000000000000000, 0.000000000000000000 ) ) ;
#479 = FACE_OUTER_BOUND ( 'NONE', #544, .T. ) ;
#480 = APPLICATION_CONTEXT ( 'automotive_design' ) ;
#481 = DIRECTION ( 'NONE',  ( 2.867311517033007426E-16, 0.000000000000000000, 1.000000000000000000 ) ) ;
#482 = DIRECTION ( 'NONE',  ( -1.433655758516503713E-16, 0.000000000000000000, -1.000000000000000000 ) ) ;
#483 = CARTESIAN_POINT ( 'NONE',  ( 0.000000000000000000, 0.9921259799999999629, -0.1574803149606299191 ) ) ;
#484 = LINE ( 'NONE', #107, #351 ) ;
#485 = CIRCLE ( 'NONE', #506, 0.1279527550000000014 ) ;
#486 = ORIENTED_EDGE ( 'NONE', *, *, #149, .T. ) ;
#487 = DIRECTION ( 'NONE',  ( -1.000000000000000000, -2.710505437707680327E-16, 0.000000000000000000 ) ) ;
#488 = EDGE_CURVE ( 'NONE', #434, #173, #230, .T. ) ;
#489 = VERTEX_POINT ( 'NONE', #224 ) ;
#490 = LINE ( 'NONE', #240, #312 ) ;
#491 = ORIENTED_EDGE ( 'NONE', *, *, #203, .T. ) ;
#492 = CYLINDRICAL_SURFACE ( 'NONE', #5, 0.08999999999999999667 ) ;
#493 = VECTOR ( 'NONE', #228, 39.37007874015748143 ) ;
#494 = AXIS2_PLACEMENT_3D ( 'NONE', #56, #237, #537 ) ;
#495 = EDGE_LOOP ( 'NONE', ( #211, #130, #265, #40 ) ) ;
#496 = DIRECTION ( 'NONE',  ( -2.867311517033007426E-16, 0.000000000000000000, -1.000000000000000000 ) ) ;
#497 = ORIENTED_EDGE ( 'NONE', *, *, #420, .T. ) ;
#498 = DIRECTION ( 'NONE',  ( 1.000000000000000000, 0.000000000000000000, 0.000000000000000000 ) ) ;
#499 = PRODUCT ( 'pivot-bracket', 'pivot-bracket', '', ( #409 ) ) ;
#500 = ORIENTED_EDGE ( 'NONE', *, *, #294, .F. ) ;
#501 = CARTESIAN_POINT ( 'NONE',  ( -0.3149606300000001302, 0.000000000000000000, -0.1181102399999998664 ) ) ;
#502 = ORIENTED_EDGE ( 'NONE', *, *, #540, .F. ) ;
#503 = CARTESIAN_POINT ( 'NONE',  ( 0.3149606300000001857, 0.000000000000000000, 0.8346456700000000062 ) ) ;
#504 = EDGE_LOOP ( 'NONE', ( #100, #502, #330, #373 ) ) ;
#505 = CARTESIAN_POINT ( 'NONE',  ( 0.000000000000000000, 0.9921259799999999629, -0.1181102399999999220 ) ) ;
#506 = AXIS2_PLACEMENT_3D ( 'NONE', #34, #207, #119 ) ;
#507 = AXIS2_PLACEMENT_3D ( 'NONE', #505, #124, #292 ) ;
#508 = VERTEX_POINT ( 'NONE', #8 ) ;
#509 = DIRECTION ( 'NONE',  ( 1.433655758516503713E-16, 0.000000000000000000, 1.000000000000000000 ) ) ;
#510 = EDGE_CURVE ( 'NONE', #155, #286, #522, .T. ) ;
#511 = FACE_OUTER_BOUND ( 'NONE', #18, .T. ) ;
#512 = DIRECTION ( 'NONE',  ( -0.000000000000000000, -0.000000000000000000, 1.000000000000000000 ) ) ;
#513 = PLANE ( 'NONE',  #35 ) ;
#514 = AXIS2_PLACEMENT_3D ( 'NONE', #309, #139, #11 ) ;
#515 = AXIS2_PLACEMENT_3D ( 'NONE', #469, #464, #303 ) ;
#516 = DIRECTION ( 'NONE',  ( 0.000000000000000000, 0.000000000000000000, 1.000000000000000000 ) ) ;
#517 = CYLINDRICAL_SURFACE ( 'NONE', #258, 0.1279527550000000014 ) ;
#518 = MANIFOLD_SOLID_BREP ( 'HoldDownHoles', #384 ) ;
#519 = FACE_OUTER_BOUND ( 'NONE', #504, .T. ) ;
#520 = AXIS2_PLACEMENT_3D ( 'NONE', #406, #185, #482 ) ;
#521 = CARTESIAN_POINT ( 'NONE',  ( 0.3149606300000001857, 0.2362204699999999880, 0.8346456700000000062 ) ) ;
#522 = CIRCLE ( 'NONE', #36, 0.08999999999999999667 ) ;
#523 = FACE_BOUND ( 'NONE', #64, .T. ) ;
#524 = CARTESIAN_POINT ( 'NONE',  ( -0.2755905500000000452, 0.2362204699999999880, -0.1181102399999998664 ) ) ;
#525 = EDGE_LOOP ( 'NONE', ( #241, #324 ) ) ;
#526 = LINE ( 'NONE', #503, #343 ) ;
#527 = DIRECTION ( 'NONE',  ( 0.000000000000000000, 1.000000000000000000, 0.000000000000000000 ) ) ;
#528 = VERTEX_POINT ( 'NONE', #200 ) ;
#529 = DIRECTION ( 'NONE',  ( 0.000000000000000000, 0.000000000000000000, 1.000000000000000000 ) ) ;
#530 = PLANE ( 'NONE',  #266 ) ;
#531 = EDGE_CURVE ( 'NONE', #405, #402, #526, .T. ) ;
#532 = ORIENTED_EDGE ( 'NONE', *, *, #399, .T. ) ;
#533 =( NAMED_UNIT ( * ) SI_UNIT ( $, .STERADIAN. ) SOLID_ANGLE_UNIT ( ) );
#534 = FACE_OUTER_BOUND ( 'NONE', #452, .T. ) ;
#535 = CARTESIAN_POINT ( 'NONE',  ( 1.102182119232617911E-17, 0.000000000000000000, 0.5399212598425197074 ) ) ;
#536 = ORIENTED_EDGE ( 'NONE', *, *, #115, .F. ) ;
#537 = DIRECTION ( 'NONE',  ( 1.000000000000000000, 0.000000000000000000, 0.000000000000000000 ) ) ;
#538 = VECTOR ( 'NONE', #177, 39.37007874015748143 ) ;
#539 = ORIENTED_EDGE ( 'NONE', *, *, #2, .F. ) ;
#540 = EDGE_CURVE ( 'NONE', #402, #171, #541, .T. ) ;
#541 = LINE ( 'NONE', #376, #257 ) ;
#542 = ORIENTED_EDGE ( 'NONE', *, *, #348, .T. ) ;
#543 = CYLINDRICAL_SURFACE ( 'NONE', #459, 0.08999999999999999667 ) ;
#544 = EDGE_LOOP ( 'NONE', ( #444, #327, #486, #232, #275, #70, #454, #102 ) ) ;
#545 = CARTESIAN_POINT ( 'NONE',  ( -0.2755905500000000452, 0.2362204699999999880, 0.1181102362204724532 ) ) ;
#546 = EDGE_LOOP ( 'NONE', ( #383, #150, #456, #25 ) ) ;
#547 = CARTESIAN_POINT ( 'NONE',  ( 0.2755905499999999897, 0.2362204699999999880, 0.1181102362204724532 ) ) ;
#548 = EDGE_CURVE ( 'NONE', #368, #395, #453, .T. ) ;
#549 = VECTOR ( 'NONE', #295, 39.37007874015748143 ) ;
ENDSEC;
END-ISO-10303-21;
