ISO-10303-21;
HEADER;
FILE_DESCRIPTION (( 'STEP AP214' ),
    '1' );
FILE_NAME ('rocker-arm.STEP',
    '2026-10-03T15:21:41',
    ( '' ),
    ( '' ),
    'SwSTEP 2.0',
    'SolidWorks 2026',
    '' );
FILE_SCHEMA (( 'AUTOMOTIVE_DESIGN' ));
ENDSEC;

DATA;
#1 = CARTESIAN_POINT ( 'NONE',  ( 5.758053848120246343, 0.9369883144493473814, 0.04921259842519685318 ) ) ;
#2 = ORIENTED_EDGE ( 'NONE', *, *, #394, .F. ) ;
#3 = PRESENTATION_STYLE_ASSIGNMENT (( #482 ) ) ;
#4 = AXIS2_PLACEMENT_3D ( 'NONE', #192, #281, #21 ) ;
#5 = ORIENTED_EDGE ( 'NONE', *, *, #102, .F. ) ;
#6 = EDGE_CURVE ( 'NONE', #534, #86, #27, .T. ) ;
#7 = LINE ( 'NONE', #538, #454 ) ;
#8 = ORIENTED_EDGE ( 'NONE', *, *, #128, .F. ) ;
#9 = SURFACE_SIDE_STYLE ('',( #146 ) ) ;
#10 = ORIENTED_EDGE ( 'NONE', *, *, #143, .F. ) ;
#11 = DIRECTION ( 'NONE',  ( 0.9833816998466823334, -0.1815500823647561990, 0.000000000000000000 ) ) ;
#12 = DIRECTION ( 'NONE',  ( -0.000000000000000000, -0.000000000000000000, -1.000000000000000000 ) ) ;
#13 = ORIENTED_EDGE ( 'NONE', *, *, #564, .T. ) ;
#14 = AXIS2_PLACEMENT_3D ( 'NONE', #242, #19, #365 ) ;
#15 = VECTOR ( 'NONE', #354, 39.37007874015748143 ) ;
#16 = DIRECTION ( 'NONE',  ( -1.000000000000000000, 0.000000000000000000, 0.000000000000000000 ) ) ;
#17 = EDGE_LOOP ( 'NONE', ( #280, #311, #185, #430 ) ) ;
#18 = DIRECTION ( 'NONE',  ( 1.000000000000000000, 0.000000000000000000, 0.000000000000000000 ) ) ;
#19 = DIRECTION ( 'NONE',  ( -0.000000000000000000, -0.000000000000000000, 1.000000000000000000 ) ) ;
#20 = ADVANCED_FACE ( 'HAF_STRAP_FACES__P01', ( #552, #422, #290 ), #413, .F. ) ;
#21 = DIRECTION ( 'NONE',  ( 1.000000000000000000, 0.000000000000000000, 0.000000000000000000 ) ) ;
#22 = ORIENTED_EDGE ( 'NONE', *, *, #131, .F. ) ;
#23 = VECTOR ( 'NONE', #320, 39.37007874015748143 ) ;
#24 = FACE_BOUND ( 'NONE', #306, .T. ) ;
#25 = AXIS2_PLACEMENT_3D ( 'NONE', #429, #384, #167 ) ;
#26 = EDGE_CURVE ( 'NONE', #337, #116, #504, .T. ) ;
#27 = LINE ( 'NONE', #550, #169 ) ;
#28 = DIRECTION ( 'NONE',  ( -0.000000000000000000, -0.000000000000000000, -1.000000000000000000 ) ) ;
#29 = CARTESIAN_POINT ( 'NONE',  ( 0.000000000000000000, 0.3149606300000000747, -0.3937007874015748254 ) ) ;
#30 = EDGE_CURVE ( 'NONE', #404, #309, #70, .T. ) ;
#31 = DIRECTION ( 'NONE',  ( 1.000000000000000000, 0.000000000000000000, -0.000000000000000000 ) ) ;
#32 = DIRECTION ( 'NONE',  ( 1.000000000000000000, 0.000000000000000000, 0.000000000000000000 ) ) ;
#33 = DIRECTION ( 'NONE',  ( -0.000000000000000000, -0.000000000000000000, 1.000000000000000000 ) ) ;
#34 = VECTOR ( 'NONE', #465, 39.37007874015748854 ) ;
#35 = CIRCLE ( 'NONE', #554, 32.12598425000000191 ) ;
#36 = AXIS2_PLACEMENT_3D ( 'NONE', #254, #11, #182 ) ;
#37 = DIRECTION ( 'NONE',  ( -0.000000000000000000, -0.000000000000000000, -1.000000000000000000 ) ) ;
#38 = CARTESIAN_POINT ( 'NONE',  ( 5.226663600000000187, 0.4280213557747115094, -0.04921259842519685318 ) ) ;
#39 = ORIENTED_EDGE ( 'NONE', *, *, #529, .T. ) ;
#40 = LINE ( 'NONE', #568, #360 ) ;
#41 = PLANE ( 'NONE',  #36 ) ;
#42 = CARTESIAN_POINT ( 'NONE',  ( 0.000000000000000000, 0.3149606300000000747, 0.1389074799999999998 ) ) ;
#43 = DIRECTION ( 'NONE',  ( 1.000000000000000000, 0.000000000000000000, 0.000000000000000000 ) ) ;
#44 = ORIENTED_EDGE ( 'NONE', *, *, #83, .F. ) ;
#45 = EDGE_CURVE ( 'NONE', #531, #228, #460, .T. ) ;
#46 = VECTOR ( 'NONE', #132, 39.37007874015748143 ) ;
#47 = DIRECTION ( 'NONE',  ( -0.000000000000000000, -0.000000000000000000, -1.000000000000000000 ) ) ;
#48 = EDGE_LOOP ( 'NONE', ( #433, #208, #62, #443 ) ) ;
#49 = ADVANCED_FACE ( 'HAF_ROD_HOLE__P01', ( #323 ), #246, .F. ) ;
#50 = VERTEX_POINT ( 'NONE', #367 ) ;
#51 = CARTESIAN_POINT ( 'NONE',  ( -5.718112829999999924, 1.153332288415620521, 0.04921259842519685318 ) ) ;
#52 = ORIENTED_EDGE ( 'NONE', *, *, #388, .F. ) ;
#53 = CARTESIAN_POINT ( 'NONE',  ( 5.199624100000001192, 0.6478765399975994210, 0.04921259842519685318 ) ) ;
#54 = CIRCLE ( 'NONE', #322, 0.03924999999999986139 ) ;
#55 = ORIENTED_EDGE ( 'NONE', *, *, #299, .F. ) ;
#56 = FACE_OUTER_BOUND ( 'NONE', #325, .T. ) ;
#57 = EDGE_LOOP ( 'NONE', ( #5, #491, #447, #295 ) ) ;
#58 = DIRECTION ( 'NONE',  ( 1.000000000000000000, 0.000000000000000000, 0.000000000000000000 ) ) ;
#59 = VERTEX_POINT ( 'NONE', #458 ) ;
#60 = CARTESIAN_POINT ( 'NONE',  ( -5.758053848120246343, 0.9369883144493503790, 0.04921259842519685318 ) ) ;
#61 = EDGE_CURVE ( 'NONE', #404, #276, #436, .T. ) ;
#62 = ORIENTED_EDGE ( 'NONE', *, *, #134, .F. ) ;
#63 = CIRCLE ( 'NONE', #528, 0.2007874000000000048 ) ;
#64 = DIRECTION ( 'NONE',  ( 0.7221796482027614816, -0.6917055411963500822, 0.000000000000000000 ) ) ;
#65 = ORIENTED_EDGE ( 'NONE', *, *, #117, .F. ) ;
#66 = CARTESIAN_POINT ( 'NONE',  ( -5.758053848120246343, 0.9369883144493503790, 0.04921259842519685318 ) ) ;
#67 = DIRECTION ( 'NONE',  ( -0.000000000000000000, -0.000000000000000000, -1.000000000000000000 ) ) ;
#68 = FACE_OUTER_BOUND ( 'NONE', #376, .T. ) ;
#69 = DIRECTION ( 'NONE',  ( -0.000000000000000000, -0.000000000000000000, -1.000000000000000000 ) ) ;
#70 = LINE ( 'NONE', #284, #488 ) ;
#71 = PLANE ( 'NONE',  #424 ) ;
#72 = AXIS2_PLACEMENT_3D ( 'NONE', #106, #159, #502 ) ;
#73 =( GEOMETRIC_REPRESENTATION_CONTEXT ( 3 ) GLOBAL_UNCERTAINTY_ASSIGNED_CONTEXT ( ( #562 ) ) GLOBAL_UNIT_ASSIGNED_CONTEXT ( ( #561, #513, #335 ) ) REPRESENTATION_CONTEXT ( 'NONE', 'WORKASPACE' ) );
#74 = CARTESIAN_POINT ( 'NONE',  ( -0.2007874000000000048, 0.3149606300000000747, -0.1389074799999999998 ) ) ;
#75 = DIRECTION ( 'NONE',  ( 1.000000000000000000, 0.000000000000000000, -0.000000000000000000 ) ) ;
#76 = ORIENTED_EDGE ( 'NONE', *, *, #305, .T. ) ;
#77 = DIRECTION ( 'NONE',  ( -0.000000000000000000, -0.000000000000000000, -1.000000000000000000 ) ) ;
#78 = ORIENTED_EDGE ( 'NONE', *, *, #339, .F. ) ;
#79 = PLANE ( 'NONE',  #234 ) ;
#80 = ORIENTED_EDGE ( 'NONE', *, *, #6, .F. ) ;
#81 = DIRECTION ( 'NONE',  ( -0.000000000000000000, -0.000000000000000000, 1.000000000000000000 ) ) ;
#82 = EDGE_LOOP ( 'NONE', ( #55, #256, #398, #484 ) ) ;
#83 = EDGE_CURVE ( 'NONE', #531, #355, #35, .T. ) ;
#84 = LENGTH_MEASURE_WITH_UNIT ( LENGTH_MEASURE( 0.02539999999999999897 ), #205 );
#85 = DIRECTION ( 'NONE',  ( 1.000000000000000000, 0.000000000000000000, 0.000000000000000000 ) ) ;
#86 = VERTEX_POINT ( 'NONE', #74 ) ;
#87 = CIRCLE ( 'NONE', #142, 0.03924999999999986139 ) ;
#88 =( GEOMETRIC_REPRESENTATION_CONTEXT ( 3 ) GLOBAL_UNCERTAINTY_ASSIGNED_CONTEXT ( ( #379 ) ) GLOBAL_UNIT_ASSIGNED_CONTEXT ( ( #275, #174, #92 ) ) REPRESENTATION_CONTEXT ( 'NONE', 'WORKASPACE' ) );
#89 = CARTESIAN_POINT ( 'NONE',  ( -0.2007874000000000048, 0.3149606300000000747, 0.1389074799999999998 ) ) ;
#90 = VECTOR ( 'NONE', #64, 39.37007874015748143 ) ;
#91 = VERTEX_POINT ( 'NONE', #245 ) ;
#92 =( NAMED_UNIT ( * ) SI_UNIT ( $, .STERADIAN. ) SOLID_ANGLE_UNIT ( ) );
#93 = VERTEX_POINT ( 'NONE', #511 ) ;
#94 = CARTESIAN_POINT ( 'NONE',  ( 5.718112829999993707, 1.153332288415616746, -0.04921259842519685318 ) ) ;
#95 = VERTEX_POINT ( 'NONE', #118 ) ;
#96 = FILL_AREA_STYLE_COLOUR ( '', #555 ) ;
#97 = EDGE_LOOP ( 'NONE', ( #420, #52 ) ) ;
#98 = EDGE_CURVE ( 'NONE', #91, #175, #191, .T. ) ;
#99 = CARTESIAN_POINT ( 'NONE',  ( 5.226663600000000187, 0.4280213557747115094, 0.04921259842519685318 ) ) ;
#100 = ORIENTED_EDGE ( 'NONE', *, *, #549, .F. ) ;
#101 = ADVANCED_BREP_SHAPE_REPRESENTATION ( 'rocker-arm', ( #373, #410 ), #73 ) ;
#102 = EDGE_CURVE ( 'NONE', #456, #173, #497, .T. ) ;
#103 = DIRECTION ( 'NONE',  ( -0.000000000000000000, -0.000000000000000000, -1.000000000000000000 ) ) ;
#104 = LENGTH_MEASURE_WITH_UNIT ( LENGTH_MEASURE( 0.02539999999999999897 ), #315 );
#105 = EDGE_LOOP ( 'NONE', ( #487, #483, #415, #567 ) ) ;
#106 = CARTESIAN_POINT ( 'NONE',  ( 0.000000000000000000, 32.12598425000000191, 0.04921259842519685318 ) ) ;
#107 = VERTEX_POINT ( 'NONE', #501 ) ;
#108 = VECTOR ( 'NONE', #396, 39.37007874015748143 ) ;
#109 = AXIS2_PLACEMENT_3D ( 'NONE', #399, #177, #533 ) ;
#110 = FACE_OUTER_BOUND ( 'NONE', #181, .T. ) ;
#111 = EDGE_CURVE ( 'NONE', #175, #59, #259, .T. ) ;
#112 = CARTESIAN_POINT ( 'NONE',  ( 5.238874100000000311, 0.6478765399975994210, 0.04921259842519691563 ) ) ;
#113 = CARTESIAN_POINT ( 'NONE',  ( 5.718112829999999924, 1.153332288415617413, 0.04921259842519685318 ) ) ;
#114 = CARTESIAN_POINT ( 'NONE',  ( -5.718112829999999924, 1.153332288415620521, 0.04921259842519685318 ) ) ;
#115 = DIRECTION ( 'NONE',  ( 0.000000000000000000, 0.000000000000000000, 1.000000000000000000 ) ) ;
#116 = VERTEX_POINT ( 'NONE', #252 ) ;
#117 = EDGE_CURVE ( 'NONE', #59, #175, #87, .T. ) ;
#118 = CARTESIAN_POINT ( 'NONE',  ( 5.718112829999993707, 1.153332288415616746, 0.04921259842519685318 ) ) ;
#119 = LINE ( 'NONE', #560, #408 ) ;
#120 = ORIENTED_EDGE ( 'NONE', *, *, #117, .T. ) ;
#121 = EDGE_CURVE ( 'NONE', #221, #537, #476, .T. ) ;
#122 = CARTESIAN_POINT ( 'NONE',  ( 0.000000000000000000, 0.3149606300000000747, 0.04921259842519684624 ) ) ;
#123 = ORIENTED_EDGE ( 'NONE', *, *, #45, .T. ) ;
#124 = DIRECTION ( 'NONE',  ( -0.1815500823647561712, 0.9833816998466822223, -0.000000000000000000 ) ) ;
#125 = CIRCLE ( 'NONE', #444, 0.2007874000000000048 ) ;
#126 = AXIS2_PLACEMENT_3D ( 'NONE', #66, #238, #274 ) ;
#127 = CARTESIAN_POINT ( 'NONE',  ( 5.758053848120246343, 0.9369883144493473814, -0.04921259842519685318 ) ) ;
#128 = EDGE_CURVE ( 'NONE', #276, #539, #119, .T. ) ;
#129 = EDGE_LOOP ( 'NONE', ( #390, #353, #523, #216 ) ) ;
#130 = CARTESIAN_POINT ( 'NONE',  ( 5.199624100000001192, 0.6478765399975994210, -0.04921259842519685318 ) ) ;
#131 = EDGE_CURVE ( 'NONE', #116, #363, #215, .T. ) ;
#132 = DIRECTION ( 'NONE',  ( -0.000000000000000000, -0.000000000000000000, -1.000000000000000000 ) ) ;
#133 = ORIENTED_EDGE ( 'NONE', *, *, #83, .T. ) ;
#134 = EDGE_CURVE ( 'NONE', #477, #173, #278, .T. ) ;
#135 = LINE ( 'NONE', #230, #108 ) ;
#136 = EDGE_LOOP ( 'NONE', ( #194, #346 ) ) ;
#137 = LINE ( 'NONE', #442, #279 ) ;
#138 = ORIENTED_EDGE ( 'NONE', *, *, #134, .T. ) ;
#139 = DIRECTION ( 'NONE',  ( 0.1815500823647561712, -0.9833816998466822223, 0.000000000000000000 ) ) ;
#140 = EDGE_LOOP ( 'NONE', ( #472, #76, #120, #165 ) ) ;
#141 = CYLINDRICAL_SURFACE ( 'NONE', #170, 0.03924999999999986139 ) ;
#142 = AXIS2_PLACEMENT_3D ( 'NONE', #473, #81, #43 ) ;
#143 = EDGE_CURVE ( 'NONE', #263, #93, #563, .T. ) ;
#144 = ORIENTED_EDGE ( 'NONE', *, *, #470, .F. ) ;
#145 = AXIS2_PLACEMENT_3D ( 'NONE', #383, #467, #475 ) ;
#146 = SURFACE_STYLE_FILL_AREA ( #361 ) ;
#147 = EDGE_LOOP ( 'NONE', ( #133, #266, #271, #239, #395, #314 ) ) ;
#148 = EDGE_LOOP ( 'NONE', ( #180, #347, #452, #10, #385, #516 ) ) ;
#149 = FACE_BOUND ( 'NONE', #97, .T. ) ;
#150 = CARTESIAN_POINT ( 'NONE',  ( 0.000000000000000000, 0.3149606300000000747, -0.04921259842519684624 ) ) ;
#151 = VERTEX_POINT ( 'NONE', #479 ) ;
#152 = STYLED_ITEM ( 'NONE', ( #3 ), #373 ) ;
#153 = CARTESIAN_POINT ( 'NONE',  ( 0.000000000000000000, 0.3149606300000000747, -0.1389074799999999998 ) ) ;
#154 = DIRECTION ( 'NONE',  ( -0.000000000000000000, -0.000000000000000000, -1.000000000000000000 ) ) ;
#155 = DIRECTION ( 'NONE',  ( 0.000000000000000000, 0.000000000000000000, 1.000000000000000000 ) ) ;
#156 = CARTESIAN_POINT ( 'NONE',  ( -0.1279527550000000014, 0.3149606300000000747, 0.1389074799999999998 ) ) ;
#157 = DIMENSIONAL_EXPONENTS ( 1.000000000000000000, 0.000000000000000000, 0.000000000000000000, 0.000000000000000000, 0.000000000000000000, 0.000000000000000000, 0.000000000000000000 ) ;
#158 = DIRECTION ( 'NONE',  ( 1.000000000000000000, 0.000000000000000000, 0.000000000000000000 ) ) ;
#159 = DIRECTION ( 'NONE',  ( 0.000000000000000000, 0.000000000000000000, 1.000000000000000000 ) ) ;
#160 = CARTESIAN_POINT ( 'NONE',  ( -5.226663600000000187, 0.4280213557747146180, 0.04921259842519685318 ) ) ;
#161 = CIRCLE ( 'NONE', #510, 0.1279527550000000014 ) ;
#162 = CARTESIAN_POINT ( 'NONE',  ( 0.000000000000000000, 32.12598425000000191, 0.04921259842519685318 ) ) ;
#163 = ADVANCED_FACE ( 'HAF_TOP_EDGE__P01', ( #569 ), #435, .F. ) ;
#164 = CARTESIAN_POINT ( 'NONE',  ( 0.000000000000000000, 0.3149606300000000747, 0.04921259842519684624 ) ) ;
#165 = ORIENTED_EDGE ( 'NONE', *, *, #98, .F. ) ;
#166 = ADVANCED_FACE ( 'HAF_HUB_OD__P01', ( #209 ), #425, .T. ) ;
#167 = DIRECTION ( 'NONE',  ( 1.000000000000000000, 0.000000000000000000, 0.000000000000000000 ) ) ;
#168 = FACE_OUTER_BOUND ( 'NONE', #136, .T. ) ;
#169 = VECTOR ( 'NONE', #237, 39.37007874015748143 ) ;
#170 = AXIS2_PLACEMENT_3D ( 'NONE', #217, #356, #58 ) ;
#171 = CYLINDRICAL_SURFACE ( 'NONE', #288, 0.1279527550000000014 ) ;
#172 = DIRECTION ( 'NONE',  ( -0.000000000000000000, -0.000000000000000000, -1.000000000000000000 ) ) ;
#173 = VERTEX_POINT ( 'NONE', #247 ) ;
#174 =( NAMED_UNIT ( * ) PLANE_ANGLE_UNIT ( ) SI_UNIT ( $, .RADIAN. ) );
#175 = VERTEX_POINT ( 'NONE', #345 ) ;
#176 = VECTOR ( 'NONE', #545, 39.37007874015748854 ) ;
#177 = DIRECTION ( 'NONE',  ( 0.000000000000000000, 0.000000000000000000, 1.000000000000000000 ) ) ;
#178 = ORIENTED_EDGE ( 'NONE', *, *, #131, .T. ) ;
#179 = CARTESIAN_POINT ( 'NONE',  ( 0.1279527550000000014, 0.3149606300000000747, 0.1389074799999999998 ) ) ;
#180 = ORIENTED_EDGE ( 'NONE', *, *, #186, .F. ) ;
#181 = EDGE_LOOP ( 'NONE', ( #188, #225, #100, #178 ) ) ;
#182 = DIRECTION ( 'NONE',  ( 0.1815500823647561712, 0.9833816998466822223, 0.000000000000000000 ) ) ;
#183 = CARTESIAN_POINT ( 'NONE',  ( 0.000000000000000000, 32.12598425000000191, 0.04921259842519685318 ) ) ;
#184 = CARTESIAN_POINT ( 'NONE',  ( 5.226663600000000187, 0.4280213557747115094, 0.04921259842519685318 ) ) ;
#185 = ORIENTED_EDGE ( 'NONE', *, *, #557, .F. ) ;
#186 = EDGE_CURVE ( 'NONE', #228, #221, #260, .T. ) ;
#187 = DIRECTION ( 'NONE',  ( -0.1815500823647561712, -0.9833816998466822223, 0.000000000000000000 ) ) ;
#188 = ORIENTED_EDGE ( 'NONE', *, *, #229, .T. ) ;
#189 = EDGE_CURVE ( 'NONE', #151, #477, #524, .T. ) ;
#190 = DIRECTION ( 'NONE',  ( 0.000000000000000000, 0.000000000000000000, 1.000000000000000000 ) ) ;
#191 = LINE ( 'NONE', #541, #23 ) ;
#192 = CARTESIAN_POINT ( 'NONE',  ( 0.000000000000000000, 0.3149606300000000747, 0.1389074799999999998 ) ) ;
#193 = DIRECTION ( 'NONE',  ( 0.000000000000000000, 0.000000000000000000, 1.000000000000000000 ) ) ;
#194 = ORIENTED_EDGE ( 'NONE', *, *, #198, .F. ) ;
#195 = CIRCLE ( 'NONE', #269, 0.2007874000000000048 ) ;
#196 = CIRCLE ( 'NONE', #521, 31.49606298999999865 ) ;
#197 = FACE_OUTER_BOUND ( 'NONE', #57, .T. ) ;
#198 = EDGE_CURVE ( 'NONE', #86, #50, #381, .T. ) ;
#199 = DIRECTION ( 'NONE',  ( 0.000000000000000000, 0.000000000000000000, 1.000000000000000000 ) ) ;
#200 = CARTESIAN_POINT ( 'NONE',  ( 5.238874100000000311, 0.6478765399975994210, -0.04921259842519685318 ) ) ;
#201 = APPLICATION_CONTEXT ( 'automotive_design' ) ;
#202 = ORIENTED_EDGE ( 'NONE', *, *, #317, .T. ) ;
#203 = CARTESIAN_POINT ( 'NONE',  ( 0.000000000000000000, 0.3149606300000000747, -0.3937007874015748254 ) ) ;
#204 = CLOSED_SHELL ( 'NONE', ( #343, #382, #495, #486, #426, #505, #248, #163, #431, #532, #492, #20, #553, #166, #514, #448, #233, #49 ) ) ;
#205 =( LENGTH_UNIT ( ) NAMED_UNIT ( * ) SI_UNIT ( $, .METRE. ) );
#206 = VECTOR ( 'NONE', #270, 39.37007874015748143 ) ;
#207 = DIRECTION ( 'NONE',  ( -0.000000000000000000, -0.000000000000000000, -1.000000000000000000 ) ) ;
#208 = ORIENTED_EDGE ( 'NONE', *, *, #102, .T. ) ;
#209 = FACE_OUTER_BOUND ( 'NONE', #105, .T. ) ;
#210 = VERTEX_POINT ( 'NONE', #130 ) ;
#211 = DIRECTION ( 'NONE',  ( 1.000000000000000000, 0.000000000000000000, 0.000000000000000000 ) ) ;
#212 = CARTESIAN_POINT ( 'NONE',  ( 0.000000000000000000, 0.3149606300000000747, 0.1389074799999999998 ) ) ;
#213 = ORIENTED_EDGE ( 'NONE', *, *, #26, .F. ) ;
#214 = PRESENTATION_LAYER_ASSIGNMENT (  '', '', ( #152 ) ) ;
#215 = LINE ( 'NONE', #393, #480 ) ;
#216 = ORIENTED_EDGE ( 'NONE', *, *, #265, .T. ) ;
#217 = CARTESIAN_POINT ( 'NONE',  ( 5.238874100000000311, 0.6478765399975994210, 0.04921259842519685318 ) ) ;
#218 = EDGE_CURVE ( 'NONE', #151, #456, #499, .T. ) ;
#219 = ORIENTED_EDGE ( 'NONE', *, *, #349, .T. ) ;
#220 = CARTESIAN_POINT ( 'NONE',  ( 0.1279527550000000014, 0.3149606300000000747, -0.1389074799999999998 ) ) ;
#221 = VERTEX_POINT ( 'NONE', #38 ) ;
#222 = PRODUCT_DEFINITION_SHAPE ( 'NONE', 'NONE',  #244 ) ;
#223 = CIRCLE ( 'NONE', #109, 0.2007874000000000048 ) ;
#224 = CARTESIAN_POINT ( 'NONE',  ( -0.1279527550000000014, 0.3149606300000000747, -0.1389074799999999998 ) ) ;
#225 = ORIENTED_EDGE ( 'NONE', *, *, #45, .F. ) ;
#226 = EDGE_CURVE ( 'NONE', #173, #477, #125, .T. ) ;
#227 = CARTESIAN_POINT ( 'NONE',  ( 0.2007874000000000048, 0.3149606300000000747, 0.1389074799999999998 ) ) ;
#228 = VERTEX_POINT ( 'NONE', #293 ) ;
#229 = EDGE_CURVE ( 'NONE', #363, #228, #566, .T. ) ;
#230 = CARTESIAN_POINT ( 'NONE',  ( 5.718112829999993707, 1.153332288415616746, 0.04921259842519685318 ) ) ;
#231 = EDGE_LOOP ( 'NONE', ( #39, #22, #213, #406 ) ) ;
#232 = DIRECTION ( 'NONE',  ( 1.000000000000000000, 0.000000000000000000, -0.000000000000000000 ) ) ;
#233 = ADVANCED_FACE ( 'HAF_PIVOT_BORE__P01', ( #386 ), #171, .F. ) ;
#234 = AXIS2_PLACEMENT_3D ( 'NONE', #520, #294, #139 ) ;
#235 = ORIENTED_EDGE ( 'NONE', *, *, #121, .T. ) ;
#236 = DIRECTION ( 'NONE',  ( 1.000000000000000000, 0.000000000000000000, 0.000000000000000000 ) ) ;
#237 = DIRECTION ( 'NONE',  ( -0.000000000000000000, -0.000000000000000000, -1.000000000000000000 ) ) ;
#238 = DIRECTION ( 'NONE',  ( 0.6917055411963500822, 0.7221796482027614816, -0.000000000000000000 ) ) ;
#239 = ORIENTED_EDGE ( 'NONE', *, *, #557, .T. ) ;
#240 = FACE_OUTER_BOUND ( 'NONE', #400, .T. ) ;
#241 = AXIS2_PLACEMENT_3D ( 'NONE', #164, #255, #85 ) ;
#242 = CARTESIAN_POINT ( 'NONE',  ( 5.238874100000000311, 0.6478765399975994210, 0.04921259842519685318 ) ) ;
#243 = CARTESIAN_POINT ( 'NONE',  ( 0.2007874000000000048, 0.3149606300000000747, 0.1389074799999999998 ) ) ;
#244 = PRODUCT_DEFINITION ( 'UNKNOWN', '', #333, #468 ) ;
#245 = CARTESIAN_POINT ( 'NONE',  ( 5.278124100000000318, 0.6478765399975994210, -0.04921259842519685318 ) ) ;
#246 = CYLINDRICAL_SURFACE ( 'NONE', #14, 0.03924999999999986139 ) ;
#247 = CARTESIAN_POINT ( 'NONE',  ( 0.2007874000000000048, 0.3149606300000000747, 0.04921259842519684624 ) ) ;
#248 = ADVANCED_FACE ( 'HAF_TIP_LAND_POS_X__P01', ( #342 ), #79, .F. ) ;
#249 = ORIENTED_EDGE ( 'NONE', *, *, #397, .F. ) ;
#250 = AXIS2_PLACEMENT_3D ( 'NONE', #336, #262, #522 ) ;
#251 = CARTESIAN_POINT ( 'NONE',  ( 0.000000000000000000, 0.000000000000000000, 0.000000000000000000 ) ) ;
#252 = CARTESIAN_POINT ( 'NONE',  ( -5.758053848120246343, 0.9369883144493503790, 0.04921259842519685318 ) ) ;
#253 = VERTEX_POINT ( 'NONE', #1 ) ;
#254 = CARTESIAN_POINT ( 'NONE',  ( -5.718112829999999924, 1.153332288415620521, 0.04921259842519685318 ) ) ;
#255 = DIRECTION ( 'NONE',  ( -0.000000000000000000, -0.000000000000000000, -1.000000000000000000 ) ) ;
#256 = ORIENTED_EDGE ( 'NONE', *, *, #128, .T. ) ;
#257 = PRODUCT_CONTEXT ( 'NONE', #201, 'mechanical' ) ;
#258 = DIRECTION ( 'NONE',  ( -0.000000000000000000, -0.000000000000000000, -1.000000000000000000 ) ) ;
#259 = CIRCLE ( 'NONE', #330, 0.03924999999999986139 ) ;
#260 = CIRCLE ( 'NONE', #25, 32.12598425000000191 ) ;
#261 = FACE_OUTER_BOUND ( 'NONE', #231, .T. ) ;
#262 = DIRECTION ( 'NONE',  ( 0.000000000000000000, 0.000000000000000000, 1.000000000000000000 ) ) ;
#263 = VERTEX_POINT ( 'NONE', #94 ) ;
#264 = PRODUCT ( 'rocker-arm', 'rocker-arm', '', ( #257 ) ) ;
#265 = EDGE_CURVE ( 'NONE', #253, #537, #7, .T. ) ;
#266 = ORIENTED_EDGE ( 'NONE', *, *, #339, .T. ) ;
#267 = DIRECTION ( 'NONE',  ( 1.000000000000000000, 0.000000000000000000, 0.000000000000000000 ) ) ;
#268 = EDGE_LOOP ( 'NONE', ( #559, #219, #507, #80 ) ) ;
#269 = AXIS2_PLACEMENT_3D ( 'NONE', #153, #318, #18 ) ;
#270 = DIRECTION ( 'NONE',  ( -0.000000000000000000, -0.000000000000000000, 1.000000000000000000 ) ) ;
#271 = ORIENTED_EDGE ( 'NONE', *, *, #464, .T. ) ;
#272 = LINE ( 'NONE', #53, #206 ) ;
#273 = ORIENTED_EDGE ( 'NONE', *, *, #186, .T. ) ;
#274 = DIRECTION ( 'NONE',  ( -0.7221796482027614816, 0.6917055411963500822, 0.000000000000000000 ) ) ;
#275 =( CONVERSION_BASED_UNIT ( 'INCH', #104 ) LENGTH_UNIT ( ) NAMED_UNIT ( #157 ) );
#276 = VERTEX_POINT ( 'NONE', #224 ) ;
#277 = CARTESIAN_POINT ( 'NONE',  ( 0.000000000000000000, 0.3149606300000000747, 0.1389074799999999998 ) ) ;
#278 = CIRCLE ( 'NONE', #241, 0.2007874000000000048 ) ;
#279 = VECTOR ( 'NONE', #449, 39.37007874015748854 ) ;
#280 = ORIENTED_EDGE ( 'NONE', *, *, #143, .T. ) ;
#281 = DIRECTION ( 'NONE',  ( 0.000000000000000000, 0.000000000000000000, 1.000000000000000000 ) ) ;
#282 = CARTESIAN_POINT ( 'NONE',  ( 0.000000000000000000, 32.12598425000000191, -0.04921259842519685318 ) ) ;
#283 = CYLINDRICAL_SURFACE ( 'NONE', #445, 0.2007874000000000048 ) ;
#284 = CARTESIAN_POINT ( 'NONE',  ( 0.1279527550000000014, 0.3149606300000000747, -0.3937007874015748254 ) ) ;
#285 = CARTESIAN_POINT ( 'NONE',  ( -0.2007874000000000048, 0.3149606300000000747, 0.04921259842519684624 ) ) ;
#286 = VECTOR ( 'NONE', #67, 39.37007874015748143 ) ;
#287 = DIRECTION ( 'NONE',  ( 0.000000000000000000, 0.000000000000000000, 1.000000000000000000 ) ) ;
#288 = AXIS2_PLACEMENT_3D ( 'NONE', #203, #334, #292 ) ;
#289 = APPLICATION_CONTEXT ( 'automotive_design' ) ;
#290 = FACE_OUTER_BOUND ( 'NONE', #148, .T. ) ;
#291 = CARTESIAN_POINT ( 'NONE',  ( 0.000000000000000000, 32.12598425000000191, 0.04921259842519685318 ) ) ;
#292 = DIRECTION ( 'NONE',  ( 1.000000000000000000, 0.000000000000000000, 0.000000000000000000 ) ) ;
#293 = CARTESIAN_POINT ( 'NONE',  ( -5.226663600000000187, 0.4280213557747146180, -0.04921259842519685318 ) ) ;
#294 = DIRECTION ( 'NONE',  ( -0.9833816998466823334, -0.1815500823647561990, 0.000000000000000000 ) ) ;
#295 = ORIENTED_EDGE ( 'NONE', *, *, #226, .F. ) ;
#296 = DIRECTION ( 'NONE',  ( 0.000000000000000000, 0.000000000000000000, 1.000000000000000000 ) ) ;
#297 = DIRECTION ( 'NONE',  ( 1.000000000000000000, 0.000000000000000000, 0.000000000000000000 ) ) ;
#298 = EDGE_LOOP ( 'NONE', ( #403, #144, #440, #481 ) ) ;
#299 = EDGE_CURVE ( 'NONE', #276, #404, #519, .T. ) ;
#300 = DIRECTION ( 'NONE',  ( 1.000000000000000000, 0.000000000000000000, 0.000000000000000000 ) ) ;
#301 = DIRECTION ( 'NONE',  ( -1.000000000000000000, 0.000000000000000000, 0.000000000000000000 ) ) ;
#302 = DIRECTION ( 'NONE',  ( 0.000000000000000000, 0.000000000000000000, 1.000000000000000000 ) ) ;
#303 = ORIENTED_EDGE ( 'NONE', *, *, #111, .F. ) ;
#304 = AXIS2_PLACEMENT_3D ( 'NONE', #150, #154, #503 ) ;
#305 = EDGE_CURVE ( 'NONE', #210, #59, #272, .T. ) ;
#306 = EDGE_LOOP ( 'NONE', ( #303, #65 ) ) ;
#307 = EDGE_CURVE ( 'NONE', #337, #93, #485, .T. ) ;
#308 = LINE ( 'NONE', #99, #546 ) ;
#309 = VERTEX_POINT ( 'NONE', #179 ) ;
#310 = CARTESIAN_POINT ( 'NONE',  ( 0.000000000000000000, 0.3149606300000000747, -0.1389074799999999998 ) ) ;
#311 = ORIENTED_EDGE ( 'NONE', *, *, #307, .F. ) ;
#312 = AXIS2_PLACEMENT_3D ( 'NONE', #432, #258, #380 ) ;
#313 = DIRECTION ( 'NONE',  ( 0.000000000000000000, 0.000000000000000000, 1.000000000000000000 ) ) ;
#314 = ORIENTED_EDGE ( 'NONE', *, *, #549, .T. ) ;
#315 =( LENGTH_UNIT ( ) NAMED_UNIT ( * ) SI_UNIT ( $, .METRE. ) );
#316 = ORIENTED_EDGE ( 'NONE', *, *, #61, .T. ) ;
#317 = EDGE_CURVE ( 'NONE', #355, #221, #308, .T. ) ;
#318 = DIRECTION ( 'NONE',  ( 0.000000000000000000, 0.000000000000000000, 1.000000000000000000 ) ) ;
#319 = DIRECTION ( 'NONE',  ( 1.000000000000000000, 0.000000000000000000, 0.000000000000000000 ) ) ;
#320 = DIRECTION ( 'NONE',  ( -0.000000000000000000, -0.000000000000000000, 1.000000000000000000 ) ) ;
#321 = DIRECTION ( 'NONE',  ( -1.000000000000000000, 0.000000000000000000, 0.000000000000000000 ) ) ;
#322 = AXIS2_PLACEMENT_3D ( 'NONE', #200, #190, #236 ) ;
#323 = FACE_OUTER_BOUND ( 'NONE', #298, .T. ) ;
#324 = CARTESIAN_POINT ( 'NONE',  ( 0.000000000000000000, 0.3149606300000000747, 0.1389074799999999998 ) ) ;
#325 = EDGE_LOOP ( 'NONE', ( #273, #358, #44, #123 ) ) ;
#326 = LINE ( 'NONE', #461, #455 ) ;
#327 = ORIENTED_EDGE ( 'NONE', *, *, #30, .T. ) ;
#328 = PLANE ( 'NONE',  #419 ) ;
#329 = DIRECTION ( 'NONE',  ( 1.000000000000000000, 0.000000000000000000, 0.000000000000000000 ) ) ;
#330 = AXIS2_PLACEMENT_3D ( 'NONE', #112, #340, #297 ) ;
#331 = DIRECTION ( 'NONE',  ( -0.000000000000000000, -0.000000000000000000, -1.000000000000000000 ) ) ;
#332 = MECHANICAL_DESIGN_GEOMETRIC_PRESENTATION_REPRESENTATION (  '', ( #152 ), #88 ) ;
#333 = PRODUCT_DEFINITION_FORMATION_WITH_SPECIFIED_SOURCE ( 'ANY', '', #264, .NOT_KNOWN. ) ;
#334 = DIRECTION ( 'NONE',  ( -0.000000000000000000, -0.000000000000000000, 1.000000000000000000 ) ) ;
#335 =( NAMED_UNIT ( * ) SI_UNIT ( $, .STERADIAN. ) SOLID_ANGLE_UNIT ( ) );
#336 = CARTESIAN_POINT ( 'NONE',  ( 0.000000000000000000, 0.3149606300000000747, -0.1389074799999999998 ) ) ;
#337 = VERTEX_POINT ( 'NONE', #51 ) ;
#338 = APPLICATION_PROTOCOL_DEFINITION ( 'draft international standard', 'automotive_design', 1998, #201 ) ;
#339 = EDGE_CURVE ( 'NONE', #355, #253, #137, .T. ) ;
#340 = DIRECTION ( 'NONE',  ( -0.000000000000000000, -0.000000000000000000, 1.000000000000000000 ) ) ;
#341 = VECTOR ( 'NONE', #331, 39.37007874015748143 ) ;
#342 = FACE_OUTER_BOUND ( 'NONE', #129, .T. ) ;
#343 = ADVANCED_FACE ( 'HAF_ROD_HOLE__P01', ( #446 ), #141, .F. ) ;
#344 = ORIENTED_EDGE ( 'NONE', *, *, #377, .T. ) ;
#345 = CARTESIAN_POINT ( 'NONE',  ( 5.278124100000000318, 0.6478765399975994210, 0.04921259842519691563 ) ) ;
#346 = ORIENTED_EDGE ( 'NONE', *, *, #478, .F. ) ;
#347 = ORIENTED_EDGE ( 'NONE', *, *, #229, .F. ) ;
#348 = CIRCLE ( 'NONE', #4, 0.1279527550000000014 ) ;
#349 = EDGE_CURVE ( 'NONE', #107, #50, #536, .T. ) ;
#350 = AXIS2_PLACEMENT_3D ( 'NONE', #183, #37, #301 ) ;
#351 = CIRCLE ( 'NONE', #145, 0.03924999999999986139 ) ;
#352 = FACE_OUTER_BOUND ( 'NONE', #82, .T. ) ;
#353 = ORIENTED_EDGE ( 'NONE', *, *, #362, .F. ) ;
#354 = DIRECTION ( 'NONE',  ( -0.000000000000000000, -0.000000000000000000, -1.000000000000000000 ) ) ;
#355 = VERTEX_POINT ( 'NONE', #184 ) ;
#356 = DIRECTION ( 'NONE',  ( -0.000000000000000000, -0.000000000000000000, 1.000000000000000000 ) ) ;
#357 = DIMENSIONAL_EXPONENTS ( 1.000000000000000000, 0.000000000000000000, 0.000000000000000000, 0.000000000000000000, 0.000000000000000000, 0.000000000000000000, 0.000000000000000000 ) ;
#358 = ORIENTED_EDGE ( 'NONE', *, *, #317, .F. ) ;
#359 = CIRCLE ( 'NONE', #304, 0.2007874000000000048 ) ;
#360 = VECTOR ( 'NONE', #124, 39.37007874015748854 ) ;
#361 = FILL_AREA_STYLE ('',( #96 ) ) ;
#362 = EDGE_CURVE ( 'NONE', #95, #263, #135, .T. ) ;
#363 = VERTEX_POINT ( 'NONE', #405 ) ;
#364 = FACE_BOUND ( 'NONE', #547, .T. ) ;
#365 = DIRECTION ( 'NONE',  ( 1.000000000000000000, 0.000000000000000000, 0.000000000000000000 ) ) ;
#366 = CARTESIAN_POINT ( 'NONE',  ( 0.000000000000000000, 0.3149606300000000747, 0.1389074799999999998 ) ) ;
#367 = CARTESIAN_POINT ( 'NONE',  ( 0.2007874000000000048, 0.3149606300000000747, -0.1389074799999999998 ) ) ;
#368 = FACE_BOUND ( 'NONE', #441, .T. ) ;
#369 = ORIENTED_EDGE ( 'NONE', *, *, #438, .T. ) ;
#370 = CARTESIAN_POINT ( 'NONE',  ( -0.2007874000000000048, 0.3149606300000000747, -0.04921259842519684624 ) ) ;
#371 = CARTESIAN_POINT ( 'NONE',  ( 0.000000000000000000, 0.3149606300000000747, -0.04921259842519684624 ) ) ;
#372 = DIRECTION ( 'NONE',  ( 1.000000000000000000, 0.000000000000000000, 0.000000000000000000 ) ) ;
#373 = MANIFOLD_SOLID_BREP ( 'RodHole', #204 ) ;
#374 = CARTESIAN_POINT ( 'NONE',  ( 0.000000000000000000, 0.3149606300000000747, 0.1389074799999999998 ) ) ;
#375 = DIRECTION ( 'NONE',  ( -0.000000000000000000, -0.000000000000000000, 1.000000000000000000 ) ) ;
#376 = EDGE_LOOP ( 'NONE', ( #235, #571, #78, #202 ) ) ;
#377 = EDGE_CURVE ( 'NONE', #456, #151, #223, .T. ) ;
#378 = DIRECTION ( 'NONE',  ( -0.000000000000000000, -0.000000000000000000, -1.000000000000000000 ) ) ;
#379 = UNCERTAINTY_MEASURE_WITH_UNIT (LENGTH_MEASURE( 1.000000000000000082E-05 ), #275, 'distance_accuracy_value', 'NONE');
#380 = DIRECTION ( 'NONE',  ( 1.000000000000000000, 0.000000000000000000, 0.000000000000000000 ) ) ;
#381 = CIRCLE ( 'NONE', #250, 0.2007874000000000048 ) ;
#382 = ADVANCED_FACE ( 'HAF_PIVOT_BORE__P01', ( #352 ), #530, .F. ) ;
#383 = CARTESIAN_POINT ( 'NONE',  ( 5.238874100000000311, 0.6478765399975994210, -0.04921259842519685318 ) ) ;
#384 = DIRECTION ( 'NONE',  ( 0.000000000000000000, 0.000000000000000000, 1.000000000000000000 ) ) ;
#385 = ORIENTED_EDGE ( 'NONE', *, *, #570, .F. ) ;
#386 = FACE_OUTER_BOUND ( 'NONE', #493, .T. ) ;
#387 = ORIENTED_EDGE ( 'NONE', *, *, #299, .T. ) ;
#388 = EDGE_CURVE ( 'NONE', #539, #309, #161, .T. ) ;
#389 = DIRECTION ( 'NONE',  ( -1.000000000000000000, 0.000000000000000000, 0.000000000000000000 ) ) ;
#390 = ORIENTED_EDGE ( 'NONE', *, *, #570, .T. ) ;
#391 = AXIS2_PLACEMENT_3D ( 'NONE', #366, #28, #551 ) ;
#392 = CARTESIAN_POINT ( 'NONE',  ( 0.000000000000000000, 0.3149606300000000747, -0.1389074799999999998 ) ) ;
#393 = CARTESIAN_POINT ( 'NONE',  ( -5.758053848120246343, 0.9369883144493503790, 0.04921259842519685318 ) ) ;
#394 = EDGE_CURVE ( 'NONE', #534, #107, #359, .T. ) ;
#395 = ORIENTED_EDGE ( 'NONE', *, *, #26, .T. ) ;
#396 = DIRECTION ( 'NONE',  ( -0.000000000000000000, -0.000000000000000000, -1.000000000000000000 ) ) ;
#397 = EDGE_CURVE ( 'NONE', #107, #534, #63, .T. ) ;
#398 = ORIENTED_EDGE ( 'NONE', *, *, #388, .T. ) ;
#399 = CARTESIAN_POINT ( 'NONE',  ( 0.000000000000000000, 0.3149606300000000747, 0.1389074799999999998 ) ) ;
#400 = EDGE_LOOP ( 'NONE', ( #450, #344 ) ) ;
#401 = AXIS2_PLACEMENT_3D ( 'NONE', #212, #47, #389 ) ;
#402 = DIRECTION ( 'NONE',  ( -0.000000000000000000, -0.000000000000000000, -1.000000000000000000 ) ) ;
#403 = ORIENTED_EDGE ( 'NONE', *, *, #305, .F. ) ;
#404 = VERTEX_POINT ( 'NONE', #220 ) ;
#405 = CARTESIAN_POINT ( 'NONE',  ( -5.758053848120246343, 0.9369883144493503790, -0.04921259842519685318 ) ) ;
#406 = ORIENTED_EDGE ( 'NONE', *, *, #307, .T. ) ;
#407 = DIRECTION ( 'NONE',  ( -0.000000000000000000, -0.000000000000000000, -1.000000000000000000 ) ) ;
#408 = VECTOR ( 'NONE', #466, 39.37007874015748143 ) ;
#409 = VECTOR ( 'NONE', #512, 39.37007874015748143 ) ;
#410 = AXIS2_PLACEMENT_3D ( 'NONE', #251, #296, #32 ) ;
#411 = ORIENTED_EDGE ( 'NONE', *, *, #226, .T. ) ;
#412 = FACE_OUTER_BOUND ( 'NONE', #48, .T. ) ;
#413 = PLANE ( 'NONE',  #544 ) ;
#414 = CYLINDRICAL_SURFACE ( 'NONE', #391, 0.2007874000000000048 ) ;
#415 = ORIENTED_EDGE ( 'NONE', *, *, #6, .T. ) ;
#416 = DIRECTION ( 'NONE',  ( -0.6917055411963501932, 0.7221796482027614816, 0.000000000000000000 ) ) ;
#417 = VECTOR ( 'NONE', #556, 39.37007874015748854 ) ;
#418 = AXIS2_PLACEMENT_3D ( 'NONE', #310, #313, #267 ) ;
#419 = AXIS2_PLACEMENT_3D ( 'NONE', #506, #416, #457 ) ;
#420 = ORIENTED_EDGE ( 'NONE', *, *, #438, .F. ) ;
#421 = PLANE ( 'NONE',  #72 ) ;
#422 = FACE_BOUND ( 'NONE', #427, .T. ) ;
#423 = CARTESIAN_POINT ( 'NONE',  ( 0.000000000000000000, 0.3149606300000000747, -0.1389074799999999998 ) ) ;
#424 = AXIS2_PLACEMENT_3D ( 'NONE', #374, #115, #232 ) ;
#425 = CYLINDRICAL_SURFACE ( 'NONE', #401, 0.2007874000000000048 ) ;
#426 = ADVANCED_FACE ( 'HAF_PROFILE_OUTER__P02', ( #56 ), #535, .T. ) ;
#427 = EDGE_LOOP ( 'NONE', ( #2, #249 ) ) ;
#428 = DIRECTION ( 'NONE',  ( 0.000000000000000000, 0.000000000000000000, 1.000000000000000000 ) ) ;
#429 = CARTESIAN_POINT ( 'NONE',  ( 0.000000000000000000, 32.12598425000000191, -0.04921259842519685318 ) ) ;
#430 = ORIENTED_EDGE ( 'NONE', *, *, #362, .T. ) ;
#431 = ADVANCED_FACE ( 'HAF_TIP_LAND_NEG_X__P01', ( #261 ), #41, .F. ) ;
#432 = CARTESIAN_POINT ( 'NONE',  ( 0.000000000000000000, 32.12598425000000191, -0.04921259842519685318 ) ) ;
#433 = ORIENTED_EDGE ( 'NONE', *, *, #377, .F. ) ;
#434 = APPLICATION_PROTOCOL_DEFINITION ( 'draft international standard', 'automotive_design', 1998, #289 ) ;
#435 = CYLINDRICAL_SURFACE ( 'NONE', #437, 31.49606298999999865 ) ;
#436 = CIRCLE ( 'NONE', #518, 0.1279527550000000014 ) ;
#437 = AXIS2_PLACEMENT_3D ( 'NONE', #162, #172, #558 ) ;
#438 = EDGE_CURVE ( 'NONE', #309, #539, #348, .T. ) ;
#439 = DIRECTION ( 'NONE',  ( 1.000000000000000000, 0.000000000000000000, 0.000000000000000000 ) ) ;
#440 = ORIENTED_EDGE ( 'NONE', *, *, #98, .T. ) ;
#441 = EDGE_LOOP ( 'NONE', ( #138, #411 ) ) ;
#442 = CARTESIAN_POINT ( 'NONE',  ( 5.758053848120246343, 0.9369883144493473814, 0.04921259842519685318 ) ) ;
#443 = ORIENTED_EDGE ( 'NONE', *, *, #189, .F. ) ;
#444 = AXIS2_PLACEMENT_3D ( 'NONE', #122, #77, #439 ) ;
#445 = AXIS2_PLACEMENT_3D ( 'NONE', #324, #407, #16 ) ;
#446 = FACE_OUTER_BOUND ( 'NONE', #140, .T. ) ;
#447 = ORIENTED_EDGE ( 'NONE', *, *, #189, .T. ) ;
#448 = ADVANCED_FACE ( 'HAF_HUB_FACES__P02', ( #149, #240 ), #71, .T. ) ;
#449 = DIRECTION ( 'NONE',  ( 0.7221796482027613706, 0.6917055411963500822, -0.000000000000000000 ) ) ;
#450 = ORIENTED_EDGE ( 'NONE', *, *, #218, .T. ) ;
#451 = LINE ( 'NONE', #60, #90 ) ;
#452 = ORIENTED_EDGE ( 'NONE', *, *, #529, .F. ) ;
#453 = PLANE ( 'NONE',  #126 ) ;
#454 = VECTOR ( 'NONE', #12, 39.37007874015748143 ) ;
#455 = VECTOR ( 'NONE', #187, 39.37007874015748854 ) ;
#456 = VERTEX_POINT ( 'NONE', #243 ) ;
#457 = DIRECTION ( 'NONE',  ( -0.7221796482027613706, -0.6917055411963500822, 0.000000000000000000 ) ) ;
#458 = CARTESIAN_POINT ( 'NONE',  ( 5.199624100000001192, 0.6478765399975994210, 0.04921259842519691563 ) ) ;
#459 = FACE_OUTER_BOUND ( 'NONE', #147, .T. ) ;
#460 = LINE ( 'NONE', #160, #341 ) ;
#461 = CARTESIAN_POINT ( 'NONE',  ( -5.718112829999999924, 1.153332288415620521, -0.04921259842519685318 ) ) ;
#462 = VECTOR ( 'NONE', #526, 39.37007874015748143 ) ;
#463 = CARTESIAN_POINT ( 'NONE',  ( 0.000000000000000000, 32.12598425000000191, 0.04921259842519685318 ) ) ;
#464 = EDGE_CURVE ( 'NONE', #253, #95, #540, .T. ) ;
#465 = DIRECTION ( 'NONE',  ( -0.1815500823647561712, -0.9833816998466822223, 0.000000000000000000 ) ) ;
#466 = DIRECTION ( 'NONE',  ( -0.000000000000000000, -0.000000000000000000, 1.000000000000000000 ) ) ;
#467 = DIRECTION ( 'NONE',  ( 0.000000000000000000, 0.000000000000000000, 1.000000000000000000 ) ) ;
#468 = PRODUCT_DEFINITION_CONTEXT ( 'detailed design', #289, 'design' ) ;
#469 = CARTESIAN_POINT ( 'NONE',  ( -5.758053848120246343, 0.9369883144493503790, -0.04921259842519685318 ) ) ;
#470 = EDGE_CURVE ( 'NONE', #91, #210, #54, .T. ) ;
#471 = AXIS2_PLACEMENT_3D ( 'NONE', #392, #428, #75 ) ;
#472 = ORIENTED_EDGE ( 'NONE', *, *, #564, .F. ) ;
#473 = CARTESIAN_POINT ( 'NONE',  ( 5.238874100000000311, 0.6478765399975994210, 0.04921259842519691563 ) ) ;
#474 = ORIENTED_EDGE ( 'NONE', *, *, #470, .T. ) ;
#475 = DIRECTION ( 'NONE',  ( 1.000000000000000000, 0.000000000000000000, 0.000000000000000000 ) ) ;
#476 = LINE ( 'NONE', #127, #417 ) ;
#477 = VERTEX_POINT ( 'NONE', #285 ) ;
#478 = EDGE_CURVE ( 'NONE', #50, #86, #195, .T. ) ;
#479 = CARTESIAN_POINT ( 'NONE',  ( -0.2007874000000000048, 0.3149606300000000747, 0.1389074799999999998 ) ) ;
#480 = VECTOR ( 'NONE', #207, 39.37007874015748143 ) ;
#481 = ORIENTED_EDGE ( 'NONE', *, *, #111, .T. ) ;
#482 = SURFACE_STYLE_USAGE ( .BOTH. , #9 ) ;
#483 = ORIENTED_EDGE ( 'NONE', *, *, #397, .T. ) ;
#484 = ORIENTED_EDGE ( 'NONE', *, *, #30, .F. ) ;
#485 = LINE ( 'NONE', #490, #462 ) ;
#486 = ADVANCED_FACE ( 'HAF_HUB_OD__P01', ( #542 ), #414, .T. ) ;
#487 = ORIENTED_EDGE ( 'NONE', *, *, #349, .F. ) ;
#488 = VECTOR ( 'NONE', #33, 39.37007874015748143 ) ;
#489 = AXIS2_PLACEMENT_3D ( 'NONE', #42, #302, #515 ) ;
#490 = CARTESIAN_POINT ( 'NONE',  ( -5.718112829999999924, 1.153332288415620521, 0.04921259842519685318 ) ) ;
#491 = ORIENTED_EDGE ( 'NONE', *, *, #218, .F. ) ;
#492 = ADVANCED_FACE ( 'HAF_STRAP_DATUM_B__P01', ( #24, #368, #459 ), #421, .T. ) ;
#493 = EDGE_LOOP ( 'NONE', ( #8, #525, #327, #369 ) ) ;
#494 = CYLINDRICAL_SURFACE ( 'NONE', #500, 0.2007874000000000048 ) ;
#495 = ADVANCED_FACE ( 'HAF_HUB_OD__P02', ( #412 ), #283, .T. ) ;
#496 = CARTESIAN_POINT ( 'NONE',  ( 0.000000000000000000, 0.3149606300000000747, 0.1389074799999999998 ) ) ;
#497 = LINE ( 'NONE', #543, #286 ) ;
#498 = CARTESIAN_POINT ( 'NONE',  ( -5.226663600000000187, 0.4280213557747146180, 0.04921259842519685318 ) ) ;
#499 = CIRCLE ( 'NONE', #489, 0.2007874000000000048 ) ;
#500 = AXIS2_PLACEMENT_3D ( 'NONE', #277, #103, #321 ) ;
#501 = CARTESIAN_POINT ( 'NONE',  ( 0.2007874000000000048, 0.3149606300000000747, -0.04921259842519684624 ) ) ;
#502 = DIRECTION ( 'NONE',  ( 1.000000000000000000, 0.000000000000000000, -0.000000000000000000 ) ) ;
#503 = DIRECTION ( 'NONE',  ( 1.000000000000000000, 0.000000000000000000, 0.000000000000000000 ) ) ;
#504 = LINE ( 'NONE', #114, #34 ) ;
#505 = ADVANCED_FACE ( 'HAF_PROFILE_OUTER__P03', ( #68 ), #328, .F. ) ;
#506 = CARTESIAN_POINT ( 'NONE',  ( 5.758053848120246343, 0.9369883144493473814, 0.04921259842519685318 ) ) ;
#507 = ORIENTED_EDGE ( 'NONE', *, *, #478, .T. ) ;
#508 = PRODUCT_RELATED_PRODUCT_CATEGORY ( 'part', '', ( #264 ) ) ;
#509 = SHAPE_DEFINITION_REPRESENTATION ( #222, #101 ) ;
#510 = AXIS2_PLACEMENT_3D ( 'NONE', #496, #193, #329 ) ;
#511 = CARTESIAN_POINT ( 'NONE',  ( -5.718112829999999924, 1.153332288415620521, -0.04921259842519685318 ) ) ;
#512 = DIRECTION ( 'NONE',  ( 0.7221796482027614816, -0.6917055411963500822, 0.000000000000000000 ) ) ;
#513 =( NAMED_UNIT ( * ) PLANE_ANGLE_UNIT ( ) SI_UNIT ( $, .RADIAN. ) );
#514 = ADVANCED_FACE ( 'HAF_HUB_OD__P02', ( #197 ), #494, .T. ) ;
#515 = DIRECTION ( 'NONE',  ( 1.000000000000000000, 0.000000000000000000, 0.000000000000000000 ) ) ;
#516 = ORIENTED_EDGE ( 'NONE', *, *, #121, .F. ) ;
#517 = PLANE ( 'NONE',  #471 ) ;
#518 = AXIS2_PLACEMENT_3D ( 'NONE', #423, #287, #158 ) ;
#519 = CIRCLE ( 'NONE', #418, 0.1279527550000000014 ) ;
#520 = CARTESIAN_POINT ( 'NONE',  ( 5.718112829999999924, 1.153332288415617413, 0.04921259842519685318 ) ) ;
#521 = AXIS2_PLACEMENT_3D ( 'NONE', #291, #378, #211 ) ;
#522 = DIRECTION ( 'NONE',  ( 1.000000000000000000, 0.000000000000000000, 0.000000000000000000 ) ) ;
#523 = ORIENTED_EDGE ( 'NONE', *, *, #464, .F. ) ;
#524 = LINE ( 'NONE', #89, #46 ) ;
#525 = ORIENTED_EDGE ( 'NONE', *, *, #61, .F. ) ;
#526 = DIRECTION ( 'NONE',  ( -0.000000000000000000, -0.000000000000000000, -1.000000000000000000 ) ) ;
#527 = EDGE_LOOP ( 'NONE', ( #474, #13 ) ) ;
#528 = AXIS2_PLACEMENT_3D ( 'NONE', #371, #69, #300 ) ;
#529 = EDGE_CURVE ( 'NONE', #93, #363, #326, .T. ) ;
#530 = CYLINDRICAL_SURFACE ( 'NONE', #565, 0.1279527550000000014 ) ;
#531 = VERTEX_POINT ( 'NONE', #498 ) ;
#532 = ADVANCED_FACE ( 'HAF_PROFILE_OUTER__P01', ( #110 ), #453, .F. ) ;
#533 = DIRECTION ( 'NONE',  ( 1.000000000000000000, 0.000000000000000000, 0.000000000000000000 ) ) ;
#534 = VERTEX_POINT ( 'NONE', #370 ) ;
#535 = CYLINDRICAL_SURFACE ( 'NONE', #350, 32.12598425000000191 ) ;
#536 = LINE ( 'NONE', #227, #15 ) ;
#537 = VERTEX_POINT ( 'NONE', #548 ) ;
#538 = CARTESIAN_POINT ( 'NONE',  ( 5.758053848120246343, 0.9369883144493473814, 0.04921259842519685318 ) ) ;
#539 = VERTEX_POINT ( 'NONE', #156 ) ;
#540 = LINE ( 'NONE', #113, #176 ) ;
#541 = CARTESIAN_POINT ( 'NONE',  ( 5.278124100000000318, 0.6478765399975994210, 0.04921259842519685318 ) ) ;
#542 = FACE_OUTER_BOUND ( 'NONE', #268, .T. ) ;
#543 = CARTESIAN_POINT ( 'NONE',  ( 0.2007874000000000048, 0.3149606300000000747, 0.1389074799999999998 ) ) ;
#544 = AXIS2_PLACEMENT_3D ( 'NONE', #282, #155, #31 ) ;
#545 = DIRECTION ( 'NONE',  ( -0.1815500823647561712, 0.9833816998466822223, -0.000000000000000000 ) ) ;
#546 = VECTOR ( 'NONE', #402, 39.37007874015748143 ) ;
#547 = EDGE_LOOP ( 'NONE', ( #316, #387 ) ) ;
#548 = CARTESIAN_POINT ( 'NONE',  ( 5.758053848120246343, 0.9369883144493473814, -0.04921259842519685318 ) ) ;
#549 = EDGE_CURVE ( 'NONE', #116, #531, #451, .T. ) ;
#550 = CARTESIAN_POINT ( 'NONE',  ( -0.2007874000000000048, 0.3149606300000000747, 0.1389074799999999998 ) ) ;
#551 = DIRECTION ( 'NONE',  ( -1.000000000000000000, 0.000000000000000000, 0.000000000000000000 ) ) ;
#552 = FACE_BOUND ( 'NONE', #527, .T. ) ;
#553 = ADVANCED_FACE ( 'HAF_HUB_FACES__P01', ( #364, #168 ), #517, .F. ) ;
#554 = AXIS2_PLACEMENT_3D ( 'NONE', #463, #199, #372 ) ;
#555 = COLOUR_RGB ( '',0.7921568627450980005, 0.8196078431372548767, 0.9333333333333333481 ) ;
#556 = DIRECTION ( 'NONE',  ( 0.7221796482027613706, 0.6917055411963500822, -0.000000000000000000 ) ) ;
#557 = EDGE_CURVE ( 'NONE', #95, #337, #196, .T. ) ;
#558 = DIRECTION ( 'NONE',  ( -1.000000000000000000, 0.000000000000000000, 0.000000000000000000 ) ) ;
#559 = ORIENTED_EDGE ( 'NONE', *, *, #394, .T. ) ;
#560 = CARTESIAN_POINT ( 'NONE',  ( -0.1279527550000000014, 0.3149606300000000747, -0.3937007874015748254 ) ) ;
#561 =( CONVERSION_BASED_UNIT ( 'INCH', #84 ) LENGTH_UNIT ( ) NAMED_UNIT ( #357 ) );
#562 = UNCERTAINTY_MEASURE_WITH_UNIT (LENGTH_MEASURE( 1.000000000000000082E-05 ), #561, 'distance_accuracy_value', 'NONE');
#563 = CIRCLE ( 'NONE', #312, 31.49606298999999865 ) ;
#564 = EDGE_CURVE ( 'NONE', #210, #91, #351, .T. ) ;
#565 = AXIS2_PLACEMENT_3D ( 'NONE', #29, #375, #319 ) ;
#566 = LINE ( 'NONE', #469, #409 ) ;
#567 = ORIENTED_EDGE ( 'NONE', *, *, #198, .T. ) ;
#568 = CARTESIAN_POINT ( 'NONE',  ( 5.718112829999999924, 1.153332288415617413, -0.04921259842519685318 ) ) ;
#569 = FACE_OUTER_BOUND ( 'NONE', #17, .T. ) ;
#570 = EDGE_CURVE ( 'NONE', #537, #263, #40, .T. ) ;
#571 = ORIENTED_EDGE ( 'NONE', *, *, #265, .F. ) ;
ENDSEC;
END-ISO-10303-21;
