ISO-10303-21;
HEADER;
FILE_DESCRIPTION (( 'STEP AP214' ),
    '1' );
FILE_NAME ('pivot-shaft.STEP',
    '2026-10-03T16:46:22',
    ( '' ),
    ( '' ),
    'SwSTEP 2.0',
    'SolidWorks 2026',
    '' );
FILE_SCHEMA (( 'AUTOMOTIVE_DESIGN' ));
ENDSEC;

DATA;
#1 = ADVANCED_FACE ( 'HAF_PIVOT_JOURNAL__P01', ( #541 ), #2, .T. ) ;
#2 = CYLINDRICAL_SURFACE ( 'NONE', #83, 0.1250000000000000000 ) ;
#3 = DIRECTION ( 'NONE',  ( -1.000000000000000000, 0.000000000000000000, -0.000000000000000000 ) ) ;
#4 = AXIS2_PLACEMENT_3D ( 'NONE', #37, #161, #487 ) ;
#5 = FACE_OUTER_BOUND ( 'NONE', #19, .T. ) ;
#6 = EDGE_CURVE ( 'NONE', #233, #7, #212, .T. ) ;
#7 = VERTEX_POINT ( 'NONE', #159 ) ;
#8 = DIRECTION ( 'NONE',  ( 1.000000000000000000, 0.000000000000000000, 0.000000000000000000 ) ) ;
#9 = DIRECTION ( 'NONE',  ( -0.000000000000000000, -0.000000000000000000, 1.000000000000000000 ) ) ;
#10 = ORIENTED_EDGE ( 'NONE', *, *, #271, .F. ) ;
#11 = CYLINDRICAL_SURFACE ( 'NONE', #473, 0.1968503950000000113 ) ;
#12 = CARTESIAN_POINT ( 'NONE',  ( 0.000000000000000000, 0.1250000000000000000, -0.2362204699999999880 ) ) ;
#13 = ORIENTED_EDGE ( 'NONE', *, *, #297, .T. ) ;
#14 = DIRECTION ( 'NONE',  ( 1.000000000000000000, -1.224646799147353207E-16, -2.999519565323724521E-32 ) ) ;
#15 = ORIENTED_EDGE ( 'NONE', *, *, #249, .F. ) ;
#16 = DIRECTION ( 'NONE',  ( 1.000000000000000000, 0.000000000000000000, 0.000000000000000000 ) ) ;
#17 = EDGE_LOOP ( 'NONE', ( #272, #405 ) ) ;
#18 = CYLINDRICAL_SURFACE ( 'NONE', #50, 0.1122047250000000052 ) ;
#19 = EDGE_LOOP ( 'NONE', ( #287, #527, #60, #90, #475 ) ) ;
#20 = LINE ( 'NONE', #216, #456 ) ;
#21 = ORIENTED_EDGE ( 'NONE', *, *, #124, .F. ) ;
#22 = PRODUCT_RELATED_PRODUCT_CATEGORY ( 'part', '', ( #495 ) ) ;
#23 = CARTESIAN_POINT ( 'NONE',  ( 0.000000000000000000, 0.000000000000000000, -0.2952755899999999767 ) ) ;
#24 = VERTEX_POINT ( 'NONE', #163 ) ;
#25 = DIRECTION ( 'NONE',  ( 1.000000000000000000, 0.000000000000000000, 0.000000000000000000 ) ) ;
#26 = ORIENTED_EDGE ( 'NONE', *, *, #477, .F. ) ;
#27 = SPHERICAL_SURFACE ( 'NONE', #48, 0.1618192224333337703 ) ;
#28 = DIRECTION ( 'NONE',  ( 1.000000000000000000, 0.000000000000000000, 0.000000000000000000 ) ) ;
#29 = CIRCLE ( 'NONE', #222, 0.1250000000000000000 ) ;
#30 = VERTEX_POINT ( 'NONE', #401 ) ;
#31 = CIRCLE ( 'NONE', #515, 0.1250000000000000000 ) ;
#32 = VECTOR ( 'NONE', #194, 39.37007874015748143 ) ;
#33 = CARTESIAN_POINT ( 'NONE',  ( 0.000000000000000000, 0.000000000000000000, -0.2952755899999999767 ) ) ;
#34 = DIRECTION ( 'NONE',  ( -0.000000000000000000, -0.000000000000000000, 1.000000000000000000 ) ) ;
#35 = CARTESIAN_POINT ( 'NONE',  ( 0.000000000000000000, 0.000000000000000000, 0.000000000000000000 ) ) ;
#36 = ORIENTED_EDGE ( 'NONE', *, *, #104, .T. ) ;
#37 = CARTESIAN_POINT ( 'NONE',  ( 0.000000000000000000, 0.1968503950000000113, -0.2952755899999999767 ) ) ;
#38 = MANIFOLD_SOLID_BREP ( 'SouthCap', #532 ) ;
#39 = ORIENTED_EDGE ( 'NONE', *, *, #176, .T. ) ;
#40 = EDGE_CURVE ( 'NONE', #263, #45, #483, .T. ) ;
#41 = AXIS2_PLACEMENT_3D ( 'NONE', #197, #472, #365 ) ;
#42 = CIRCLE ( 'NONE', #41, 0.1618192224333334650 ) ;
#43 = CYLINDRICAL_SURFACE ( 'NONE', #251, 0.1122047250000000052 ) ;
#44 = ADVANCED_FACE ( 'HAF_SOUTH_RELIEF__P02', ( #412 ), #43, .T. ) ;
#45 = VERTEX_POINT ( 'NONE', #55 ) ;
#46 = EDGE_CURVE ( 'NONE', #237, #280, #138, .T. ) ;
#47 = DIRECTION ( 'NONE',  ( -0.000000000000000000, -0.000000000000000000, 1.000000000000000000 ) ) ;
#48 = AXIS2_PLACEMENT_3D ( 'NONE', #358, #153, #528 ) ;
#49 = CARTESIAN_POINT ( 'NONE',  ( 0.000000000000000000, 0.1250000000000000000, 8.537024980200822558E-18 ) ) ;
#50 = AXIS2_PLACEMENT_3D ( 'NONE', #348, #362, #518 ) ;
#51 = DIRECTION ( 'NONE',  ( 1.224646799147352961E-16, 1.000000000000000000, 0.000000000000000000 ) ) ;
#52 = CARTESIAN_POINT ( 'NONE',  ( 0.000000000000000000, 0.000000000000000000, -0.2362204699999999880 ) ) ;
#53 = LINE ( 'NONE', #93, #242 ) ;
#54 = FACE_BOUND ( 'NONE', #509, .T. ) ;
#55 = CARTESIAN_POINT ( 'NONE',  ( 0.000000000000000000, -0.1249999999999998473, -6.168110239999999855 ) ) ;
#56 = ORIENTED_EDGE ( 'NONE', *, *, #46, .T. ) ;
#57 = AXIS2_PLACEMENT_3D ( 'NONE', #349, #143, #79 ) ;
#58 = DIRECTION ( 'NONE',  ( -0.000000000000000000, -0.000000000000000000, 1.000000000000000000 ) ) ;
#59 = AXIS2_PLACEMENT_3D ( 'NONE', #170, #314, #476 ) ;
#60 = ORIENTED_EDGE ( 'NONE', *, *, #162, .F. ) ;
#61 = DIRECTION ( 'NONE',  ( -0.000000000000000000, -0.000000000000000000, 1.000000000000000000 ) ) ;
#62 = EDGE_LOOP ( 'NONE', ( #439, #13, #150, #136, #21 ) ) ;
#63 = ADVANCED_FACE ( 'HAF_SHOULDER_NORTH_FACE__P01', ( #181, #337 ), #516, .F. ) ;
#64 = ORIENTED_EDGE ( 'NONE', *, *, #166, .T. ) ;
#65 = DIRECTION ( 'NONE',  ( 1.000000000000000000, 0.000000000000000000, 0.000000000000000000 ) ) ;
#66 = ORIENTED_EDGE ( 'NONE', *, *, #80, .T. ) ;
#67 = STYLED_ITEM ( 'NONE', ( #452 ), #38 ) ;
#68 = DIRECTION ( 'NONE',  ( 1.000000000000000000, 1.224646799147353207E-16, 1.499759782661857608E-32 ) ) ;
#69 = VERTEX_POINT ( 'NONE', #135 ) ;
#70 = CARTESIAN_POINT ( 'NONE',  ( 0.1122047250000000052, 0.000000000000000000, 0.000000000000000000 ) ) ;
#71 = DIRECTION ( 'NONE',  ( 1.000000000000000000, 0.000000000000000000, 0.000000000000000000 ) ) ;
#72 = ORIENTED_EDGE ( 'NONE', *, *, #325, .F. ) ;
#73 = EDGE_CURVE ( 'NONE', #237, #233, #178, .T. ) ;
#74 = CARTESIAN_POINT ( 'NONE',  ( 0.000000000000000000, 0.000000000000000000, 0.000000000000000000 ) ) ;
#75 = AXIS2_PLACEMENT_3D ( 'NONE', #149, #151, #525 ) ;
#76 = ORIENTED_EDGE ( 'NONE', *, *, #228, .T. ) ;
#77 = CARTESIAN_POINT ( 'NONE',  ( -0.1122047250000000052, 1.374111573204589984E-17, -0.3740157499999999802 ) ) ;
#78 = AXIS2_PLACEMENT_3D ( 'NONE', #302, #423, #299 ) ;
#79 = DIRECTION ( 'NONE',  ( 1.000000000000000000, 0.000000000000000000, 0.000000000000000000 ) ) ;
#80 = EDGE_CURVE ( 'NONE', #263, #280, #294, .T. ) ;
#81 = CARTESIAN_POINT ( 'NONE',  ( -0.1122047250000000052, 1.374111573204589984E-17, -0.2362204699999999880 ) ) ;
#82 = DIRECTION ( 'NONE',  ( -1.000000000000000000, 0.000000000000000000, -0.000000000000000000 ) ) ;
#83 = AXIS2_PLACEMENT_3D ( 'NONE', #121, #34, #208 ) ;
#84 = AXIS2_PLACEMENT_3D ( 'NONE', #219, #188, #416 ) ;
#85 = ORIENTED_EDGE ( 'NONE', *, *, #184, .T. ) ;
#86 = ADVANCED_BREP_SHAPE_REPRESENTATION ( 'pivot-shaft', ( #38, #169 ), #252 ) ;
#87 = EDGE_CURVE ( 'NONE', #175, #30, #342, .T. ) ;
#88 = DIRECTION ( 'NONE',  ( -0.000000000000000000, -0.000000000000000000, 1.000000000000000000 ) ) ;
#89 = DIRECTION ( 'NONE',  ( -0.000000000000000000, -2.449293598294713810E-16, 1.000000000000000000 ) ) ;
#90 = ORIENTED_EDGE ( 'NONE', *, *, #142, .F. ) ;
#91 = FACE_OUTER_BOUND ( 'NONE', #62, .T. ) ;
#92 = AXIS2_PLACEMENT_3D ( 'NONE', #259, #415, #220 ) ;
#93 = CARTESIAN_POINT ( 'NONE',  ( 0.1122047250000000052, 0.000000000000000000, 0.000000000000000000 ) ) ;
#94 = VERTEX_POINT ( 'NONE', #381 ) ;
#95 = DIRECTION ( 'NONE',  ( -1.224646799147353207E-16, 1.000000000000000000, 0.000000000000000000 ) ) ;
#96 = CARTESIAN_POINT ( 'NONE',  ( -0.1250000000000000000, 1.530808498934191509E-17, -0.1574803099999999845 ) ) ;
#97 = EDGE_CURVE ( 'NONE', #199, #253, #146, .T. ) ;
#98 = EDGE_LOOP ( 'NONE', ( #103, #85, #315, #355 ) ) ;
#99 = CARTESIAN_POINT ( 'NONE',  ( 0.000000000000000000, 1.963515745446189127E-16, -6.065346137566665519 ) ) ;
#100 = AXIS2_PLACEMENT_3D ( 'NONE', #389, #316, #8 ) ;
#101 = CIRCLE ( 'NONE', #496, 0.1122047250000000052 ) ;
#102 = CARTESIAN_POINT ( 'NONE',  ( 0.000000000000000000, 0.000000000000000000, -0.3740157499999999802 ) ) ;
#103 = ORIENTED_EDGE ( 'NONE', *, *, #436, .F. ) ;
#104 = EDGE_CURVE ( 'NONE', #303, #470, #53, .T. ) ;
#105 = ORIENTED_EDGE ( 'NONE', *, *, #291, .T. ) ;
#106 = CARTESIAN_POINT ( 'NONE',  ( -0.1122047250000000052, 1.374111573204589984E-17, -0.1574803099999999845 ) ) ;
#107 = ORIENTED_EDGE ( 'NONE', *, *, #501, .T. ) ;
#108 = DIRECTION ( 'NONE',  ( 1.000000000000000000, 0.000000000000000000, 0.000000000000000000 ) ) ;
#109 = MECHANICAL_DESIGN_GEOMETRIC_PRESENTATION_REPRESENTATION (  '', ( #67 ), #311 ) ;
#110 = EDGE_LOOP ( 'NONE', ( #107, #172 ) ) ;
#111 = ADVANCED_FACE ( 'HAF_PIVOT_JOURNAL__P01', ( #5 ), #306, .T. ) ;
#112 = DIRECTION ( 'NONE',  ( -0.000000000000000000, -0.000000000000000000, 1.000000000000000000 ) ) ;
#113 = DIRECTION ( 'NONE',  ( -0.000000000000000000, -2.449293598294713810E-16, 1.000000000000000000 ) ) ;
#114 = VERTEX_POINT ( 'NONE', #264 ) ;
#115 = ADVANCED_FACE ( 'HAF_SHOULDER_OD__P01', ( #174 ), #131, .T. ) ;
#116 = DIRECTION ( 'NONE',  ( -0.000000000000000000, -0.000000000000000000, 1.000000000000000000 ) ) ;
#117 = DIRECTION ( 'NONE',  ( 1.000000000000000000, 0.000000000000000000, 0.000000000000000000 ) ) ;
#118 = DIRECTION ( 'NONE',  ( 0.000000000000000000, 0.000000000000000000, 1.000000000000000000 ) ) ;
#119 = CARTESIAN_POINT ( 'NONE',  ( 1.530808498934191509E-17, -0.1250000000000000000, 8.537024980200822558E-18 ) ) ;
#120 = VECTOR ( 'NONE', #116, 39.37007874015748143 ) ;
#121 = CARTESIAN_POINT ( 'NONE',  ( 0.000000000000000000, 0.000000000000000000, 0.000000000000000000 ) ) ;
#122 = CARTESIAN_POINT ( 'NONE',  ( 0.000000000000000000, 0.000000000000000000, 0.000000000000000000 ) ) ;
#123 = CIRCLE ( 'NONE', #329, 0.1250000000000000000 ) ;
#124 = EDGE_CURVE ( 'NONE', #7, #233, #207, .T. ) ;
#125 = SURFACE_STYLE_FILL_AREA ( #323 ) ;
#126 = SURFACE_SIDE_STYLE ('',( #125 ) ) ;
#127 = VERTEX_POINT ( 'NONE', #463 ) ;
#128 = AXIS2_PLACEMENT_3D ( 'NONE', #422, #137, #134 ) ;
#129 = AXIS2_PLACEMENT_3D ( 'NONE', #290, #82, #250 ) ;
#130 = CIRCLE ( 'NONE', #240, 0.1250000000000000000 ) ;
#131 = CYLINDRICAL_SURFACE ( 'NONE', #410, 0.1968503950000000113 ) ;
#132 = DIRECTION ( 'NONE',  ( -0.000000000000000000, -0.000000000000000000, 1.000000000000000000 ) ) ;
#133 = ORIENTED_EDGE ( 'NONE', *, *, #6, .F. ) ;
#134 = DIRECTION ( 'NONE',  ( 1.000000000000000000, 0.000000000000000000, 0.000000000000000000 ) ) ;
#135 = CARTESIAN_POINT ( 'NONE',  ( -0.1250000000000000000, 1.530808498934191509E-17, -6.168110239999999855 ) ) ;
#136 = ORIENTED_EDGE ( 'NONE', *, *, #73, .T. ) ;
#137 = DIRECTION ( 'NONE',  ( 0.000000000000000000, -0.000000000000000000, 1.000000000000000000 ) ) ;
#138 = CIRCLE ( 'NONE', #92, 0.1250000000000000000 ) ;
#139 = EDGE_CURVE ( 'NONE', #45, #237, #189, .T. ) ;
#140 = SPHERICAL_SURFACE ( 'NONE', #78, 0.1618192224333334650 ) ;
#141 = DIRECTION ( 'NONE',  ( -0.000000000000000000, -0.000000000000000000, 1.000000000000000000 ) ) ;
#142 = EDGE_CURVE ( 'NONE', #94, #359, #31, .T. ) ;
#143 = DIRECTION ( 'NONE',  ( -0.000000000000000000, -0.000000000000000000, 1.000000000000000000 ) ) ;
#144 = ORIENTED_EDGE ( 'NONE', *, *, #176, .F. ) ;
#145 = AXIS2_PLACEMENT_3D ( 'NONE', #52, #464, #377 ) ;
#146 = CIRCLE ( 'NONE', #266, 0.1968503950000000113 ) ;
#147 = CARTESIAN_POINT ( 'NONE',  ( 0.000000000000000000, -7.232165210979882351E-18, -6.168110239999999855 ) ) ;
#148 = EDGE_LOOP ( 'NONE', ( #144, #274 ) ) ;
#149 = CARTESIAN_POINT ( 'NONE',  ( 0.000000000000000000, 0.1968503949999999836, -0.1574803099999999845 ) ) ;
#150 = ORIENTED_EDGE ( 'NONE', *, *, #139, .T. ) ;
#151 = DIRECTION ( 'NONE',  ( 0.000000000000000000, 0.000000000000000000, -1.000000000000000000 ) ) ;
#152 = ORIENTED_EDGE ( 'NONE', *, *, #271, .T. ) ;
#153 = DIRECTION ( 'NONE',  ( 1.000000000000000000, 0.000000000000000000, 0.000000000000000000 ) ) ;
#154 = CIRCLE ( 'NONE', #448, 0.1968503950000000113 ) ;
#155 = ADVANCED_FACE ( 'HAF_NORTH_DOME__P01', ( #507 ), #140, .T. ) ;
#156 = ORIENTED_EDGE ( 'NONE', *, *, #231, .T. ) ;
#157 = DIRECTION ( 'NONE',  ( 0.000000000000000000, 0.000000000000000000, -1.000000000000000000 ) ) ;
#158 = CARTESIAN_POINT ( 'NONE',  ( 0.1968503950000000113, 0.000000000000000000, -0.2952755899999999767 ) ) ;
#159 = CARTESIAN_POINT ( 'NONE',  ( -0.1250000000000000000, 1.530808498934191509E-17, -0.3740157499999999802 ) ) ;
#160 = DIRECTION ( 'NONE',  ( -0.000000000000000000, -0.000000000000000000, 1.000000000000000000 ) ) ;
#161 = DIRECTION ( 'NONE',  ( 0.000000000000000000, -0.000000000000000000, 1.000000000000000000 ) ) ;
#162 = EDGE_CURVE ( 'NONE', #359, #30, #276, .T. ) ;
#163 = CARTESIAN_POINT ( 'NONE',  ( -0.1968503950000000113, 2.410722061476421855E-17, -0.2362204699999999602 ) ) ;
#164 = ORIENTED_EDGE ( 'NONE', *, *, #80, .F. ) ;
#165 = CARTESIAN_POINT ( 'NONE',  ( 0.000000000000000000, 0.000000000000000000, 0.000000000000000000 ) ) ;
#166 = EDGE_CURVE ( 'NONE', #253, #114, #466, .T. ) ;
#167 = CIRCLE ( 'NONE', #100, 0.1250000000000000000 ) ;
#168 = AXIS2_PLACEMENT_3D ( 'NONE', #12, #505, #3 ) ;
#169 = AXIS2_PLACEMENT_3D ( 'NONE', #35, #118, #204 ) ;
#170 = CARTESIAN_POINT ( 'NONE',  ( 0.000000000000000000, 0.000000000000000000, 0.000000000000000000 ) ) ;
#171 = DIRECTION ( 'NONE',  ( 1.000000000000000000, 0.000000000000000000, 0.000000000000000000 ) ) ;
#172 = ORIENTED_EDGE ( 'NONE', *, *, #480, .T. ) ;
#173 = CARTESIAN_POINT ( 'NONE',  ( 0.000000000000000000, 0.000000000000000000, 0.000000000000000000 ) ) ;
#174 = FACE_OUTER_BOUND ( 'NONE', #388, .T. ) ;
#175 = VERTEX_POINT ( 'NONE', #96 ) ;
#176 = EDGE_CURVE ( 'NONE', #432, #481, #101, .T. ) ;
#177 = CYLINDRICAL_SURFACE ( 'NONE', #426, 0.1250000000000000000 ) ;
#178 = LINE ( 'NONE', #209, #345 ) ;
#179 = EDGE_LOOP ( 'NONE', ( #413, #66, #205, #427 ) ) ;
#180 = PRODUCT_DEFINITION_FORMATION_WITH_SPECIFIED_SOURCE ( 'ANY', '', #495, .NOT_KNOWN. ) ;
#181 = FACE_OUTER_BOUND ( 'NONE', #230, .T. ) ;
#182 = ORIENTED_EDGE ( 'NONE', *, *, #291, .F. ) ;
#183 = DIRECTION ( 'NONE',  ( 1.000000000000000000, 0.000000000000000000, 0.000000000000000000 ) ) ;
#184 = EDGE_CURVE ( 'NONE', #446, #359, #42, .T. ) ;
#185 = ORIENTED_EDGE ( 'NONE', *, *, #451, .T. ) ;
#186 = DIRECTION ( 'NONE',  ( -0.000000000000000000, -0.000000000000000000, 1.000000000000000000 ) ) ;
#187 = ORIENTED_EDGE ( 'NONE', *, *, #249, .T. ) ;
#188 = DIRECTION ( 'NONE',  ( 1.000000000000000000, 0.000000000000000000, -0.000000000000000000 ) ) ;
#189 = CIRCLE ( 'NONE', #503, 0.1250000000000000000 ) ;
#190 = ORIENTED_EDGE ( 'NONE', *, *, #352, .F. ) ;
#191 = FACE_OUTER_BOUND ( 'NONE', #368, .T. ) ;
#192 = ADVANCED_FACE ( 'HAF_SOUTH_RELIEF__P02', ( #322 ), #18, .T. ) ;
#193 = ORIENTED_EDGE ( 'NONE', *, *, #526, .F. ) ;
#194 = DIRECTION ( 'NONE',  ( -0.000000000000000000, -0.000000000000000000, 1.000000000000000000 ) ) ;
#195 = ORIENTED_EDGE ( 'NONE', *, *, #510, .T. ) ;
#196 = CARTESIAN_POINT ( 'NONE',  ( -0.1122047250000000052, 1.374111573204589984E-17, 0.000000000000000000 ) ) ;
#197 = CARTESIAN_POINT ( 'NONE',  ( 0.000000000000000000, 0.000000000000000000, -0.1027641024333334485 ) ) ;
#198 = CIRCLE ( 'NONE', #319, 0.1122047250000000052 ) ;
#199 = VERTEX_POINT ( 'NONE', #538 ) ;
#200 = AXIS2_PLACEMENT_3D ( 'NONE', #283, #157, #537 ) ;
#201 = CARTESIAN_POINT ( 'NONE',  ( 0.000000000000000000, 0.000000000000000000, -0.3740157499999999802 ) ) ;
#202 = ORIENTED_EDGE ( 'NONE', *, *, #536, .F. ) ;
#203 = EDGE_CURVE ( 'NONE', #253, #199, #450, .T. ) ;
#204 = DIRECTION ( 'NONE',  ( 1.000000000000000000, 0.000000000000000000, 0.000000000000000000 ) ) ;
#205 = ORIENTED_EDGE ( 'NONE', *, *, #46, .F. ) ;
#206 = DIRECTION ( 'NONE',  ( -0.000000000000000000, -0.000000000000000000, 1.000000000000000000 ) ) ;
#207 = CIRCLE ( 'NONE', #428, 0.1250000000000000000 ) ;
#208 = DIRECTION ( 'NONE',  ( 1.000000000000000000, 0.000000000000000000, 0.000000000000000000 ) ) ;
#209 = CARTESIAN_POINT ( 'NONE',  ( 0.1250000000000000000, 0.000000000000000000, 0.000000000000000000 ) ) ;
#210 = PRODUCT_CONTEXT ( 'NONE', #408, 'mechanical' ) ;
#211 = CIRCLE ( 'NONE', #484, 0.1618192224333334650 ) ;
#212 = CIRCLE ( 'NONE', #522, 0.1250000000000000000 ) ;
#213 = FACE_OUTER_BOUND ( 'NONE', #110, .T. ) ;
#214 = DIRECTION ( 'NONE',  ( 0.000000000000000000, -1.000000000000000000, 0.000000000000000000 ) ) ;
#215 = PRODUCT_DEFINITION ( 'UNKNOWN', '', #180, #440 ) ;
#216 = CARTESIAN_POINT ( 'NONE',  ( 0.1250000000000000000, 0.000000000000000000, 0.000000000000000000 ) ) ;
#217 = DIRECTION ( 'NONE',  ( -0.000000000000000000, -0.000000000000000000, 1.000000000000000000 ) ) ;
#218 = ORIENTED_EDGE ( 'NONE', *, *, #297, .F. ) ;
#219 = CARTESIAN_POINT ( 'NONE',  ( 0.000000000000000000, 0.000000000000000000, -0.1027641024333334485 ) ) ;
#220 = DIRECTION ( 'NONE',  ( 0.000000000000000000, -1.000000000000000000, 0.000000000000000000 ) ) ;
#221 = ORIENTED_EDGE ( 'NONE', *, *, #87, .F. ) ;
#222 = AXIS2_PLACEMENT_3D ( 'NONE', #74, #160, #117 ) ;
#223 = DIRECTION ( 'NONE',  ( 1.000000000000000000, 0.000000000000000000, 0.000000000000000000 ) ) ;
#224 = ORIENTED_EDGE ( 'NONE', *, *, #501, .F. ) ;
#225 = DIRECTION ( 'NONE',  ( -0.000000000000000000, -0.000000000000000000, 1.000000000000000000 ) ) ;
#226 = EDGE_LOOP ( 'NONE', ( #433, #455 ) ) ;
#227 = EDGE_LOOP ( 'NONE', ( #524, #327 ) ) ;
#228 = EDGE_CURVE ( 'NONE', #199, #24, #282, .T. ) ;
#229 = CARTESIAN_POINT ( 'NONE',  ( 0.000000000000000000, 0.000000000000000000, 0.000000000000000000 ) ) ;
#230 = EDGE_LOOP ( 'NONE', ( #517, #245 ) ) ;
#231 = EDGE_CURVE ( 'NONE', #280, #69, #123, .T. ) ;
#232 = DIRECTION ( 'NONE',  ( 1.000000000000000000, 0.000000000000000000, 0.000000000000000000 ) ) ;
#233 = VERTEX_POINT ( 'NONE', #239 ) ;
#234 = CARTESIAN_POINT ( 'NONE',  ( 0.000000000000000000, 0.000000000000000000, -0.1574803099999999845 ) ) ;
#235 = DIRECTION ( 'NONE',  ( 0.000000000000000000, -1.000000000000000000, 0.000000000000000000 ) ) ;
#236 = ADVANCED_FACE ( 'HAF_SOUTH_DOME__P01', ( #395 ), #431, .T. ) ;
#237 = VERTEX_POINT ( 'NONE', #445 ) ;
#238 = CARTESIAN_POINT ( 'NONE',  ( -0.1250000000000000000, 1.530808498934191509E-17, 0.000000000000000000 ) ) ;
#239 = CARTESIAN_POINT ( 'NONE',  ( 0.1250000000000000000, 0.000000000000000000, -0.3740157499999999802 ) ) ;
#240 = AXIS2_PLACEMENT_3D ( 'NONE', #147, #312, #235 ) ;
#241 = EDGE_CURVE ( 'NONE', #114, #24, #154, .T. ) ;
#242 = VECTOR ( 'NONE', #58, 39.37007874015748143 ) ;
#243 = ORIENTED_EDGE ( 'NONE', *, *, #166, .F. ) ;
#244 = DIRECTION ( 'NONE',  ( -0.000000000000000000, -0.000000000000000000, 1.000000000000000000 ) ) ;
#245 = ORIENTED_EDGE ( 'NONE', *, *, #325, .T. ) ;
#246 = LINE ( 'NONE', #238, #32 ) ;
#247 =( NAMED_UNIT ( * ) PLANE_ANGLE_UNIT ( ) SI_UNIT ( $, .RADIAN. ) );
#248 = FACE_OUTER_BOUND ( 'NONE', #226, .T. ) ;
#249 = EDGE_CURVE ( 'NONE', #303, #474, #265, .T. ) ;
#250 = DIRECTION ( 'NONE',  ( 0.000000000000000000, 0.000000000000000000, 1.000000000000000000 ) ) ;
#251 = AXIS2_PLACEMENT_3D ( 'NONE', #296, #47, #376 ) ;
#252 =( GEOMETRIC_REPRESENTATION_CONTEXT ( 3 ) GLOBAL_UNCERTAINTY_ASSIGNED_CONTEXT ( ( #324 ) ) GLOBAL_UNIT_ASSIGNED_CONTEXT ( ( #331, #397, #402 ) ) REPRESENTATION_CONTEXT ( 'NONE', 'WORKASPACE' ) );
#253 = VERTEX_POINT ( 'NONE', #158 ) ;
#254 = DIRECTION ( 'NONE',  ( 1.000000000000000000, 0.000000000000000000, 0.000000000000000000 ) ) ;
#255 = SPHERICAL_SURFACE ( 'NONE', #84, 0.1618192224333334650 ) ;
#256 = DIRECTION ( 'NONE',  ( -0.000000000000000000, -0.000000000000000000, 1.000000000000000000 ) ) ;
#257 = VECTOR ( 'NONE', #488, 39.37007874015748143 ) ;
#258 = CARTESIAN_POINT ( 'NONE',  ( 0.000000000000000000, 0.000000000000000000, -0.2952755899999999767 ) ) ;
#259 = CARTESIAN_POINT ( 'NONE',  ( 0.000000000000000000, -7.232165210979882351E-18, -6.168110239999999855 ) ) ;
#260 = ORIENTED_EDGE ( 'NONE', *, *, #184, .F. ) ;
#261 = FACE_OUTER_BOUND ( 'NONE', #300, .T. ) ;
#262 = DIRECTION ( 'NONE',  ( -0.000000000000000000, -0.000000000000000000, 1.000000000000000000 ) ) ;
#263 = VERTEX_POINT ( 'NONE', #399 ) ;
#264 = CARTESIAN_POINT ( 'NONE',  ( 0.1968503950000000113, 0.000000000000000000, -0.2362204699999999602 ) ) ;
#265 = CIRCLE ( 'NONE', #383, 0.1122047250000000052 ) ;
#266 = AXIS2_PLACEMENT_3D ( 'NONE', #420, #469, #254 ) ;
#267 = CIRCLE ( 'NONE', #285, 0.1250000000000000000 ) ;
#268 = CARTESIAN_POINT ( 'NONE',  ( 0.000000000000000000, -7.232165210979882351E-18, -6.168110239999999855 ) ) ;
#269 = EDGE_LOOP ( 'NONE', ( #39, #277, #350, #26 ) ) ;
#270 = UNCERTAINTY_MEASURE_WITH_UNIT (LENGTH_MEASURE( 1.000000000000000082E-05 ), #454, 'distance_accuracy_value', 'NONE');
#271 = EDGE_CURVE ( 'NONE', #313, #94, #29, .T. ) ;
#272 = ORIENTED_EDGE ( 'NONE', *, *, #406, .T. ) ;
#273 = FACE_OUTER_BOUND ( 'NONE', #500, .T. ) ;
#274 = ORIENTED_EDGE ( 'NONE', *, *, #307, .F. ) ;
#275 = DIRECTION ( 'NONE',  ( 1.000000000000000000, 0.000000000000000000, 0.000000000000000000 ) ) ;
#276 = CIRCLE ( 'NONE', #373, 0.1250000000000000000 ) ;
#277 = ORIENTED_EDGE ( 'NONE', *, *, #536, .T. ) ;
#278 = DIRECTION ( 'NONE',  ( -1.000000000000000000, 0.000000000000000000, 0.000000000000000000 ) ) ;
#279 = DIRECTION ( 'NONE',  ( 0.000000000000000000, -1.000000000000000000, 0.000000000000000000 ) ) ;
#280 = VERTEX_POINT ( 'NONE', #385 ) ;
#281 = LINE ( 'NONE', #531, #520 ) ;
#282 = LINE ( 'NONE', #449, #257 ) ;
#283 = CARTESIAN_POINT ( 'NONE',  ( 0.000000000000000000, 0.000000000000000000, -0.1574803099999999845 ) ) ;
#284 = CARTESIAN_POINT ( 'NONE',  ( 0.000000000000000000, 0.000000000000000000, -0.2362204699999999602 ) ) ;
#285 = AXIS2_PLACEMENT_3D ( 'NONE', #234, #288, #278 ) ;
#286 = AXIS2_PLACEMENT_3D ( 'NONE', #99, #14, #51 ) ;
#287 = ORIENTED_EDGE ( 'NONE', *, *, #480, .F. ) ;
#288 = DIRECTION ( 'NONE',  ( 0.000000000000000000, 0.000000000000000000, -1.000000000000000000 ) ) ;
#289 = LENGTH_MEASURE_WITH_UNIT ( LENGTH_MEASURE( 0.02539999999999999897 ), #539 );
#290 = CARTESIAN_POINT ( 'NONE',  ( 0.000000000000000000, 1.963515745446189127E-16, -6.065346137566665519 ) ) ;
#291 = EDGE_CURVE ( 'NONE', #470, #382, #292, .T. ) ;
#292 = CIRCLE ( 'NONE', #57, 0.1122047250000000052 ) ;
#293 = DIRECTION ( 'NONE',  ( -0.000000000000000000, -0.000000000000000000, 1.000000000000000000 ) ) ;
#294 = CIRCLE ( 'NONE', #286, 0.1618192224333337703 ) ;
#295 = CIRCLE ( 'NONE', #502, 0.1122047250000000052 ) ;
#296 = CARTESIAN_POINT ( 'NONE',  ( 0.000000000000000000, 0.000000000000000000, 0.000000000000000000 ) ) ;
#297 = EDGE_CURVE ( 'NONE', #69, #45, #130, .T. ) ;
#298 = DIRECTION ( 'NONE',  ( -0.000000000000000000, -0.000000000000000000, 1.000000000000000000 ) ) ;
#299 = DIRECTION ( 'NONE',  ( 0.000000000000000000, 1.000000000000000000, 1.055131133597915992E-16 ) ) ;
#300 = EDGE_LOOP ( 'NONE', ( #187, #364, #182, #320 ) ) ;
#301 = CARTESIAN_POINT ( 'NONE',  ( -0.1122047250000000052, 1.374111573204589984E-17, -0.2952755899999999767 ) ) ;
#302 = CARTESIAN_POINT ( 'NONE',  ( 0.000000000000000000, 0.000000000000000000, -0.1027641024333334485 ) ) ;
#303 = VERTEX_POINT ( 'NONE', #485 ) ;
#304 = DIRECTION ( 'NONE',  ( -0.000000000000000000, -0.000000000000000000, 1.000000000000000000 ) ) ;
#305 = DIRECTION ( 'NONE',  ( -0.000000000000000000, -0.000000000000000000, 1.000000000000000000 ) ) ;
#306 = CYLINDRICAL_SURFACE ( 'NONE', #390, 0.1250000000000000000 ) ;
#307 = EDGE_CURVE ( 'NONE', #481, #432, #429, .T. ) ;
#308 = DIRECTION ( 'NONE',  ( -0.000000000000000000, -0.000000000000000000, 1.000000000000000000 ) ) ;
#309 = ORIENTED_EDGE ( 'NONE', *, *, #97, .T. ) ;
#310 = VECTOR ( 'NONE', #360, 39.37007874015748143 ) ;
#311 =( GEOMETRIC_REPRESENTATION_CONTEXT ( 3 ) GLOBAL_UNCERTAINTY_ASSIGNED_CONTEXT ( ( #270 ) ) GLOBAL_UNIT_ASSIGNED_CONTEXT ( ( #454, #247, #542 ) ) REPRESENTATION_CONTEXT ( 'NONE', 'WORKASPACE' ) );
#312 = DIRECTION ( 'NONE',  ( -0.000000000000000000, -2.449293598294713810E-16, 1.000000000000000000 ) ) ;
#313 = VERTEX_POINT ( 'NONE', #119 ) ;
#314 = DIRECTION ( 'NONE',  ( -0.000000000000000000, -0.000000000000000000, 1.000000000000000000 ) ) ;
#315 = ORIENTED_EDGE ( 'NONE', *, *, #162, .T. ) ;
#316 = DIRECTION ( 'NONE',  ( -0.000000000000000000, -0.000000000000000000, 1.000000000000000000 ) ) ;
#317 = DIMENSIONAL_EXPONENTS ( 1.000000000000000000, 0.000000000000000000, 0.000000000000000000, 0.000000000000000000, 0.000000000000000000, 0.000000000000000000, 0.000000000000000000 ) ;
#318 = EDGE_LOOP ( 'NONE', ( #164, #486, #218, #499 ) ) ;
#319 = AXIS2_PLACEMENT_3D ( 'NONE', #258, #336, #232 ) ;
#320 = ORIENTED_EDGE ( 'NONE', *, *, #104, .F. ) ;
#321 = PLANE ( 'NONE',  #4 ) ;
#322 = FACE_OUTER_BOUND ( 'NONE', #409, .T. ) ;
#323 = FILL_AREA_STYLE ('',( #330 ) ) ;
#324 = UNCERTAINTY_MEASURE_WITH_UNIT (LENGTH_MEASURE( 1.000000000000000082E-05 ), #331, 'distance_accuracy_value', 'NONE');
#325 = EDGE_CURVE ( 'NONE', #24, #114, #411, .T. ) ;
#326 = DIRECTION ( 'NONE',  ( -0.000000000000000000, -0.000000000000000000, 1.000000000000000000 ) ) ;
#327 = ORIENTED_EDGE ( 'NONE', *, *, #124, .T. ) ;
#328 = DIRECTION ( 'NONE',  ( 1.000000000000000000, 0.000000000000000000, 0.000000000000000000 ) ) ;
#329 = AXIS2_PLACEMENT_3D ( 'NONE', #268, #113, #386 ) ;
#330 = FILL_AREA_STYLE_COLOUR ( '', #457 ) ;
#331 =( CONVERSION_BASED_UNIT ( 'INCH', #482 ) LENGTH_UNIT ( ) NAMED_UNIT ( #418 ) );
#332 = ORIENTED_EDGE ( 'NONE', *, *, #462, .T. ) ;
#333 = CARTESIAN_POINT ( 'NONE',  ( 0.000000000000000000, -7.232165210979882351E-18, -6.168110239999999855 ) ) ;
#334 = VECTOR ( 'NONE', #305, 39.37007874015748143 ) ;
#335 = ADVANCED_FACE ( 'HAF_SOUTH_RELIEF__P01', ( #353, #513 ), #356, .T. ) ;
#336 = DIRECTION ( 'NONE',  ( -0.000000000000000000, -0.000000000000000000, 1.000000000000000000 ) ) ;
#337 = FACE_BOUND ( 'NONE', #357, .T. ) ;
#338 = CARTESIAN_POINT ( 'NONE',  ( 0.000000000000000000, 0.000000000000000000, 0.000000000000000000 ) ) ;
#339 = DIRECTION ( 'NONE',  ( -0.000000000000000000, -0.000000000000000000, 1.000000000000000000 ) ) ;
#340 = DIRECTION ( 'NONE',  ( -0.000000000000000000, -0.000000000000000000, 1.000000000000000000 ) ) ;
#341 = ADVANCED_FACE ( 'HAF_NORTH_DOME__P01', ( #392 ), #255, .T. ) ;
#342 = LINE ( 'NONE', #346, #438 ) ;
#343 = APPLICATION_CONTEXT ( 'automotive_design' ) ;
#344 = AXIS2_PLACEMENT_3D ( 'NONE', #403, #16, #279 ) ;
#345 = VECTOR ( 'NONE', #141, 39.37007874015748143 ) ;
#346 = CARTESIAN_POINT ( 'NONE',  ( -0.1250000000000000000, 1.530808498934191509E-17, 0.000000000000000000 ) ) ;
#347 = ORIENTED_EDGE ( 'NONE', *, *, #498, .F. ) ;
#348 = CARTESIAN_POINT ( 'NONE',  ( 0.000000000000000000, 0.000000000000000000, 0.000000000000000000 ) ) ;
#349 = CARTESIAN_POINT ( 'NONE',  ( 0.000000000000000000, 0.000000000000000000, -0.1574803099999999845 ) ) ;
#350 = ORIENTED_EDGE ( 'NONE', *, *, #406, .F. ) ;
#351 = AXIS2_PLACEMENT_3D ( 'NONE', #394, #206, #328 ) ;
#352 = EDGE_CURVE ( 'NONE', #30, #313, #167, .T. ) ;
#353 = FACE_BOUND ( 'NONE', #148, .T. ) ;
#354 = AXIS2_PLACEMENT_3D ( 'NONE', #33, #244, #442 ) ;
#355 = ORIENTED_EDGE ( 'NONE', *, *, #352, .T. ) ;
#356 = PLANE ( 'NONE',  #128 ) ;
#357 = EDGE_LOOP ( 'NONE', ( #15, #393 ) ) ;
#358 = CARTESIAN_POINT ( 'NONE',  ( 0.000000000000000000, 1.963515745446189127E-16, -6.065346137566665519 ) ) ;
#359 = VERTEX_POINT ( 'NONE', #49 ) ;
#360 = DIRECTION ( 'NONE',  ( -0.000000000000000000, -0.000000000000000000, 1.000000000000000000 ) ) ;
#361 = AXIS2_PLACEMENT_3D ( 'NONE', #284, #308, #65 ) ;
#362 = DIRECTION ( 'NONE',  ( -0.000000000000000000, -0.000000000000000000, 1.000000000000000000 ) ) ;
#363 = CIRCLE ( 'NONE', #145, 0.1122047250000000052 ) ;
#364 = ORIENTED_EDGE ( 'NONE', *, *, #498, .T. ) ;
#365 = DIRECTION ( 'NONE',  ( 0.000000000000000000, 0.000000000000000000, 1.000000000000000000 ) ) ;
#366 = CARTESIAN_POINT ( 'NONE',  ( 0.000000000000000000, 0.000000000000000000, -0.3740157499999999802 ) ) ;
#367 = ADVANCED_FACE ( 'HAF_NORTH_RELIEF__P01', ( #54, #213 ), #511, .T. ) ;
#368 = EDGE_LOOP ( 'NONE', ( #521, #76, #435, #243 ) ) ;
#369 = FACE_BOUND ( 'NONE', #17, .T. ) ;
#370 = DIRECTION ( 'NONE',  ( 1.000000000000000000, 0.000000000000000000, 0.000000000000000000 ) ) ;
#371 = AXIS2_PLACEMENT_3D ( 'NONE', #229, #304, #506 ) ;
#372 = CARTESIAN_POINT ( 'NONE',  ( 0.000000000000000000, 0.000000000000000000, -0.3740157499999999802 ) ) ;
#373 = AXIS2_PLACEMENT_3D ( 'NONE', #417, #339, #512 ) ;
#374 = EDGE_LOOP ( 'NONE', ( #260, #478, #152, #387 ) ) ;
#375 = CYLINDRICAL_SURFACE ( 'NONE', #59, 0.1122047250000000052 ) ;
#376 = DIRECTION ( 'NONE',  ( 1.000000000000000000, 0.000000000000000000, 0.000000000000000000 ) ) ;
#377 = DIRECTION ( 'NONE',  ( 1.000000000000000000, 0.000000000000000000, 0.000000000000000000 ) ) ;
#378 = DIRECTION ( 'NONE',  ( 1.000000000000000000, 0.000000000000000000, 0.000000000000000000 ) ) ;
#379 = ORIENTED_EDGE ( 'NONE', *, *, #477, .T. ) ;
#380 = CARTESIAN_POINT ( 'NONE',  ( 0.1250000000000000000, 0.000000000000000000, -0.1574803099999999845 ) ) ;
#381 = CARTESIAN_POINT ( 'NONE',  ( 0.1250000000000000000, 0.000000000000000000, 0.000000000000000000 ) ) ;
#382 = VERTEX_POINT ( 'NONE', #106 ) ;
#383 = AXIS2_PLACEMENT_3D ( 'NONE', #534, #186, #71 ) ;
#384 = ADVANCED_FACE ( 'HAF_PIVOT_BEARING__P01', ( #479 ), #523, .T. ) ;
#385 = CARTESIAN_POINT ( 'NONE',  ( 1.530808498934189352E-17, 0.1250000000000000555, -6.168110239999999855 ) ) ;
#386 = DIRECTION ( 'NONE',  ( 0.000000000000000000, -1.000000000000000000, 0.000000000000000000 ) ) ;
#387 = ORIENTED_EDGE ( 'NONE', *, *, #142, .T. ) ;
#388 = EDGE_LOOP ( 'NONE', ( #391, #309, #64, #72 ) ) ;
#389 = CARTESIAN_POINT ( 'NONE',  ( 0.000000000000000000, 0.000000000000000000, 0.000000000000000000 ) ) ;
#390 = AXIS2_PLACEMENT_3D ( 'NONE', #471, #256, #370 ) ;
#391 = ORIENTED_EDGE ( 'NONE', *, *, #228, .F. ) ;
#392 = FACE_OUTER_BOUND ( 'NONE', #374, .T. ) ;
#393 = ORIENTED_EDGE ( 'NONE', *, *, #451, .F. ) ;
#394 = CARTESIAN_POINT ( 'NONE',  ( 0.000000000000000000, 0.000000000000000000, -0.1574803099999999845 ) ) ;
#395 = FACE_OUTER_BOUND ( 'NONE', #179, .T. ) ;
#396 = ORIENTED_EDGE ( 'NONE', *, *, #526, .T. ) ;
#397 =( NAMED_UNIT ( * ) PLANE_ANGLE_UNIT ( ) SI_UNIT ( $, .RADIAN. ) );
#398 = CIRCLE ( 'NONE', #200, 0.1250000000000000000 ) ;
#399 = CARTESIAN_POINT ( 'NONE',  ( 0.000000000000000000, 2.260772834636434061E-16, -6.227165359999999872 ) ) ;
#400 = PRESENTATION_LAYER_ASSIGNMENT (  '', '', ( #67 ) ) ;
#401 = CARTESIAN_POINT ( 'NONE',  ( -0.1250000000000000000, 1.530808498934191509E-17, 0.000000000000000000 ) ) ;
#402 =( NAMED_UNIT ( * ) SI_UNIT ( $, .STERADIAN. ) SOLID_ANGLE_UNIT ( ) );
#403 = CARTESIAN_POINT ( 'NONE',  ( 0.000000000000000000, 1.963515745446189127E-16, -6.065346137566665519 ) ) ;
#404 = PRODUCT_DEFINITION_SHAPE ( 'NONE', 'NONE',  #215 ) ;
#405 = ORIENTED_EDGE ( 'NONE', *, *, #459, .T. ) ;
#406 = EDGE_CURVE ( 'NONE', #127, #443, #295, .T. ) ;
#407 = LINE ( 'NONE', #70, #310 ) ;
#408 = APPLICATION_CONTEXT ( 'automotive_design' ) ;
#409 = EDGE_LOOP ( 'NONE', ( #202, #497, #379, #467 ) ) ;
#410 = AXIS2_PLACEMENT_3D ( 'NONE', #165, #262, #425 ) ;
#411 = CIRCLE ( 'NONE', #361, 0.1968503950000000113 ) ;
#412 = FACE_OUTER_BOUND ( 'NONE', #269, .T. ) ;
#413 = ORIENTED_EDGE ( 'NONE', *, *, #40, .F. ) ;
#414 = ADVANCED_FACE ( 'HAF_SHOULDER_OD__P01', ( #191 ), #11, .T. ) ;
#415 = DIRECTION ( 'NONE',  ( -0.000000000000000000, -2.449293598294713810E-16, 1.000000000000000000 ) ) ;
#416 = DIRECTION ( 'NONE',  ( 0.000000000000000000, 1.000000000000000000, 1.055131133597915992E-16 ) ) ;
#417 = CARTESIAN_POINT ( 'NONE',  ( 0.000000000000000000, 0.000000000000000000, 0.000000000000000000 ) ) ;
#418 = DIMENSIONAL_EXPONENTS ( 1.000000000000000000, 0.000000000000000000, 0.000000000000000000, 0.000000000000000000, 0.000000000000000000, 0.000000000000000000, 0.000000000000000000 ) ;
#419 = DIRECTION ( 'NONE',  ( -0.000000000000000000, -0.000000000000000000, 1.000000000000000000 ) ) ;
#420 = CARTESIAN_POINT ( 'NONE',  ( 0.000000000000000000, 0.000000000000000000, -0.2952755899999999767 ) ) ;
#421 = ADVANCED_FACE ( 'HAF_NORTH_RELIEF__P02', ( #273 ), #375, .T. ) ;
#422 = CARTESIAN_POINT ( 'NONE',  ( 0.000000000000000000, 0.1122047250000000052, -0.3740157499999999802 ) ) ;
#423 = DIRECTION ( 'NONE',  ( 1.000000000000000000, 0.000000000000000000, -0.000000000000000000 ) ) ;
#424 = VERTEX_POINT ( 'NONE', #380 ) ;
#425 = DIRECTION ( 'NONE',  ( 1.000000000000000000, 0.000000000000000000, 0.000000000000000000 ) ) ;
#426 = AXIS2_PLACEMENT_3D ( 'NONE', #173, #132, #275 ) ;
#427 = ORIENTED_EDGE ( 'NONE', *, *, #139, .F. ) ;
#428 = AXIS2_PLACEMENT_3D ( 'NONE', #372, #217, #378 ) ;
#429 = CIRCLE ( 'NONE', #533, 0.1122047250000000052 ) ;
#430 = ADVANCED_FACE ( 'HAF_PIVOT_BEARING__P01', ( #91 ), #177, .T. ) ;
#431 = SPHERICAL_SURFACE ( 'NONE', #344, 0.1618192224333337703 ) ;
#432 = VERTEX_POINT ( 'NONE', #437 ) ;
#433 = ORIENTED_EDGE ( 'NONE', *, *, #203, .F. ) ;
#434 = CARTESIAN_POINT ( 'NONE',  ( 0.000000000000000000, 0.000000000000000000, -0.1027641024333334485 ) ) ;
#435 = ORIENTED_EDGE ( 'NONE', *, *, #241, .F. ) ;
#436 = EDGE_CURVE ( 'NONE', #446, #313, #211, .T. ) ;
#437 = CARTESIAN_POINT ( 'NONE',  ( 0.1122047250000000052, 0.000000000000000000, -0.3740157499999999802 ) ) ;
#438 = VECTOR ( 'NONE', #9, 39.37007874015748143 ) ;
#439 = ORIENTED_EDGE ( 'NONE', *, *, #510, .F. ) ;
#440 = PRODUCT_DEFINITION_CONTEXT ( 'detailed design', #343, 'design' ) ;
#441 = FACE_OUTER_BOUND ( 'NONE', #318, .T. ) ;
#442 = DIRECTION ( 'NONE',  ( 1.000000000000000000, 0.000000000000000000, 0.000000000000000000 ) ) ;
#443 = VERTEX_POINT ( 'NONE', #301 ) ;
#444 =( LENGTH_UNIT ( ) NAMED_UNIT ( * ) SI_UNIT ( $, .METRE. ) );
#445 = CARTESIAN_POINT ( 'NONE',  ( 0.1250000000000000000, 0.000000000000000000, -6.168110239999999855 ) ) ;
#446 = VERTEX_POINT ( 'NONE', #461 ) ;
#447 = DIRECTION ( 'NONE',  ( -0.000000000000000000, -0.000000000000000000, 1.000000000000000000 ) ) ;
#448 = AXIS2_PLACEMENT_3D ( 'NONE', #492, #61, #223 ) ;
#449 = CARTESIAN_POINT ( 'NONE',  ( -0.1968503950000000113, 2.410722061476421855E-17, 0.000000000000000000 ) ) ;
#450 = CIRCLE ( 'NONE', #354, 0.1968503950000000113 ) ;
#451 = EDGE_CURVE ( 'NONE', #474, #303, #363, .T. ) ;
#452 = PRESENTATION_STYLE_ASSIGNMENT (( #489 ) ) ;
#453 = CYLINDRICAL_SURFACE ( 'NONE', #504, 0.1122047250000000052 ) ;
#454 =( CONVERSION_BASED_UNIT ( 'INCH', #289 ) LENGTH_UNIT ( ) NAMED_UNIT ( #317 ) );
#455 = ORIENTED_EDGE ( 'NONE', *, *, #97, .F. ) ;
#456 = VECTOR ( 'NONE', #340, 39.37007874015748143 ) ;
#457 = COLOUR_RGB ( '',0.7921568627450980005, 0.8196078431372548767, 0.9333333333333333481 ) ;
#458 = DIRECTION ( 'NONE',  ( 1.000000000000000000, 0.000000000000000000, 0.000000000000000000 ) ) ;
#459 = EDGE_CURVE ( 'NONE', #443, #127, #198, .T. ) ;
#460 = CARTESIAN_POINT ( 'NONE',  ( 0.000000000000000000, 0.000000000000000000, 0.000000000000000000 ) ) ;
#461 = CARTESIAN_POINT ( 'NONE',  ( 0.000000000000000000, -9.908569639674770536E-18, 0.05905512000000000955 ) ) ;
#462 = EDGE_CURVE ( 'NONE', #424, #94, #20, .T. ) ;
#463 = CARTESIAN_POINT ( 'NONE',  ( 0.1122047250000000052, 0.000000000000000000, -0.2952755899999999767 ) ) ;
#464 = DIRECTION ( 'NONE',  ( -0.000000000000000000, -0.000000000000000000, 1.000000000000000000 ) ) ;
#465 = ADVANCED_FACE ( 'HAF_NORTH_RELIEF__P02', ( #261 ), #453, .T. ) ;
#466 = LINE ( 'NONE', #514, #334 ) ;
#467 = ORIENTED_EDGE ( 'NONE', *, *, #459, .F. ) ;
#468 = DIRECTION ( 'NONE',  ( 1.000000000000000000, 0.000000000000000000, 0.000000000000000000 ) ) ;
#469 = DIRECTION ( 'NONE',  ( -0.000000000000000000, -0.000000000000000000, 1.000000000000000000 ) ) ;
#470 = VERTEX_POINT ( 'NONE', #540 ) ;
#471 = CARTESIAN_POINT ( 'NONE',  ( 0.000000000000000000, 0.000000000000000000, 0.000000000000000000 ) ) ;
#472 = DIRECTION ( 'NONE',  ( -1.000000000000000000, 0.000000000000000000, 0.000000000000000000 ) ) ;
#473 = AXIS2_PLACEMENT_3D ( 'NONE', #338, #298, #468 ) ;
#474 = VERTEX_POINT ( 'NONE', #81 ) ;
#475 = ORIENTED_EDGE ( 'NONE', *, *, #462, .F. ) ;
#476 = DIRECTION ( 'NONE',  ( 1.000000000000000000, 0.000000000000000000, 0.000000000000000000 ) ) ;
#477 = EDGE_CURVE ( 'NONE', #432, #127, #407, .T. ) ;
#478 = ORIENTED_EDGE ( 'NONE', *, *, #436, .T. ) ;
#479 = FACE_OUTER_BOUND ( 'NONE', #493, .T. ) ;
#480 = EDGE_CURVE ( 'NONE', #175, #424, #398, .T. ) ;
#481 = VERTEX_POINT ( 'NONE', #77 ) ;
#482 = LENGTH_MEASURE_WITH_UNIT ( LENGTH_MEASURE( 0.02539999999999999897 ), #444 );
#483 = CIRCLE ( 'NONE', #129, 0.1618192224333338536 ) ;
#484 = AXIS2_PLACEMENT_3D ( 'NONE', #434, #68, #95 ) ;
#485 = CARTESIAN_POINT ( 'NONE',  ( 0.1122047250000000052, 0.000000000000000000, -0.2362204699999999880 ) ) ;
#486 = ORIENTED_EDGE ( 'NONE', *, *, #40, .T. ) ;
#487 = DIRECTION ( 'NONE',  ( 1.000000000000000000, 0.000000000000000000, 0.000000000000000000 ) ) ;
#488 = DIRECTION ( 'NONE',  ( -0.000000000000000000, -0.000000000000000000, 1.000000000000000000 ) ) ;
#489 = SURFACE_STYLE_USAGE ( .BOTH. , #126 ) ;
#490 = APPLICATION_PROTOCOL_DEFINITION ( 'draft international standard', 'automotive_design', 1998, #408 ) ;
#491 = ADVANCED_FACE ( 'HAF_SHOULDER_THRUST__P01', ( #248, #369 ), #321, .F. ) ;
#492 = CARTESIAN_POINT ( 'NONE',  ( 0.000000000000000000, 0.000000000000000000, -0.2362204699999999602 ) ) ;
#493 = EDGE_LOOP ( 'NONE', ( #56, #156, #195, #133, #530 ) ) ;
#494 = LINE ( 'NONE', #196, #120 ) ;
#495 = PRODUCT ( 'pivot-shaft', 'pivot-shaft', '', ( #210 ) ) ;
#496 = AXIS2_PLACEMENT_3D ( 'NONE', #102, #225, #183 ) ;
#497 = ORIENTED_EDGE ( 'NONE', *, *, #307, .T. ) ;
#498 = EDGE_CURVE ( 'NONE', #474, #382, #281, .T. ) ;
#499 = ORIENTED_EDGE ( 'NONE', *, *, #231, .F. ) ;
#500 = EDGE_LOOP ( 'NONE', ( #347, #185, #36, #193 ) ) ;
#501 = EDGE_CURVE ( 'NONE', #424, #175, #267, .T. ) ;
#502 = AXIS2_PLACEMENT_3D ( 'NONE', #23, #419, #108 ) ;
#503 = AXIS2_PLACEMENT_3D ( 'NONE', #333, #89, #214 ) ;
#504 = AXIS2_PLACEMENT_3D ( 'NONE', #122, #112, #25 ) ;
#505 = DIRECTION ( 'NONE',  ( 0.000000000000000000, 0.000000000000000000, -1.000000000000000000 ) ) ;
#506 = DIRECTION ( 'NONE',  ( 1.000000000000000000, 0.000000000000000000, 0.000000000000000000 ) ) ;
#507 = FACE_OUTER_BOUND ( 'NONE', #98, .T. ) ;
#508 = APPLICATION_PROTOCOL_DEFINITION ( 'draft international standard', 'automotive_design', 1998, #343 ) ;
#509 = EDGE_LOOP ( 'NONE', ( #105, #396 ) ) ;
#510 = EDGE_CURVE ( 'NONE', #69, #7, #246, .T. ) ;
#511 = PLANE ( 'NONE',  #75 ) ;
#512 = DIRECTION ( 'NONE',  ( 1.000000000000000000, 0.000000000000000000, 0.000000000000000000 ) ) ;
#513 = FACE_OUTER_BOUND ( 'NONE', #227, .T. ) ;
#514 = CARTESIAN_POINT ( 'NONE',  ( 0.1968503950000000113, 0.000000000000000000, 0.000000000000000000 ) ) ;
#515 = AXIS2_PLACEMENT_3D ( 'NONE', #460, #88, #171 ) ;
#516 = PLANE ( 'NONE',  #168 ) ;
#517 = ORIENTED_EDGE ( 'NONE', *, *, #241, .T. ) ;
#518 = DIRECTION ( 'NONE',  ( 1.000000000000000000, 0.000000000000000000, 0.000000000000000000 ) ) ;
#519 = ADVANCED_FACE ( 'HAF_SOUTH_DOME__P01', ( #441 ), #27, .T. ) ;
#520 = VECTOR ( 'NONE', #447, 39.37007874015748143 ) ;
#521 = ORIENTED_EDGE ( 'NONE', *, *, #203, .T. ) ;
#522 = AXIS2_PLACEMENT_3D ( 'NONE', #366, #293, #458 ) ;
#523 = CYLINDRICAL_SURFACE ( 'NONE', #371, 0.1250000000000000000 ) ;
#524 = ORIENTED_EDGE ( 'NONE', *, *, #6, .T. ) ;
#525 = DIRECTION ( 'NONE',  ( -1.000000000000000000, 0.000000000000000000, -0.000000000000000000 ) ) ;
#526 = EDGE_CURVE ( 'NONE', #382, #470, #529, .T. ) ;
#527 = ORIENTED_EDGE ( 'NONE', *, *, #87, .T. ) ;
#528 = DIRECTION ( 'NONE',  ( 0.000000000000000000, -1.000000000000000000, 0.000000000000000000 ) ) ;
#529 = CIRCLE ( 'NONE', #351, 0.1122047250000000052 ) ;
#530 = ORIENTED_EDGE ( 'NONE', *, *, #73, .F. ) ;
#531 = CARTESIAN_POINT ( 'NONE',  ( -0.1122047250000000052, 1.374111573204589984E-17, 0.000000000000000000 ) ) ;
#532 = CLOSED_SHELL ( 'NONE', ( #236, #341, #384, #44, #414, #465, #111, #1, #367, #421, #63, #115, #491, #335, #192, #430, #155, #519 ) ) ;
#533 = AXIS2_PLACEMENT_3D ( 'NONE', #201, #326, #28 ) ;
#534 = CARTESIAN_POINT ( 'NONE',  ( 0.000000000000000000, 0.000000000000000000, -0.2362204699999999880 ) ) ;
#535 = EDGE_LOOP ( 'NONE', ( #221, #224, #332, #10, #190 ) ) ;
#536 = EDGE_CURVE ( 'NONE', #481, #443, #494, .T. ) ;
#537 = DIRECTION ( 'NONE',  ( -1.000000000000000000, 0.000000000000000000, 0.000000000000000000 ) ) ;
#538 = CARTESIAN_POINT ( 'NONE',  ( -0.1968503950000000113, 2.410722061476421855E-17, -0.2952755899999999767 ) ) ;
#539 =( LENGTH_UNIT ( ) NAMED_UNIT ( * ) SI_UNIT ( $, .METRE. ) );
#540 = CARTESIAN_POINT ( 'NONE',  ( 0.1122047250000000052, 0.000000000000000000, -0.1574803099999999845 ) ) ;
#541 = FACE_OUTER_BOUND ( 'NONE', #535, .T. ) ;
#542 =( NAMED_UNIT ( * ) SI_UNIT ( $, .STERADIAN. ) SOLID_ANGLE_UNIT ( ) );
#543 = SHAPE_DEFINITION_REPRESENTATION ( #404, #86 ) ;
ENDSEC;
END-ISO-10303-21;
